<?xml version="1.0" standalone="no"?>
<!DOCTYPE svg PUBLIC "-//W3C//DTD SVG 20010904//EN"
 "http://www.w3.org/TR/2001/REC-SVG-20010904/DTD/svg10.dtd">
<svg version="1.0" xmlns="http://www.w3.org/2000/svg"
 width="1213.000000pt" height="1549.000000pt" viewBox="0 0 1213.000000 1549.000000"
 preserveAspectRatio="xMidYMid meet">

<g transform="translate(0.000000,1549.000000) scale(0.100000,-0.100000)"
fill="#000000" stroke="none">
<path d="M12085 15480 c-4 -6 -15 -8 -24 -5 -16 5 -18 -10 -18 -197 -4 -877
-3 -1436 2 -1450 4 -10 3 -18 -1 -18 -5 0 -8 -100 -6 -222 2 -123 3 -232 3
-243 0 -11 0 -600 0 -1310 0 -709 2 -1639 4 -2065 19 -3650 24 -4290 36 -4313
7 -12 7 -23 1 -30 -6 -7 -8 -82 -6 -177 1 -91 5 -441 9 -779 5 -589 6 -616 25
-645 20 -31 20 -8 20 5717 0 5682 0 5747 -19 5747 -11 0 -23 -5 -26 -10z"/>
<path d="M3248 15445 c-2 -3 -600 -5 -1329 -5 -728 -1 -1361 -4 -1407 -7 -50
-4 -89 -11 -97 -19 -7 -8 -26 -14 -42 -14 -16 0 -34 -5 -41 -12 -9 -9 -17 -7
-35 10 -59 55 -89 10 -74 -113 9 -68 26 -734 27 -1030 0 -132 2 -395 5 -584 2
-189 -1 -354 -5 -367 -6 -15 -5 -26 1 -30 6 -4 8 -60 5 -157 -2 -87 0 -159 5
-169 6 -11 6 -25 0 -35 -5 -10 -12 -250 -16 -533 -4 -283 -8 -607 -10 -720 -1
-113 -6 -432 -10 -710 -9 -656 -10 -674 -19 -688 -4 -7 -4 -17 0 -24 7 -12 7
-722 -1 -1148 -2 -129 -7 -532 -10 -895 -3 -363 -8 -727 -10 -810 -13 -514
-21 -3704 -10 -4090 2 -71 7 -425 10 -785 4 -360 8 -698 10 -750 2 -52 6 -306
9 -565 4 -259 9 -507 12 -551 4 -60 2 -84 -7 -90 -14 -8 11 -22 44 -23 15 -1
16 2 7 20 -11 20 -11 252 0 262 3 2 22 7 44 10 32 5 39 3 43 -13 5 -21 60 -37
88 -27 8 4 17 2 20 -3 4 -6 17 -10 30 -10 13 0 27 -4 30 -10 3 -5 14 -10 24
-10 10 0 24 -7 31 -15 8 -9 29 -15 56 -15 23 0 46 -5 50 -11 4 -6 19 -9 36 -5
21 4 30 1 35 -10 4 -11 14 -14 32 -11 14 3 34 -1 45 -9 11 -8 29 -11 43 -8 18
5 22 3 18 -9 -5 -11 7 -16 53 -21 33 -4 63 -10 67 -14 3 -4 10 -7 13 -8 20 -2
69 -16 83 -24 19 -10 252 -70 294 -75 73 -10 105 -18 105 -27 0 -6 37 -8 95
-6 52 3 98 2 101 -1 10 -11 135 -27 140 -19 3 5 9 6 13 3 5 -2 43 -5 84 -7 53
-1 78 -6 81 -15 3 -7 12 -13 21 -13 8 0 15 -9 15 -20 0 -34 -43 -42 -175 -36
-66 3 -192 8 -280 11 -88 3 -223 7 -300 10 -419 14 -625 17 -625 7 0 -20 130
-29 190 -12 22 6 36 6 40 0 6 -10 101 -16 364 -25 78 -3 177 -7 221 -10 44 -3
137 -7 207 -9 70 -3 131 -6 135 -9 4 -2 46 -3 93 -2 47 1 89 0 95 -3 7 -5 213
-11 315 -10 14 0 30 -1 35 -2 6 0 78 -3 160 -5 83 -2 193 -6 245 -9 148 -7
472 -18 505 -17 17 1 38 4 48 7 9 3 17 1 17 -4 0 -9 118 -14 215 -11 17 1 38
1 48 0 38 -3 60 -3 154 -2 29 0 54 -3 58 -8 3 -5 17 -6 33 -2 15 4 42 4 61 0
18 -4 44 -4 57 1 14 6 26 6 29 0 3 -5 49 -7 102 -5 56 3 102 0 109 -6 8 -6 21
-6 39 1 15 6 32 7 38 3 6 -3 97 -8 201 -10 105 -3 198 -5 206 -5 8 0 26 0 40
1 14 1 97 -1 185 -4 88 -2 351 -7 585 -9 234 -3 508 -8 610 -10 102 -3 322 -8
490 -11 168 -3 357 -7 420 -10 63 -2 237 -7 385 -10 149 -3 360 -8 470 -11
110 -4 286 -8 390 -9 181 -2 549 -11 885 -20 284 -8 810 -17 1190 -19 206 -2
382 -6 390 -9 8 -3 29 -5 45 -5 41 1 497 -11 620 -16 200 -9 437 -8 445 0 9
10 17 397 25 1229 3 303 7 723 10 935 3 212 7 653 10 980 3 327 7 822 10 1100
3 278 7 818 10 1200 3 382 7 882 10 1110 8 678 21 2116 30 3540 3 437 8 957
10 1155 2 198 7 938 10 1645 4 707 8 1320 9 1362 1 70 -1 77 -16 72 -12 -3
-18 0 -18 10 0 9 6 16 14 16 8 0 16 6 19 13 3 8 6 214 6 460 2 420 1 446 -16
451 -45 13 -174 16 -843 21 -1250 9 -2207 17 -2460 21 -135 2 -1401 6 -2815 9
-1413 3 -2575 7 -2582 10 -6 2 -13 2 -15 0z m1882 -839 c0 -8 -4 -18 -10 -21
-5 -3 -10 3 -10 14 0 12 5 21 10 21 6 0 10 -6 10 -14z m440 -36 c0 -5 -7 -10
-15 -10 -8 0 -15 5 -15 10 0 6 7 10 15 10 8 0 15 -4 15 -10z m-4944 -385 c3
-8 14 -17 25 -20 27 -9 25 -52 -3 -61 -17 -5 -29 1 -55 30 -18 19 -33 43 -33
51 0 20 59 20 66 0z m974 -119 c0 -14 -34 -28 -44 -18 -15 14 -4 32 19 32 15
0 25 -6 25 -14z m185 -25 c0 -8 -8 -19 -18 -25 -22 -14 -42 11 -25 32 14 16
43 12 43 -7z m9115 -261 c0 -5 -4 -10 -10 -10 -5 0 -10 5 -10 10 0 6 5 10 10
10 6 0 10 -4 10 -10z m-10077 -687 c8 -7 -11 -33 -24 -33 -5 0 -9 9 -9 20 0
19 20 27 33 13z m10439 -155 c-6 -6 -15 -8 -19 -4 -4 4 -1 11 7 16 19 12 27 3
12 -12z m-2367 -216 c-9 -9 -35 8 -35 24 0 16 2 16 20 -1 11 -10 18 -20 15
-23z m-8235 9 c0 -12 -29 -41 -41 -41 -5 0 -9 11 -9 25 0 20 5 25 25 25 14 0
25 -4 25 -9z m9880 -186 c0 -8 -4 -15 -10 -15 -5 0 -10 7 -10 15 0 8 5 15 10
15 6 0 10 -7 10 -15z m1060 -14 c0 -27 -19 -36 -37 -18 -18 18 -9 37 18 37 12
0 19 -7 19 -19z m-11277 -347 c8 -8 -3 -34 -14 -34 -5 0 -9 9 -9 20 0 19 11
26 23 14z m9617 -234 c0 -5 -4 -10 -10 -10 -5 0 -10 5 -10 10 0 6 5 10 10 10
6 0 10 -4 10 -10z m1567 -306 c-3 -3 -12 -4 -19 -1 -8 3 -5 6 6 6 11 1 17 -2
13 -5z m-7272 -641 c-2 -10 -4 -20 -4 -22 -1 -3 -7 1 -13 7 -10 10 -10 15 2
22 19 12 19 13 15 -7z m2222 -40 c5 -13 -45 -46 -57 -38 -5 3 -7 12 -5 20 3 8
7 22 10 30 3 11 10 12 27 6 12 -4 23 -12 25 -18z m350 -229 c-3 -3 -12 -4 -19
-1 -8 3 -5 6 6 6 11 1 17 -2 13 -5z m-533 -179 c8 -19 22 -38 30 -41 10 -4 12
-16 9 -45 -4 -23 -1 -50 7 -64 15 -29 57 -39 69 -16 8 14 11 14 28 1 20 -17
60 -40 68 -40 3 0 5 12 6 28 0 26 1 26 9 5 5 -13 18 -23 29 -23 11 0 22 -4 25
-9 3 -5 15 -7 26 -4 14 4 20 0 20 -11 0 -9 11 -21 25 -26 18 -7 25 -17 25 -35
0 -14 6 -28 14 -31 8 -3 24 -26 36 -50 11 -25 25 -42 29 -39 5 3 15 -11 21
-30 8 -24 18 -35 31 -35 11 0 18 -4 15 -8 -8 -13 8 -29 37 -36 24 -6 30 -3 34
13 6 23 23 19 23 -5 0 -9 7 -22 15 -30 8 -9 15 -11 15 -5 0 23 17 9 28 -23 9
-23 21 -36 38 -40 31 -8 54 -29 54 -49 0 -28 12 -46 26 -40 8 3 14 -1 14 -10
0 -9 6 -20 14 -24 25 -15 87 -105 82 -119 -3 -8 3 -23 14 -34 11 -11 20 -24
20 -30 0 -5 4 -10 10 -10 5 0 7 -7 4 -15 -4 -10 0 -15 15 -15 23 0 29 -16 9
-22 -7 -3 -13 -11 -14 -19 -4 -52 -3 -51 -33 -44 -30 6 -30 6 -24 -31 5 -33 4
-37 -12 -31 -11 5 -22 1 -29 -8 -6 -9 -19 -17 -28 -18 -9 -2 -23 -9 -32 -16
-14 -12 -16 -12 -10 2 4 12 1 14 -15 10 -12 -3 -21 -10 -21 -15 0 -6 -7 -7
-16 -4 -11 4 -18 -1 -21 -14 -5 -18 -21 -25 -46 -21 -14 3 -3 -42 12 -47 10
-3 12 0 8 12 -8 21 2 21 18 -1 11 -15 15 -15 29 -4 29 24 20 -38 -9 -65 -14
-13 -25 -29 -25 -36 -1 -8 -6 -6 -15 6 -13 17 -15 17 -30 2 -10 -9 -14 -23
-11 -32 4 -11 1 -14 -13 -9 -13 4 -20 0 -24 -15 -3 -11 -11 -20 -19 -20 -7 0
-18 -10 -23 -22 -7 -16 -17 -22 -32 -20 -17 2 -23 -2 -23 -17 0 -11 -11 -33
-25 -49 -27 -33 -33 -72 -11 -72 8 0 17 6 20 13 5 10 7 10 12 0 12 -27 26 -12
21 22 -5 29 -3 35 12 35 20 0 54 33 44 43 -3 4 3 7 14 7 13 0 25 10 32 28 11
26 50 52 78 52 7 0 13 4 13 8 0 13 69 42 75 32 6 -10 55 8 55 20 0 7 69 43
103 54 15 5 22 24 18 49 -1 4 7 11 16 14 10 4 24 15 31 25 7 10 20 18 28 18 8
0 14 5 14 11 0 5 5 7 10 4 11 -7 62 16 130 56 22 13 36 17 38 10 2 -6 8 -11
13 -11 6 0 8 4 5 9 -7 10 16 21 44 21 9 0 23 6 29 14 7 8 20 15 29 15 45 2 62
6 62 12 0 8 25 18 67 25 16 3 46 13 68 24 61 28 85 33 100 20 8 -7 15 -7 19
-1 4 6 21 0 43 -14 44 -31 51 -31 63 -2 7 17 9 18 9 5 1 -13 9 -18 30 -18 17
0 33 -5 37 -11 4 -7 22 -9 46 -6 28 4 41 1 45 -9 3 -8 14 -14 25 -14 12 0 18
-6 16 -17 -2 -12 4 -19 20 -21 12 -2 27 -13 33 -24 8 -15 13 -17 19 -8 5 8 12
2 21 -19 8 -18 21 -31 31 -31 10 0 19 -6 19 -12 1 -7 2 -17 4 -23 1 -5 3 -16
3 -24 2 -10 7 -8 21 7 19 23 33 20 24 -5 -5 -13 -1 -15 20 -9 20 5 27 3 27 -9
0 -21 8 -19 32 8 14 17 21 19 25 8 5 -11 7 -11 14 0 7 11 11 10 23 -6 12 -17
16 -17 31 -5 15 12 18 12 26 -3 5 -9 16 -14 23 -11 8 3 17 0 21 -5 3 -6 11 -9
16 -5 13 8 38 -26 32 -43 -3 -7 -1 -13 5 -13 5 0 13 -12 17 -27 6 -27 48 -73
66 -73 5 0 9 -13 9 -29 0 -15 9 -40 20 -54 11 -14 17 -32 14 -41 -3 -9 -1 -23
5 -30 7 -8 8 -17 3 -20 -4 -3 -9 -33 -10 -68 -1 -35 -6 -64 -12 -66 -5 -2 -10
-13 -10 -23 0 -11 5 -17 10 -14 6 3 10 2 10 -3 0 -6 -7 -12 -15 -16 -11 -4
-15 -18 -14 -48 3 -70 -12 -148 -31 -161 -12 -8 -17 -25 -16 -55 1 -24 -2 -78
-5 -120 -8 -92 -5 -114 22 -131 18 -10 23 -10 35 6 7 10 14 26 14 35 0 10 16
34 36 53 20 20 33 39 30 42 -3 3 6 12 20 20 31 16 37 16 29 3 -3 -5 -1 -10 5
-10 6 0 13 6 16 14 3 8 18 16 33 19 31 6 47 41 34 74 -6 16 -5 16 10 5 14 -12
15 -9 12 32 -3 29 -1 46 6 46 7 0 9 10 5 26 -6 24 -5 26 19 22 18 -4 29 0 36
13 5 11 16 19 25 19 8 0 17 7 21 16 3 8 12 13 20 10 20 -8 81 35 88 62 3 12
12 22 20 22 8 0 15 6 15 13 0 14 87 57 150 74 58 15 75 3 65 -47 -22 -121 -45
-347 -50 -495 -6 -179 -13 -256 -26 -296 -17 -55 -61 -139 -71 -139 -6 0 -8
-6 -5 -14 3 -9 -4 -21 -19 -30 -13 -9 -24 -24 -24 -33 0 -17 -40 -69 -107
-137 -24 -24 -43 -51 -43 -60 0 -9 -7 -19 -15 -22 -8 -4 -13 -10 -10 -15 3 -4
-8 -18 -25 -30 -16 -13 -30 -28 -30 -34 0 -17 -75 -95 -91 -95 -8 0 -19 -4
-24 -8 -6 -5 -29 -15 -52 -22 -24 -7 -43 -17 -43 -21 0 -9 -58 -39 -77 -39 -7
0 -16 -7 -19 -15 -4 -9 -26 -17 -55 -21 -27 -4 -52 -10 -55 -15 -2 -5 -20 0
-39 11 -49 28 -87 30 -94 5 -3 -11 -14 -33 -25 -48 -10 -15 -16 -30 -13 -34 4
-3 0 -18 -8 -32 -8 -16 -10 -33 -5 -41 9 -15 -8 -61 -28 -73 -8 -6 -11 -18 -8
-32 4 -16 -1 -27 -19 -41 -28 -21 -34 -39 -10 -30 21 8 19 -7 -3 -21 -22 -13
-27 -70 -10 -91 8 -9 8 -16 1 -20 -5 -4 -10 -14 -11 -22 -6 -107 -30 -220 -45
-220 -5 0 -7 -6 -4 -12 2 -7 -12 -41 -31 -75 -18 -35 -31 -63 -27 -63 4 0 -4
-15 -18 -34 -14 -18 -29 -45 -32 -59 -4 -14 -12 -24 -19 -21 -7 3 -12 -5 -13
-17 -1 -12 -7 -26 -14 -30 -7 -4 -9 -14 -6 -22 3 -9 -1 -17 -13 -20 -11 -3
-22 -17 -25 -33 -11 -49 -14 -54 -30 -54 -10 0 -13 5 -9 12 4 7 3 8 -4 4 -7
-4 -12 -14 -12 -22 0 -8 -6 -14 -13 -14 -8 0 -21 -18 -30 -40 -8 -22 -22 -40
-30 -40 -9 0 -17 -15 -21 -40 -6 -37 -25 -57 -27 -27 0 6 -7 -4 -15 -23 -8
-20 -24 -40 -37 -45 -12 -6 -23 -20 -25 -32 -2 -13 -8 -23 -13 -23 -5 0 -15
-11 -21 -25 -6 -14 -19 -25 -29 -25 -9 0 -31 -16 -48 -36 -18 -20 -51 -42 -76
-51 -39 -13 -45 -19 -45 -42 0 -16 -9 -38 -19 -50 -16 -19 -23 -21 -40 -11
-23 12 -61 -5 -61 -27 0 -7 -7 -13 -16 -13 -11 0 -14 -5 -10 -16 5 -13 1 -15
-19 -10 -20 5 -25 3 -25 -13 0 -15 -5 -18 -22 -14 -19 4 -20 3 -8 -6 13 -9 12
-12 -8 -17 -16 -5 -21 -11 -17 -25 5 -15 1 -19 -19 -19 -21 0 -26 -5 -26 -24
0 -37 -10 -56 -31 -56 -10 0 -19 -5 -19 -11 0 -6 -6 -9 -13 -6 -7 3 -19 -4
-25 -14 -9 -14 -9 -19 -1 -19 7 0 4 -8 -6 -20 -10 -11 -24 -20 -32 -20 -7 0
-13 -7 -13 -15 0 -8 -12 -22 -27 -32 -35 -21 -93 -80 -93 -93 0 -6 -6 -10 -13
-10 -7 0 -23 -11 -35 -25 -13 -14 -26 -24 -31 -21 -4 3 -14 -6 -21 -19 -7 -14
-18 -24 -24 -23 -19 4 -76 -24 -76 -37 0 -7 -9 -10 -24 -8 -13 3 -27 0 -30 -6
-4 -6 -14 -11 -23 -11 -9 0 -25 -8 -35 -17 -14 -13 -21 -14 -30 -5 -7 7 -17
12 -22 12 -6 0 -4 -5 4 -10 12 -7 12 -12 2 -22 -10 -10 -15 -10 -23 2 -8 11
-12 12 -16 3 -2 -7 -11 -13 -19 -13 -7 0 -12 -6 -10 -13 1 -6 1 -9 -1 -4 -3 4
-12 7 -22 7 -9 0 -22 5 -29 12 -9 9 -13 8 -17 -4 -4 -9 -15 -13 -29 -11 -13 3
-30 -2 -39 -11 -19 -19 -53 -21 -60 -3 -4 9 -7 9 -17 0 -11 -10 -16 -9 -25 4
-11 14 -13 13 -19 -10 -7 -31 -21 -35 -31 -10 -6 16 -8 15 -24 -6 -18 -24 -19
-24 -25 -3 -5 13 -12 19 -22 15 -9 -3 -13 -12 -10 -22 5 -14 5 -14 -6 -1 -18
22 -68 23 -90 3 -10 -9 -18 -13 -18 -8 0 4 -7 2 -15 -5 -13 -11 -19 -10 -32 7
-16 19 -19 19 -51 6 -25 -10 -37 -11 -42 -3 -5 8 -19 8 -51 1 -28 -6 -45 -7
-47 -1 -2 6 -30 10 -62 10 -32 0 -62 5 -65 10 -3 6 -26 15 -50 21 -25 6 -42
15 -39 20 3 5 -3 9 -13 9 -10 0 -34 10 -53 22 -54 34 -124 68 -137 68 -12 0
-17 13 -14 33 1 4 -5 7 -12 5 -15 -3 -66 38 -83 68 -6 10 -18 19 -27 19 -19 0
-55 32 -62 55 -3 10 -19 23 -36 30 -18 8 -28 18 -25 26 8 21 -38 66 -59 57
-13 -4 -16 -3 -11 5 4 7 -3 17 -18 24 -26 11 -35 28 -16 28 21 0 9 18 -22 33
-38 18 -88 63 -88 78 0 6 -5 7 -10 4 -13 -8 -80 13 -80 25 0 5 -6 7 -14 4 -9
-3 -15 5 -20 26 -3 20 -13 34 -25 37 -11 3 -21 14 -24 25 -3 11 -15 22 -26 25
-12 3 -21 9 -21 14 0 4 -13 22 -30 39 -16 17 -30 37 -30 44 0 20 -24 36 -39
27 -15 -10 -53 17 -45 31 8 12 -15 48 -30 48 -8 0 -16 7 -20 15 -3 8 -16 15
-28 16 -20 0 -21 1 -4 8 17 6 16 9 -9 25 -14 10 -33 15 -40 12 -31 -11 -50 59
-25 89 14 17 13 18 -8 13 -15 -4 -25 -2 -29 8 -3 8 -12 14 -20 14 -9 0 -13 6
-9 15 3 8 -1 21 -9 29 -8 7 -11 16 -8 20 3 3 -2 8 -11 12 -9 3 -13 10 -10 15
5 8 -42 34 -57 31 -3 0 -11 15 -18 35 -10 26 -17 34 -32 30 -10 -3 -18 -2 -17
2 1 3 -2 30 -7 59 -6 39 -11 50 -20 42 -15 -13 -50 23 -39 41 4 8 3 10 -4 5
-8 -5 -12 0 -12 13 0 12 -4 21 -9 21 -5 0 -12 14 -16 30 -4 16 -13 30 -20 30
-9 0 -15 14 -17 38 -2 30 -7 38 -26 40 -18 3 -23 8 -19 23 3 12 0 22 -9 26 -8
3 -13 12 -10 19 3 7 0 19 -7 26 -13 15 -18 28 -23 71 -2 16 -11 35 -19 43 -15
15 -19 37 -16 81 1 11 -2 24 -7 27 -6 3 -8 16 -5 27 5 16 -3 29 -25 49 -34 30
-42 46 -17 36 12 -4 14 -2 7 11 -5 9 -7 24 -5 34 3 11 0 25 -6 33 -8 9 -8 21
-2 39 9 22 7 29 -12 43 -15 11 -18 18 -9 21 6 3 12 11 12 18 0 7 -6 16 -12 18
-8 3 -6 6 4 6 16 1 16 3 0 33 -9 18 -20 35 -24 38 -3 3 -8 21 -10 40 l-4 35
-12 -27 c-6 -16 -14 -28 -17 -28 -11 0 8 55 23 68 12 9 13 15 4 24 -7 7 -12
20 -12 31 0 10 -4 16 -9 13 -5 -3 -11 3 -14 14 -3 11 -12 20 -22 20 -9 0 -15
6 -13 13 2 7 -6 30 -17 51 -14 25 -17 39 -9 44 19 12 13 76 -8 91 -12 8 -18
21 -15 32 3 11 -3 29 -13 41 -13 17 -15 29 -9 51 6 21 4 29 -7 34 -8 3 -13 11
-11 18 3 6 -4 17 -14 24 -11 6 -17 16 -14 21 3 5 1 19 -5 31 -9 16 -8 24 5 39
9 10 14 24 10 29 -3 6 -1 11 6 11 9 0 9 3 0 14 -6 7 -9 20 -5 29 3 9 -3 24
-15 36 -15 15 -19 28 -15 51 5 22 2 31 -10 36 -21 8 -21 24 0 24 9 0 14 6 11
13 -2 6 -11 11 -19 9 -15 -2 -68 43 -68 58 0 4 9 10 20 13 11 3 23 12 26 21 8
21 -22 49 -46 43 -20 -5 -29 16 -11 27 5 4 8 14 6 24 -1 9 4 28 12 41 14 21
14 25 0 33 -10 5 -14 15 -10 25 5 13 2 15 -22 9 -25 -6 -27 -5 -16 8 11 13 11
19 1 31 -10 12 -10 18 1 31 10 12 10 20 1 34 -6 11 -9 26 -6 34 3 8 0 24 -6
35 -6 12 -8 27 -3 34 18 29 10 42 -26 42 l-36 0 0 60 c-1 88 1 93 43 93 l37 0
-23 -18 c-23 -19 -29 -40 -12 -40 6 0 10 7 10 15 0 13 18 20 43 16 4 0 7 4 7
9 0 6 7 10 16 8 10 -2 19 3 22 11 3 9 -1 11 -17 6 -23 -7 -25 -2 -21 50 2 36
7 42 22 27 8 -8 17 -8 31 -1 15 9 18 8 15 -3 -3 -7 -17 -15 -33 -18 -25 -4
-26 -7 -12 -18 10 -9 17 -10 22 -2 9 15 25 2 25 -21 0 -10 5 -19 10 -19 6 0
10 -6 10 -14 0 -7 11 -21 25 -30 31 -21 41 -21 20 0 -9 10 -12 20 -7 23 5 3
12 13 15 21 4 11 6 9 6 -5 1 -26 19 -45 43 -45 18 0 22 -9 19 -42 -3 -30 18
-60 39 -53 25 8 60 -11 60 -33 0 -11 3 -13 8 -5 5 8 18 9 42 3 19 -4 27 -8 17
-9 -10 -1 -15 -5 -12 -11 3 -5 -1 -10 -9 -10 -9 0 -16 -4 -16 -10 0 -5 13 -10
29 -10 26 0 29 -3 27 -32 -1 -24 3 -33 15 -33 9 0 24 -6 33 -14 13 -11 19 -11
31 -1 13 10 15 9 15 -9 0 -18 5 -21 28 -19 17 2 26 -1 25 -9 -2 -7 3 -10 10
-7 8 3 18 -6 25 -21 6 -14 20 -25 29 -25 17 1 17 1 0 14 -24 18 -8 27 29 17
23 -6 28 -13 26 -32 -1 -13 -7 -25 -12 -27 -6 -2 -10 -8 -10 -13 0 -5 12 -2
28 8 23 15 25 15 14 1 -9 -11 -10 -18 -2 -23 5 -3 10 -1 10 6 0 7 9 5 26 -6
27 -17 27 -17 62 21 21 23 37 34 40 26 6 -18 22 -15 22 6 0 9 -12 23 -27 30
-36 16 -46 15 -39 -4 9 -23 -3 -37 -19 -24 -9 8 -15 8 -20 0 -10 -17 -25 -11
-25 9 0 13 8 21 22 23 16 2 22 9 21 26 0 12 -1 31 -2 43 -1 13 -6 19 -14 16
-8 -3 -22 6 -32 19 -9 13 -21 22 -25 19 -9 -5 -20 29 -20 63 0 12 4 22 8 22 9
0 29 20 97 94 19 21 47 46 63 54 33 18 123 43 132 37 7 -4 20 -100 21 -150 0
-11 7 -27 16 -37 9 -10 13 -21 10 -25 -4 -3 6 -21 22 -39 16 -18 33 -39 38
-46 4 -8 25 -22 46 -32 20 -9 37 -21 37 -26 0 -6 7 -10 15 -10 8 0 15 -4 15
-9 0 -24 116 -15 148 11 8 7 26 11 39 10 18 -3 39 12 88 63 36 37 65 75 65 85
0 10 4 21 8 24 5 3 10 29 11 58 1 29 6 55 12 56 6 3 6 9 -2 18 -20 24 8 45 56
43 22 -2 46 1 53 5 8 5 10 2 6 -8 -4 -10 1 -18 12 -22 11 -3 27 -10 36 -15 10
-5 26 -9 35 -10 11 0 13 -3 6 -6 -22 -8 -15 -43 8 -43 15 0 19 5 15 15 -4 12
0 14 19 10 82 -17 78 -14 72 -44 -7 -33 24 -73 39 -50 4 7 0 17 -10 24 -16 12
-13 45 5 45 5 0 9 4 9 10 0 5 -7 7 -17 3 -13 -5 -15 -2 -11 15 4 15 2 22 -8
22 -8 0 -14 5 -14 10 0 6 7 10 15 10 8 0 15 5 15 10 0 6 -9 10 -20 10 -11 0
-20 6 -20 13 0 16 -95 119 -102 111 -3 -3 -14 8 -24 24 -10 18 -23 28 -31 25
-7 -3 -13 0 -13 7 0 6 -4 8 -10 5 -5 -3 -10 -2 -10 4 0 20 -42 49 -66 46 -19
-2 -26 3 -30 24 -10 44 -12 47 -19 24 -7 -22 -25 -32 -25 -14 0 5 -9 7 -20 4
-11 -3 -20 -1 -20 5 0 18 -73 23 -92 5 -17 -15 -20 -15 -41 5 -24 23 -47 29
-47 13 0 -14 -42 -21 -63 -10 -24 13 -40 -1 -31 -25 5 -13 16 -17 48 -15 45 3
71 -6 100 -33 11 -10 25 -18 32 -18 28 0 21 -17 -6 -18 -16 0 -32 3 -34 7 -5
8 -123 6 -198 -4 -32 -4 -48 -2 -48 5 0 6 -4 8 -10 5 -14 -9 -12 17 3 36 12
15 42 31 62 33 6 1 11 5 13 11 1 5 -22 9 -50 9 l-53 0 -3 -51 c-2 -43 0 -52
15 -56 14 -4 13 -5 -5 -6 -27 -1 -45 35 -29 61 21 33 -40 61 -80 35 -6 -4 -18
-5 -25 -2 -8 3 -21 -1 -28 -10 -16 -20 -60 -20 -60 0 0 22 -21 18 -27 -5 -3
-11 -12 -20 -19 -20 -8 0 -17 -7 -20 -15 -7 -17 -34 -21 -34 -5 0 16 -15 12
-40 -10 -13 -11 -34 -20 -47 -20 -13 0 -26 -7 -29 -15 -4 -8 -13 -15 -21 -15
-8 0 -28 -7 -44 -16 -26 -13 -30 -20 -24 -41 5 -22 3 -25 -14 -20 -15 4 -22
-2 -30 -26 -6 -16 -11 -38 -11 -48 0 -10 -5 -21 -11 -25 -8 -4 -9 1 -4 17 6
20 5 22 -6 11 -7 -6 -14 -34 -15 -61 -3 -54 -18 -91 -37 -91 -16 1 -115 28
-104 29 4 1 -1 11 -12 23 -12 12 -24 37 -27 55 -3 18 -15 40 -26 48 -13 8 -18
20 -14 30 3 9 2 13 -4 10 -6 -3 -10 -15 -10 -25 0 -11 -8 -24 -19 -29 -16 -9
-17 -7 -13 16 3 15 16 38 29 51 25 25 26 46 2 48 -31 2 -33 5 -10 20 l23 16
-24 14 c-12 7 -33 18 -45 23 -14 7 -20 16 -17 26 3 8 10 13 14 10 15 -9 39 40
28 58 -7 13 -5 19 6 23 9 3 16 15 16 25 0 10 8 24 19 30 12 8 16 19 13 32 -4
16 -1 19 11 14 11 -4 20 0 26 12 6 10 24 21 40 24 16 4 42 19 57 34 16 17 24
21 21 11 -5 -15 -3 -15 30 -1 20 8 59 16 87 17 37 1 52 6 54 17 2 13 12 14 47
9 24 -4 50 -11 57 -17 7 -6 47 -10 90 -9 42 0 74 -2 71 -7 -2 -4 14 -5 36 -2
26 3 45 0 53 -8 6 -8 22 -12 34 -9 15 3 23 -2 27 -17 5 -19 29 -27 61 -22 4 1
14 -3 21 -9 7 -6 17 -10 21 -9 5 1 14 0 19 -1 24 -7 85 -5 85 2 0 11 41 -13
56 -32 10 -11 15 -12 27 -2 20 17 34 -3 17 -23 -10 -12 -9 -15 5 -15 10 0 24
8 32 18 10 12 16 14 19 5 3 -7 17 -13 32 -13 14 0 34 -7 44 -17 10 -9 18 -11
18 -6 0 6 20 13 45 15 35 2 44 0 40 -11 -4 -9 0 -11 11 -7 8 3 20 6 25 6 5 0
9 7 9 16 0 13 3 14 14 5 10 -9 15 -8 20 4 3 9 0 15 -9 15 -18 0 -20 16 -2 24
6 3 4 4 -7 3 -12 -1 -20 5 -22 17 -3 22 -24 46 -24 28 0 -20 -62 -11 -68 10
-5 20 -18 24 -24 6 -5 -13 -28 -2 -28 13 0 6 5 7 11 4 6 -4 5 2 -3 14 -7 12
-17 21 -23 21 -11 0 -12 56 -2 67 4 3 1 13 -5 21 -10 11 -9 17 3 26 8 6 18 19
22 29 4 10 17 17 32 17 35 0 53 20 50 53 -7 59 20 93 31 40 7 -33 54 -75 54
-48 0 8 6 15 14 15 7 0 17 18 22 43 7 33 14 43 32 45 12 2 22 0 20 -5 -1 -4 7
-35 17 -68 20 -62 40 -86 62 -78 8 3 13 -2 13 -12 0 -14 3 -15 15 -5 8 7 24
10 36 7 16 -4 18 -3 8 9 -9 11 -8 14 5 14 9 0 19 -7 23 -16 5 -13 10 -11 33
13 24 25 26 31 15 53 -7 14 -15 48 -19 75 -3 28 -15 62 -27 78 -22 31 -17 51
12 44 15 -4 19 0 19 19 0 15 6 24 16 24 13 0 15 7 11 30 -4 17 -2 30 3 30 13
0 13 27 0 35 -5 3 -7 0 -4 -8 3 -8 -2 -20 -11 -27 -8 -7 -15 -9 -15 -5 0 4 -6
2 -14 -4 -9 -7 -17 -8 -20 -3 -3 6 1 12 9 16 8 3 15 13 15 22 0 9 8 23 18 30
16 13 16 13 -2 14 -12 0 -16 5 -12 16 3 9 6 20 6 25 0 14 28 11 33 -3 4 -8 8
-4 13 10 6 21 7 21 19 5 18 -24 33 -8 17 17 -7 11 -8 20 -4 20 5 0 14 10 19
23 11 21 11 21 18 2 16 -42 26 -46 46 -21 11 13 19 29 19 35 0 7 8 4 19 -6 10
-10 21 -38 24 -63 2 -25 3 -39 0 -33 -3 9 -13 6 -34 -9 -24 -18 -29 -29 -29
-64 0 -25 -6 -47 -15 -54 -8 -7 -15 -19 -15 -26 0 -8 -5 -14 -11 -14 -7 0 -5
-10 5 -25 9 -14 16 -31 15 -38 -3 -19 21 -75 34 -79 7 -3 20 4 29 13 14 15 15
21 4 31 -7 7 -15 30 -19 51 -5 33 -3 39 18 47 14 5 26 20 30 39 4 20 13 31 28
33 12 2 21 10 19 17 -6 28 10 73 23 67 9 -3 12 0 8 11 -7 17 12 33 39 33 20 0
37 -28 40 -65 1 -14 8 -31 15 -36 6 -6 9 -17 6 -25 -3 -8 1 -14 9 -14 16 0 41
-37 29 -44 -11 -7 -7 -49 6 -53 6 -2 15 9 21 24 l9 28 13 -27 c7 -16 17 -28
22 -28 5 0 5 8 0 18 -10 18 1 62 16 62 4 0 9 -18 10 -40 2 -34 -1 -42 -20 -49
-16 -6 -23 -17 -24 -40 -2 -33 5 -38 24 -19 9 9 12 9 12 0 0 -7 5 -12 11 -12
5 0 7 5 4 10 -3 6 1 10 11 10 13 0 14 3 4 15 -8 10 -21 13 -39 9 -25 -6 -25
-6 -6 9 33 24 59 25 60 2 0 -15 6 -19 23 -17 14 2 22 -2 22 -12 0 -18 69 -62
80 -50 5 5 2 31 -5 59 -8 28 -14 41 -15 30 -3 -42 -28 40 -28 93 -1 33 -7 62
-16 75 -9 12 -23 31 -31 43 -18 25 -11 50 16 57 10 3 19 11 19 17 0 7 -7 10
-15 6 -22 -8 -18 7 6 27 25 22 19 33 -10 18 -19 -11 -20 -9 -17 41 2 29 4 57
5 61 0 4 10 3 21 -3 18 -10 20 -8 20 27 -1 21 -4 57 -9 80 -6 29 -5 40 3 37
12 -5 14 55 3 73 -5 8 12 63 20 63 2 0 9 -16 17 -35z m2394 3 c-6 -18 -28 -21
-28 -4 0 9 7 16 16 16 9 0 14 -5 12 -12z m-2308 -148 c0 -5 -5 -10 -11 -10 -5
0 -7 5 -4 10 3 6 8 10 11 10 2 0 4 -4 4 -10z m-930 -85 c10 -12 10 -15 -4 -15
-9 0 -16 7 -16 15 0 8 2 15 4 15 2 0 9 -7 16 -15z m446 -30 c3 -8 4 -20 1 -27
-3 -8 -8 -4 -14 11 -10 24 -10 24 -16 -8 -4 -18 -11 -30 -17 -26 -16 10 -12
36 8 51 22 17 31 17 38 -1z m-126 -96 c0 -5 -4 -9 -10 -9 -5 0 -10 7 -10 16 0
8 5 12 10 9 6 -3 10 -10 10 -16z m2100 -119 c0 -11 -4 -20 -10 -20 -5 0 -10 9
-10 20 0 11 5 20 10 20 6 0 10 -9 10 -20z m40 -30 c0 -5 -4 -10 -10 -10 -5 0
-10 5 -10 10 0 6 5 10 10 10 6 0 10 -4 10 -10z m120 -168 c0 -7 -4 -11 -9 -8
-5 4 -11 0 -13 -6 -3 -8 -9 -4 -17 10 -7 12 -9 32 -5 44 6 21 6 21 25 -3 10
-13 19 -30 19 -37z m-80 27 c-7 -11 -14 -19 -16 -16 -7 7 7 37 17 37 6 0 5 -9
-1 -21z m-46 -25 c9 -36 -1 -43 -14 -10 -12 33 -12 36 -1 36 5 0 12 -12 15
-26z m-2551 -18 c17 -14 24 -32 8 -21 -5 3 -12 1 -16 -5 -3 -5 0 -10 8 -10 7
0 14 -7 14 -15 0 -17 -42 -21 -52 -5 -3 6 -1 10 5 10 7 0 9 7 6 15 -3 8 -9 22
-12 30 -8 19 15 19 39 1z m2752 -16 c7 -23 21 -26 28 -7 3 6 5 0 4 -15 -1 -16
-7 -28 -14 -28 -7 0 -15 -11 -19 -25 -5 -21 -11 -24 -28 -19 -35 11 -46 25
-46 58 0 26 6 34 28 43 39 15 40 15 47 -7z m-101 -45 c-4 -8 -8 -15 -10 -15
-2 0 -4 7 -4 15 0 8 4 15 10 15 5 0 7 -7 4 -15z m-3869 -135 c-3 -5 -13 -10
-21 -10 -8 0 -12 5 -9 10 3 6 13 10 21 10 8 0 12 -4 9 -10z m1385 -14 c0 -3
-4 -8 -10 -11 -5 -3 -10 -1 -10 4 0 6 5 11 10 11 6 0 10 -2 10 -4z m1730 -320
c0 -3 -4 -8 -10 -11 -5 -3 -10 -1 -10 4 0 6 5 11 10 11 6 0 10 -2 10 -4z
m-151 -20 c9 -10 8 -16 -4 -26 -13 -11 -15 -8 -15 14 0 30 3 32 19 12z m41
-21 c0 -5 -5 -3 -10 5 -5 8 -10 20 -10 25 0 6 5 3 10 -5 5 -8 10 -19 10 -25z
m-1805 -115 c3 -5 -3 -10 -14 -10 -12 0 -21 5 -21 10 0 6 6 10 14 10 8 0 18
-4 21 -10z m-135 -32 c0 -7 -4 -20 -10 -28 -7 -12 -12 -12 -34 -1 -26 14 -27
35 -2 25 8 -3 17 -1 21 5 9 15 25 14 25 -1z m4383 -17 c-4 -17 34 -13 41 4 8
21 33 19 45 -4 17 -30 16 -87 -1 -112 -11 -18 -35 -29 -91 -42 -42 -10 -81
-16 -86 -12 -6 3 -21 -1 -34 -10 -26 -17 -57 -11 -57 11 0 8 5 14 10 14 6 0
10 11 10 25 0 18 7 26 24 31 17 4 27 15 31 35 4 16 11 27 16 23 5 -3 23 9 40
26 30 29 57 35 52 11z m-4333 -22 c0 -11 -3 -11 -24 -3 -23 9 -20 23 4 17 11
-3 20 -9 20 -14z m60 -18 c0 -5 -7 -17 -16 -26 -19 -19 -40 -6 -31 19 7 17 47
22 47 7z m-1640 -63 c0 -25 -18 -31 -50 -18 -28 11 -28 13 -14 35 13 20 18 21
39 11 14 -6 25 -19 25 -28z m191 19 c-10 -9 -11 -8 -5 6 3 10 9 15 12 12 3 -3
0 -11 -7 -18z m1149 -132 c0 -20 -5 -25 -25 -25 -43 0 -31 46 13 49 6 1 12
-10 12 -24z m-2044 -25 c8 0 14 -6 14 -13 0 -8 18 -19 40 -26 22 -6 40 -16 40
-20 0 -5 15 -12 34 -15 24 -5 37 -14 42 -29 4 -12 20 -34 35 -48 31 -29 38
-69 15 -88 -11 -10 -18 -8 -33 8 -18 20 -43 25 -100 23 -26 -2 -30 -5 -26 -22
6 -21 54 -50 85 -50 10 0 18 -7 18 -15 0 -8 12 -18 28 -21 15 -4 32 -14 38
-22 6 -9 26 -15 44 -15 26 0 35 -6 48 -34 9 -18 20 -33 25 -33 4 0 6 -8 3 -17
-7 -23 24 -60 58 -69 14 -3 26 -11 26 -18 0 -6 8 -22 17 -36 9 -13 18 -37 20
-54 4 -44 21 -73 80 -141 29 -33 53 -66 53 -72 0 -7 7 -13 15 -13 9 0 29 -16
46 -35 17 -19 36 -32 42 -28 6 4 8 0 4 -10 -4 -11 -1 -17 7 -17 8 0 17 -7 20
-16 4 -10 2 -13 -6 -8 -8 5 -9 2 -3 -12 5 -10 10 -35 11 -54 4 -58 8 -66 56
-120 35 -40 47 -61 50 -93 3 -23 0 -45 -6 -49 -6 -4 -5 -12 3 -22 8 -9 10 -16
5 -16 -4 0 4 -13 19 -28 21 -22 24 -31 15 -40 -8 -8 -9 -12 -1 -12 6 0 14 -13
18 -29 3 -16 13 -35 21 -42 8 -6 14 -22 14 -35 0 -12 4 -26 10 -29 16 -10 7
-150 -10 -166 -44 -41 -49 -43 -70 -19 -12 14 -25 20 -38 16 -13 -4 -22 -1
-26 9 -3 8 -11 15 -18 15 -7 0 -25 11 -40 25 -15 14 -34 25 -41 25 -21 0 -87
71 -87 92 0 10 -4 18 -9 18 -5 0 -16 17 -24 38 -9 20 -30 52 -47 71 -16 18
-30 42 -30 53 0 10 -7 21 -15 24 -8 4 -15 10 -15 16 0 5 -7 16 -15 24 -8 9
-15 26 -15 39 0 14 -9 29 -20 35 -11 6 -18 15 -15 21 4 5 1 9 -5 9 -6 0 -10 6
-9 13 3 17 -10 47 -38 84 -13 18 -22 36 -21 40 3 11 -22 86 -32 97 -5 5 -6 15
-3 22 3 8 -1 24 -10 37 -8 12 -18 43 -22 67 -4 25 -10 50 -14 55 -3 6 -6 12
-6 15 -5 36 -18 80 -24 80 -5 0 -16 20 -25 45 -10 24 -28 60 -41 80 -14 19
-22 35 -19 35 3 0 -8 18 -25 39 -17 21 -31 44 -31 49 0 6 -9 17 -20 25 -11 8
-18 16 -15 19 3 3 -6 27 -21 53 -14 27 -26 61 -26 76 -1 19 -5 26 -15 22 -11
-4 -11 0 -3 21 7 19 6 26 -3 26 -16 0 -47 36 -47 55 0 7 -5 17 -11 21 -7 4 -8
20 -5 43 4 20 7 46 7 59 1 14 7 22 19 22 11 0 22 6 27 13 5 9 8 7 11 -5 2 -10
10 -18 18 -18z m1004 4 c0 -8 -4 -12 -10 -9 -5 3 -10 10 -10 16 0 5 5 9 10 9
6 0 10 -7 10 -16z m-305 -193 c3 -5 1 -12 -5 -16 -5 -3 -10 1 -10 9 0 18 6 21
15 7z m-15 -71 c-8 -5 -17 -7 -19 -4 -3 3 1 9 9 14 8 5 17 7 19 4 3 -3 -1 -9
-9 -14z m6603 -232 c-5 -7 -22 -43 -38 -80 -15 -38 -32 -68 -38 -68 -5 0 -6 8
-2 18 4 9 14 35 22 57 8 22 24 50 35 63 23 23 37 30 21 10z m-6389 -643 c-4
-8 -8 -15 -10 -15 -2 0 -4 7 -4 15 0 8 4 15 10 15 5 0 7 -7 4 -15z m7621 -176
c11 -17 -1 -21 -15 -4 -8 9 -8 15 -2 15 6 0 14 -5 17 -11z m-11123 -57 c11
-13 11 -14 -2 -9 -8 4 -23 10 -32 13 -10 4 -18 10 -18 14 0 13 38 0 52 -18z
m9978 -176 c0 -2 -8 -10 -17 -17 -16 -13 -17 -12 -4 4 13 16 21 21 21 13z
m230 -356 c0 -23 -25 -27 -33 -6 -7 16 1 26 20 26 7 0 13 -9 13 -20z m-2060
-10 c0 -5 -5 -10 -11 -10 -5 0 -7 5 -4 10 3 6 8 10 11 10 2 0 4 -4 4 -10z
m2858 -557 c2 -8 -5 -13 -17 -13 -21 0 -35 13 -24 24 10 10 36 3 41 -11z
m-840 -13 c17 -11 32 -24 32 -30 0 -15 -3 -13 -45 20 -43 34 -36 40 13 10z
m1342 -303 c0 -21 -12 -28 -27 -16 -19 16 -16 29 7 29 11 0 20 -6 20 -13z
m-3763 -39 c-3 -8 -6 -5 -6 6 -1 11 2 17 5 13 3 -3 4 -12 1 -19z m-3374 -181
c3 -7 -3 -13 -14 -13 -13 0 -15 3 -7 13 6 7 12 13 13 13 2 0 5 -6 8 -13z
m-401 -127 c3 -17 1 -30 -4 -30 -11 0 11 -42 30 -56 13 -9 12 -15 -8 -42 -20
-27 -22 -35 -12 -57 7 -14 12 -37 12 -50 0 -14 4 -25 8 -25 4 0 7 -30 6 -66
-1 -50 2 -67 13 -71 9 -4 13 -14 9 -27 -8 -29 4 -66 20 -66 8 0 14 -4 14 -9 0
-5 9 -11 20 -14 21 -5 29 -49 9 -45 -6 2 -14 -3 -16 -10 -3 -8 1 -10 11 -6 10
4 16 1 16 -8 0 -8 9 -25 20 -38 11 -13 20 -29 20 -35 0 -7 7 -18 15 -25 12
-10 15 -7 21 14 5 21 9 24 20 15 11 -9 11 -15 3 -25 -18 -21 -1 -35 20 -16 10
9 16 20 14 25 -2 4 1 7 6 7 14 0 14 -6 1 -31 -8 -15 -7 -19 5 -19 14 0 20 -22
16 -62 -3 -21 10 -23 27 -6 10 10 12 7 10 -12 -3 -21 2 -26 25 -28 31 -4 34 3
12 24 -18 19 -20 57 -3 52 7 -3 13 -13 13 -24 0 -11 8 -20 20 -22 11 -3 23 -9
26 -14 4 -6 11 -8 17 -4 13 8 21 65 10 72 -4 3 -8 25 -8 49 0 42 -14 68 -23
43 -2 -7 -8 -9 -13 -5 -12 11 -14 70 -2 84 6 7 7 21 3 30 -7 17 -15 76 -16
116 0 12 -5 17 -15 13 -10 -4 -14 3 -14 24 0 31 20 43 21 13 0 -13 3 -12 10 5
12 30 4 42 -27 42 -16 0 -24 -6 -24 -17 -1 -17 -1 -17 -11 0 -8 14 -8 22 0 30
18 18 14 67 -6 68 -15 1 -14 2 2 6 11 3 28 12 37 20 16 14 16 16 -2 36 -11 11
-18 23 -15 26 3 2 11 -3 18 -13 7 -10 22 -16 33 -14 14 2 20 -4 22 -25 3 -23
6 -26 18 -16 8 6 14 18 14 25 0 8 5 14 10 14 6 0 10 -9 10 -20 0 -11 7 -23 15
-26 8 -4 15 -15 15 -26 0 -16 5 -19 26 -15 20 3 28 -1 36 -18 6 -13 21 -29 34
-36 13 -7 24 -18 24 -25 0 -7 15 -16 34 -19 21 -4 38 -16 46 -31 8 -13 20 -24
28 -24 8 0 12 -6 8 -15 -3 -10 3 -17 22 -22 15 -3 34 -16 44 -28 9 -12 35 -29
57 -39 22 -10 40 -21 39 -25 -2 -20 4 -31 17 -31 8 0 15 -6 15 -14 0 -9 7 -12
23 -9 17 4 19 2 7 -6 -12 -9 -12 -11 3 -17 9 -3 14 -10 11 -15 -3 -5 15 -14
40 -21 26 -7 46 -16 46 -20 0 -9 82 -88 91 -88 3 0 19 -11 35 -25 16 -14 39
-28 52 -31 12 -4 22 -10 22 -15 0 -5 9 -9 21 -9 15 0 19 -5 15 -15 -3 -8 -1
-15 4 -15 6 0 10 -6 10 -14 0 -8 9 -13 23 -12 12 1 27 0 32 -3 6 -3 15 -6 20
-6 6 -1 9 -6 7 -13 -1 -7 10 -12 28 -12 17 0 33 -7 39 -17 6 -12 20 -16 50
-15 31 2 41 -1 41 -12 0 -11 11 -16 38 -16 20 0 46 0 57 -1 11 0 22 -5 26 -10
4 -6 39 -12 80 -14 40 -2 75 -7 77 -13 2 -6 14 -7 31 -2 16 4 54 6 85 4 45 -3
56 -1 56 11 0 8 5 15 11 15 5 0 8 -4 5 -9 -3 -5 1 -14 8 -20 10 -8 16 -9 21
-1 3 5 17 10 30 10 13 0 26 4 30 9 6 11 44 9 64 -3 7 -5 16 -4 20 1 11 17 62
22 68 7 4 -10 9 -11 17 -5 7 6 27 12 46 14 19 2 46 9 59 16 19 11 25 11 32 0
6 -11 9 -11 14 1 3 10 20 16 44 16 21 1 57 13 83 28 25 14 48 23 52 19 4 -5
12 0 17 10 6 9 15 15 20 11 5 -3 25 8 45 25 19 17 42 31 52 31 9 0 30 12 45
26 15 14 40 30 56 35 15 6 34 21 41 34 7 14 17 25 22 25 4 0 16 8 26 18 51 47
127 102 143 102 5 0 12 7 15 15 4 8 13 15 20 15 8 0 17 7 20 15 3 8 21 20 39
26 21 8 43 28 61 56 17 27 41 50 62 59 18 7 36 22 39 33 6 22 33 37 33 18 0
-8 4 -7 9 3 6 8 8 17 5 21 -2 4 3 12 11 19 7 6 12 19 9 28 -3 9 1 6 9 -7 l15
-24 6 21 c4 12 16 22 26 22 9 0 20 9 23 20 6 24 27 27 27 4 0 -21 27 -47 35
-34 3 5 2 10 -4 10 -5 0 -9 20 -8 45 1 25 3 45 4 45 1 0 8 -2 16 -5 31 -13 2
-178 -36 -206 -5 -3 -8 -15 -6 -25 3 -28 -11 -72 -26 -78 -9 -3 -11 -18 -8
-50 6 -46 -4 -65 -39 -79 -10 -3 -20 -18 -24 -32 -9 -36 4 -95 21 -95 9 0 20
-18 27 -45 l12 -45 15 33 15 32 4 -35 c5 -54 22 -61 23 -9 2 67 3 72 18 77 10
3 11 -2 6 -18 -5 -16 -4 -21 6 -18 8 3 15 14 17 25 2 12 12 23 23 26 10 3 19
11 19 17 0 7 -7 10 -16 6 -20 -8 -54 2 -54 14 0 5 15 10 33 12 29 3 33 7 43
48 8 31 16 45 27 44 11 -1 15 7 15 26 -1 22 -5 26 -19 23 -14 -4 -19 0 -19 15
0 18 5 20 35 18 36 -4 43 2 24 21 -8 8 -7 20 4 44 21 48 29 85 33 158 1 34 5
66 8 69 3 3 1 10 -4 17 -7 8 -3 18 10 33 26 28 25 36 -7 63 -25 19 -26 21 -6
15 19 -6 22 -4 17 11 -4 11 -3 14 3 6 9 -12 63 -13 63 0 0 4 7 7 15 7 8 0 15
4 15 10 0 5 7 7 16 3 13 -5 13 -7 2 -14 -9 -6 -5 -8 12 -7 21 3 26 -2 28 -27
2 -16 9 -33 15 -37 9 -6 8 -8 -1 -8 -7 0 -10 -4 -7 -10 3 -5 15 -10 26 -10 16
0 18 -3 10 -19 -8 -14 -7 -22 4 -31 8 -7 12 -16 9 -22 -3 -5 0 -16 8 -25 8
-11 9 -17 2 -20 -12 -4 -7 -58 8 -91 9 -17 9 -25 0 -34 -13 -13 -16 -32 -4
-25 9 6 9 -66 0 -74 -4 -3 -10 -48 -13 -100 -4 -51 -11 -121 -16 -154 -6 -33
-11 -68 -11 -77 1 -11 -5 -15 -15 -11 -11 4 -14 -1 -13 -23 1 -16 1 -31 0 -34
-1 -3 -4 -27 -6 -55 -8 -94 -16 -134 -30 -146 -8 -6 -14 -23 -14 -38 -1 -40
-23 -113 -42 -141 -10 -13 -18 -35 -18 -48 0 -13 -8 -36 -19 -50 -10 -15 -21
-45 -25 -67 -15 -88 -18 -96 -32 -91 -10 4 -16 -6 -20 -35 -4 -23 -15 -48 -24
-57 -9 -10 -20 -37 -24 -61 -4 -27 -15 -50 -26 -58 -11 -8 -20 -23 -20 -33 0
-29 -22 -70 -37 -70 -7 0 -13 -8 -13 -18 0 -10 -21 -40 -47 -68 -59 -62 -93
-102 -93 -110 0 -4 -17 -26 -37 -50 -93 -106 -118 -136 -121 -145 -2 -5 -9 -9
-16 -9 -7 0 -41 -27 -75 -60 -35 -33 -69 -60 -77 -60 -8 0 -19 -9 -26 -20 -7
-11 -17 -20 -23 -20 -12 0 -53 -31 -108 -82 -23 -21 -46 -38 -52 -38 -16 0
-72 -43 -71 -55 1 -5 -10 -12 -24 -14 -14 -1 -27 -7 -30 -11 -8 -13 -117 -70
-134 -70 -8 0 -19 -6 -23 -12 -12 -19 -71 -48 -98 -48 -12 0 -28 -7 -35 -15
-7 -8 -19 -15 -27 -15 -8 0 -21 -6 -29 -14 -7 -8 -31 -17 -53 -21 -22 -4 -45
-13 -52 -21 -6 -8 -26 -14 -44 -14 -21 0 -35 -6 -39 -16 -4 -10 -12 -14 -22
-10 -9 4 -23 1 -30 -5 -8 -6 -21 -9 -29 -5 -9 3 -18 -1 -22 -9 -3 -10 -12 -13
-24 -10 -12 4 -22 -1 -29 -15 -8 -15 -18 -20 -31 -17 -10 3 -19 1 -19 -4 0 -5
-8 -9 -18 -9 -10 0 -22 -3 -26 -7 -4 -4 -24 -6 -45 -4 -22 1 -41 -1 -44 -6 -3
-5 -47 -10 -97 -11 -50 -2 -100 -8 -111 -15 -16 -10 -21 -9 -28 1 -6 10 -10 9
-14 -7 -5 -20 -10 -21 -144 -18 -76 2 -150 0 -164 -3 -14 -4 -33 -3 -43 2 -11
6 -21 6 -30 -1 -7 -6 -15 -9 -17 -6 -3 2 -23 6 -44 9 -22 2 -40 5 -40 7 0 1
-20 2 -45 3 -25 1 -50 5 -57 9 -6 4 -23 8 -36 9 -14 1 -23 6 -21 10 8 13 -38
26 -72 21 -18 -3 -35 0 -38 6 -4 6 -20 11 -36 11 -16 0 -32 5 -35 10 -4 6 -10
8 -15 5 -4 -3 -13 2 -20 10 -9 11 -75 39 -120 50 -3 1 -21 9 -41 18 -19 8 -48
19 -64 23 -16 4 -40 13 -54 20 -14 8 -33 14 -41 15 -8 0 -27 8 -41 17 -14 9
-40 26 -57 38 -18 11 -29 24 -24 29 4 4 -1 5 -11 2 -11 -4 -25 1 -37 13 -11
11 -27 20 -35 20 -8 0 -15 5 -15 10 0 6 -7 10 -15 10 -8 0 -15 5 -15 10 0 6
-6 10 -14 10 -10 0 -12 7 -8 22 3 12 1 19 -5 15 -12 -8 -72 28 -79 48 -4 8
-11 15 -18 15 -6 0 -28 16 -49 35 -21 19 -42 35 -48 35 -5 0 -9 5 -9 11 0 12
-25 39 -37 39 -5 0 -14 14 -20 30 -8 20 -18 30 -32 30 -12 0 -24 7 -27 15 -4
8 -13 15 -20 15 -8 0 -17 7 -20 15 -4 8 -12 15 -19 15 -7 0 -20 15 -28 33 -9
17 -30 43 -47 56 -16 13 -30 29 -30 37 0 7 -11 16 -25 20 -14 3 -22 10 -19 15
3 5 -31 46 -75 91 -45 45 -81 85 -81 90 0 16 -82 108 -97 108 -7 0 -13 8 -13
19 0 10 -7 24 -15 31 -8 7 -15 19 -15 26 0 8 -15 28 -32 45 -18 17 -28 28 -21
25 7 -4 9 1 6 13 -3 11 -11 17 -18 15 -7 -3 -15 3 -18 13 -7 20 -26 51 -44 71
-7 7 -13 22 -13 33 0 10 -13 38 -30 61 -16 22 -30 49 -30 60 0 10 -4 18 -8 18
-5 0 -14 16 -22 35 -7 19 -19 36 -26 39 -6 2 -15 23 -19 45 -4 23 -11 41 -17
41 -6 0 -8 6 -5 14 3 8 -3 22 -14 32 -10 9 -19 23 -19 31 0 8 -10 35 -22 61
-12 26 -21 51 -20 56 2 5 -4 6 -13 3 -10 -5 -15 0 -15 13 0 19 -23 89 -40 121
-5 9 -12 34 -16 55 -3 22 -10 44 -14 49 -4 6 -13 31 -21 58 -7 26 -16 47 -20
47 -3 0 -12 19 -19 43 -17 52 -13 147 6 168 10 12 11 18 2 27 -9 9 -8 12 3 12
30 0 78 31 98 63 20 33 59 71 76 75 6 1 10 6 10 11 0 6 10 19 21 30 16 15 24
17 33 8 9 -9 14 -9 19 0 4 6 20 16 35 22 15 6 27 17 27 25 0 11 35 26 75 30 6
1 14 11 20 24 5 12 15 20 22 18 7 -3 19 1 27 9 8 8 16 11 18 6 2 -4 13 -11 25
-15 20 -6 23 -3 29 34 5 32 9 38 20 29 9 -7 19 -7 35 2 18 9 24 9 27 0 3 -9 7
-9 18 0 8 7 17 9 21 6 3 -4 14 3 24 15 22 24 63 29 101 11 35 -17 38 -16 38 4
0 15 2 15 19 -1 11 -10 25 -15 30 -11 7 3 11 -3 11 -15 0 -12 -4 -18 -10 -15
-6 4 -7 -1 -3 -12 6 -15 8 -14 17 8 23 54 55 69 88 41 9 -7 19 -8 28 -1 12 7
13 11 2 18 -12 7 -12 12 -1 30 17 25 41 28 37 4 -1 -10 2 -20 7 -23 6 -3 11
10 13 28 3 34 22 35 22 1 0 -10 5 -19 10 -19 6 0 10 4 10 8 0 4 12 22 27 39
31 36 48 31 55 -17z m34 14 c12 4 12 2 4 -14 -16 -30 -30 -24 -29 13 1 18 3
24 6 14 3 -11 11 -16 19 -13z m6723 -130 c3 -3 0 -9 -6 -15 -15 -15 -43 -4
-43 16 0 12 6 15 23 9 12 -3 24 -8 26 -10z m-3171 -52 c12 -8 7 -42 -7 -42 -3
0 -11 11 -18 25 -12 27 -2 33 25 17z m-333 -22 c-3 -5 -11 -10 -16 -10 -6 0
-7 5 -4 10 3 6 11 10 16 10 6 0 7 -4 4 -10z m339 -89 c-6 -8 -24 12 -24 28 0
31 15 34 21 4 3 -15 4 -30 3 -32z m-5255 -107 c-6 -8 -18 -14 -25 -14 -8 0
-14 6 -14 14 0 8 10 14 25 14 20 0 23 -3 14 -14z m-139 -63 c0 -24 -19 -39
-59 -47 -17 -4 -34 -10 -37 -15 -2 -4 -11 -6 -19 -3 -8 4 -18 -1 -21 -10 -3
-9 -10 -16 -14 -16 -5 0 -21 -5 -37 -12 -15 -6 -31 -11 -35 -10 -5 1 -8 -5 -8
-13 0 -17 -9 -19 -28 -6 -11 6 -8 12 10 27 13 11 27 27 31 36 3 10 12 15 21
12 16 -6 75 22 91 42 6 8 28 18 50 23 56 13 55 13 55 -8z m6794 -85 c28 -14
83 -32 121 -41 91 -21 137 -37 153 -52 7 -7 22 -13 32 -13 10 0 22 -4 25 -10
3 -5 16 -10 28 -10 12 -1 38 -10 57 -20 78 -43 142 -70 164 -70 13 0 26 -6 29
-14 3 -8 30 -25 60 -40 61 -28 79 -53 44 -58 -12 -2 -35 0 -52 5 -16 4 -50 8
-74 8 -25 0 -50 4 -56 9 -6 5 -26 8 -45 8 -54 -1 -143 13 -160 26 -8 7 -26 17
-40 24 -27 13 -62 34 -70 42 -9 9 -44 29 -75 43 -16 8 -36 21 -44 30 -7 10
-19 17 -26 17 -7 0 -23 8 -36 18 -13 10 -44 27 -69 37 -47 20 -120 74 -120 89
0 16 102 -3 154 -28z m-8444 14 c0 -5 -5 -10 -11 -10 -5 0 -7 5 -4 10 3 6 8
10 11 10 2 0 4 -4 4 -10z m100 -26 c0 -3 -5 -14 -10 -25 -13 -23 -40 -26 -40
-4 0 8 7 15 15 15 8 0 15 5 15 10 0 6 5 10 10 10 6 0 10 -3 10 -6z m8016 -41
c12 -3 59 -38 105 -79 46 -40 92 -81 102 -89 9 -8 17 -22 17 -31 0 -28 -115
-11 -148 21 -13 14 -31 25 -38 25 -8 0 -22 4 -32 9 -9 5 -31 15 -49 22 -31 13
-43 38 -43 95 0 26 27 47 50 37 8 -3 25 -8 36 -10z m-6803 -49 c8 -8 -3 -34
-14 -34 -4 0 -6 7 -3 15 4 8 3 15 0 15 -4 0 -11 -11 -16 -26 -6 -14 -23 -29
-40 -35 -16 -6 -30 -15 -30 -20 0 -5 -9 -9 -20 -9 -26 0 -142 -47 -151 -61 -4
-6 -16 -8 -28 -4 -22 7 -29 25 -10 25 18 0 99 43 99 52 0 4 8 8 18 8 11 0 27
9 37 20 10 11 22 17 26 14 5 -3 23 4 39 16 16 12 34 19 39 15 5 -3 12 -1 16 5
7 11 28 13 38 4z m5577 -69 c0 -8 -4 -15 -10 -15 -5 0 -10 7 -10 15 0 8 5 15
10 15 6 0 10 -7 10 -15z m-3028 -64 c-7 -19 -20 13 -21 49 0 24 0 24 13 -5 7
-16 11 -36 8 -44z m-2170 -3 c29 -47 -20 -134 -69 -123 -13 3 -23 1 -23 -5 0
-7 -8 -9 -20 -5 -12 4 -26 2 -33 -3 -7 -5 -29 -9 -49 -8 -21 1 -38 -2 -38 -6
0 -10 -12 -10 -29 1 -11 7 -10 13 5 34 11 14 28 28 40 31 11 3 40 20 64 38 24
18 55 40 69 50 29 18 70 16 83 -4z m5258 1 c0 -11 -4 -17 -10 -14 -5 3 -10 13
-10 21 0 8 5 14 10 14 6 0 10 -9 10 -21z m-5965 -28 c3 -6 -10 -17 -30 -27
-19 -9 -35 -20 -35 -25 0 -5 -7 -9 -15 -9 -8 0 -15 -5 -15 -11 0 -6 -6 -9 -14
-6 -8 3 -16 2 -18 -3 -2 -5 -13 -11 -26 -13 -12 -2 -28 -9 -34 -15 -7 -7 -17
-12 -24 -12 -7 0 -14 -5 -16 -11 -2 -5 -11 -11 -20 -13 -10 -1 -28 -11 -40
-23 -13 -11 -57 -37 -98 -57 -41 -20 -84 -45 -96 -54 -11 -9 -36 -26 -55 -36
-18 -11 -36 -22 -39 -25 -3 -3 -21 -15 -40 -25 -19 -11 -41 -28 -48 -38 -7
-10 -19 -18 -27 -18 -7 0 -15 -3 -17 -8 -4 -10 -106 -62 -122 -62 -6 0 -23
-10 -36 -22 -14 -13 -32 -24 -40 -26 -8 -2 -30 -15 -49 -30 -36 -27 -138 -82
-153 -82 -5 0 -7 4 -4 9 3 5 -1 14 -9 21 -14 12 -14 43 0 115 2 12 30 37 63
58 32 21 69 49 82 62 13 14 30 25 37 25 7 0 32 12 54 26 23 14 66 32 96 40 31
8 68 23 84 34 15 11 31 19 36 18 17 -4 141 30 153 42 10 10 50 30 61 30 18 0
82 32 106 52 11 11 41 22 65 25 24 3 58 17 78 33 19 14 45 27 58 28 13 0 38
10 55 21 34 22 82 28 92 12z m7073 -196 c-3 -3 -9 2 -12 12 -6 14 -5 15 5 6 7
-7 10 -15 7 -18z m789 -30 c13 -7 38 -11 56 -8 18 2 43 4 56 4 12 -1 28 2 34
6 24 14 139 16 222 4 111 -17 242 -32 251 -29 16 4 154 -67 154 -79 0 -7 7
-13 15 -13 9 0 18 -7 21 -15 4 -8 13 -15 22 -15 8 0 29 -11 47 -24 21 -16 39
-22 57 -19 18 3 34 -2 49 -16 13 -12 26 -21 31 -21 15 0 46 -61 41 -81 -5 -17
-13 -19 -74 -15 -38 2 -75 8 -82 14 -8 7 -24 13 -36 15 -13 2 -26 8 -29 13
-13 18 -63 38 -95 37 -17 0 -72 -6 -122 -13 -149 -20 -218 -5 -286 65 -40 41
-82 46 -122 15 -14 -11 -36 -20 -49 -20 -25 0 -93 -22 -104 -33 -4 -4 -12 -7
-18 -7 -6 0 -4 5 4 10 12 8 12 10 1 10 -18 0 -94 -22 -101 -30 -3 -3 -18 -5
-35 -6 -16 0 -92 -10 -167 -22 -75 -12 -163 -22 -195 -22 -59 -1 -122 -11
-157 -25 -14 -6 -17 -5 -12 3 5 8 0 12 -12 12 -11 0 -23 -7 -26 -16 -3 -8 -10
-13 -14 -10 -12 7 -71 8 -112 1 -166 -29 -186 -13 -156 125 2 8 5 22 8 30 3 8
11 33 18 55 11 40 60 82 80 70 5 -3 17 6 28 20 17 22 24 24 47 15 20 -8 31 -7
42 2 21 17 199 24 218 8 8 -7 21 -10 30 -7 8 4 17 2 20 -3 6 -10 44 -8 62 3
11 7 47 11 212 22 41 3 76 7 78 8 6 7 77 -6 100 -18z m1843 -96 c0 -5 -7 -9
-15 -9 -15 0 -20 12 -9 23 8 8 24 -1 24 -14z m-90 -274 c0 -8 -4 -15 -10 -15
-5 0 -10 7 -10 15 0 8 5 15 10 15 6 0 10 -7 10 -15z m-9340 -6 c0 -3 20 -3 45
1 26 4 46 3 48 -3 4 -13 98 -13 237 1 63 6 163 9 222 7 117 -5 128 -10 158
-70 8 -17 22 -42 32 -57 10 -14 18 -34 18 -45 0 -10 7 -27 15 -37 35 -46 1
-86 -72 -86 -24 0 -43 -3 -43 -7 0 -10 -301 -10 -317 0 -8 5 -13 3 -13 -5 0
-10 -2 -10 -8 -1 -4 7 -36 12 -77 13 -118 2 -125 3 -125 13 0 5 -8 6 -17 2
-22 -9 -157 -10 -171 -1 -6 3 -17 -1 -26 -9 -9 -10 -17 -12 -21 -5 -7 12 -94
8 -113 -4 -7 -4 -16 -5 -20 -2 -5 3 -49 0 -98 -6 -49 -5 -117 -10 -151 -9 -42
1 -63 -2 -63 -10 0 -7 -4 -8 -12 -2 -7 5 -33 8 -58 7 -25 0 -53 3 -62 7 -11 6
-34 3 -68 -10 -27 -10 -52 -15 -55 -10 -5 8 -15 5 -90 -26 -16 -7 -40 -16 -51
-19 -12 -4 -38 -28 -58 -53 -20 -25 -36 -43 -36 -38 0 4 -7 2 -16 -6 -9 -7
-13 -21 -10 -35 6 -23 -15 -50 -28 -36 -4 4 -13 0 -19 -9 -13 -17 -105 -69
-123 -69 -12 0 -17 -68 -18 -230 -1 -78 12 -114 42 -122 23 -6 65 9 58 21 -4
5 5 8 20 6 16 -1 30 4 37 16 7 11 20 19 29 19 10 0 18 5 18 10 0 6 9 10 20 10
11 0 38 11 59 24 21 14 47 25 57 25 11 0 50 4 87 9 38 4 70 5 73 1 3 -5 21 -7
42 -5 20 2 42 0 47 -4 14 -11 58 -16 70 -8 6 3 29 3 52 -1 23 -5 47 -4 55 0 7
4 59 8 116 8 56 0 108 3 113 7 10 6 137 6 204 1 17 -1 40 1 53 5 16 6 21 5 16
-4 -5 -7 -3 -8 7 -3 17 11 129 14 129 4 0 -4 19 2 41 13 26 12 44 16 48 10 7
-11 61 -10 79 2 7 4 12 3 12 -3 0 -12 118 -9 137 2 7 4 14 3 18 -2 3 -6 12 -8
19 -5 8 3 17 0 21 -6 5 -8 10 -8 20 0 7 6 16 7 18 3 3 -5 45 -6 94 -2 113 9
310 4 344 -10 15 -5 29 -8 32 -5 2 3 34 5 70 6 58 1 71 -3 102 -27 20 -15 40
-37 45 -50 5 -13 15 -27 22 -32 8 -4 32 -30 53 -58 22 -27 45 -56 52 -63 7 -7
10 -19 6 -27 -6 -17 -26 -23 -105 -30 -31 -2 -60 -5 -65 -7 -4 -1 -44 1 -89 6
-55 5 -89 3 -110 -5 -38 -16 -65 -18 -85 -8 -9 4 -56 5 -106 1 -49 -4 -104 -4
-122 -1 -17 4 -34 3 -36 -1 -3 -5 -32 -7 -66 -6 -33 1 -63 -2 -66 -7 -3 -5
-12 -6 -20 -3 -8 3 -20 3 -25 0 -19 -12 -78 -14 -78 -3 0 6 -9 8 -19 4 -11 -3
-22 -1 -25 4 -4 6 -18 6 -39 -1 -40 -12 -47 -13 -74 -4 -18 6 -23 3 -24 -11
-1 -15 -2 -15 -6 -2 -3 13 -15 16 -51 15 -26 -1 -64 1 -85 5 -30 5 -37 4 -33
-7 6 -15 -9 -19 -18 -5 -9 13 -238 11 -255 -2 -10 -9 -15 -9 -18 -1 -4 12
-216 7 -221 -6 -2 -5 -20 -3 -41 5 -22 7 -44 10 -51 5 -8 -5 -21 -5 -29 -1 -9
5 -22 6 -29 4 -7 -3 -19 0 -27 7 -8 6 -19 9 -24 6 -5 -4 -12 -2 -16 4 -3 6
-18 10 -33 11 -116 2 -148 -5 -217 -51 -16 -11 -42 -25 -58 -31 -15 -6 -30
-21 -33 -34 -5 -22 -15 -25 -85 -27 -25 -1 -69 32 -69 51 0 5 -9 13 -20 16
-11 3 -23 18 -26 33 -10 42 -64 115 -81 110 -11 -4 -93 78 -95 94 -2 24 -5 33
-15 58 -14 32 -47 70 -62 70 -6 0 -11 5 -11 11 0 5 -27 35 -60 66 -47 43 -60
62 -60 84 0 16 -5 29 -10 29 -19 0 -80 63 -80 82 0 10 -4 18 -10 18 -5 0 -10
5 -10 12 0 6 -10 22 -22 36 -19 19 -23 35 -23 82 0 50 4 63 33 98 17 23 32 45
32 51 0 14 76 72 84 63 4 -4 13 -7 19 -7 7 0 18 -13 26 -30 8 -16 17 -32 21
-35 4 -3 10 -14 14 -26 3 -11 17 -27 31 -34 14 -7 25 -24 27 -39 2 -20 9 -27
30 -29 20 -2 28 -9 28 -22 0 -10 15 -31 33 -47 18 -15 39 -40 46 -55 8 -16 18
-28 23 -28 4 0 17 -9 28 -20 l20 -20 2 33 c7 142 6 137 28 137 11 0 20 4 20 8
0 5 26 21 57 37 58 28 83 47 83 62 0 9 17 23 67 53 20 12 34 30 38 50 4 17 14
34 22 37 9 3 38 28 66 55 34 33 56 47 68 43 9 -3 20 -1 24 5 3 5 16 10 29 10
12 0 26 3 30 7 12 13 21 14 216 29 41 4 80 10 87 16 7 6 14 5 18 -1 6 -10 43
-9 219 4 33 3 60 6 62 8 6 5 134 2 134 -4z m8020 -203 c8 -1 34 -14 57 -29 48
-30 130 -39 120 -13 -7 18 62 33 73 16 4 -7 15 -8 31 -2 13 5 29 7 36 5 7 -2
21 1 32 7 17 9 21 8 21 -5 0 -12 6 -15 20 -10 12 4 26 2 33 -3 7 -6 23 -10 37
-10 103 0 193 -31 196 -69 3 -38 5 -42 19 -37 8 4 15 13 15 21 0 8 5 11 10 8
6 -3 10 -1 10 5 0 6 11 16 25 22 14 6 25 15 25 19 0 13 33 49 44 49 5 0 17 6
25 14 9 8 29 16 44 18 23 2 35 -5 67 -42 22 -25 40 -50 40 -57 0 -6 12 -22 28
-35 34 -29 56 -89 47 -129 -4 -18 -26 -48 -52 -72 -26 -23 -60 -57 -77 -74
-17 -18 -35 -33 -40 -33 -5 0 -36 -24 -70 -53 -34 -29 -74 -59 -91 -67 -32
-16 -82 -69 -78 -82 2 -4 -2 -8 -8 -8 -7 0 -17 -7 -23 -16 -16 -21 -59 -4 -83
33 -24 39 -30 41 -74 36 -21 -3 -46 -2 -56 2 -10 5 -22 7 -27 6 -4 -1 -25 4
-45 10 -38 13 -75 14 -94 2 -21 -13 -191 -14 -257 -3 -150 27 -254 17 -271
-26 -4 -13 -13 -24 -19 -24 -5 0 -10 -9 -10 -20 0 -11 -6 -20 -13 -20 -8 0
-20 -11 -27 -25 -7 -14 -19 -25 -25 -25 -7 0 -18 -6 -25 -14 -6 -8 -18 -12
-26 -9 -8 3 -14 0 -14 -6 0 -22 -89 -46 -160 -43 -97 4 -164 1 -175 -8 -8 -7
-19 -9 -25 -5 -5 3 -10 2 -10 -3 0 -5 -27 -12 -60 -16 -33 -4 -62 -11 -65 -17
-4 -5 -12 -9 -18 -8 -15 3 -69 -11 -82 -21 -5 -4 -27 -7 -48 -6 -21 1 -43 -4
-49 -11 -6 -7 -21 -13 -34 -13 -12 0 -26 -5 -29 -10 -4 -6 -11 -8 -16 -5 -5 4
-15 3 -21 -1 -7 -5 -51 -9 -99 -9 -47 -1 -91 -5 -98 -9 -7 -5 -15 -5 -18 -2
-4 3 -14 -1 -23 -9 -16 -14 -18 -14 -24 0 -6 16 -48 12 -73 -7 -7 -5 -18 -6
-25 -2 -16 10 -59 6 -72 -7 -6 -5 -15 -4 -22 2 -7 6 -19 7 -26 3 -7 -5 -42 -9
-77 -10 -40 -1 -67 -7 -73 -15 -8 -11 -11 -11 -15 -1 -3 9 -9 10 -17 3 -6 -5
-44 -12 -85 -15 -40 -3 -77 -8 -82 -11 -5 -4 -9 1 -9 9 0 8 9 17 19 21 10 3
22 17 25 31 5 17 12 24 22 20 8 -3 19 2 25 12 8 13 24 17 67 16 32 -1 64 -3
72 -5 8 -2 14 2 12 9 -2 10 4 11 19 7 18 -6 21 -4 15 10 -5 15 -2 17 24 12 23
-5 32 -2 41 15 9 16 13 18 19 7 7 -10 12 -10 23 -1 7 7 17 9 20 5 4 -3 12 -1
19 4 8 6 39 7 83 3 39 -5 71 -5 73 0 1 4 20 4 42 0 21 -4 44 -4 50 0 7 4 20 5
30 3 10 -3 21 0 24 6 4 6 20 8 36 5 16 -4 58 3 97 14 68 20 119 34 138 38 6 1
12 3 15 4 3 1 23 3 45 6 22 2 47 7 55 11 8 3 20 7 25 8 6 0 17 4 25 8 43 19
119 28 250 31 80 2 157 8 173 14 15 7 27 8 27 4 0 -4 4 -2 8 4 11 19 103 64
128 64 13 0 26 4 29 10 3 6 -1 7 -12 4 -10 -3 0 10 21 29 22 20 36 39 32 46
-4 6 -1 11 7 11 8 0 17 7 20 14 14 35 134 47 212 21 27 -9 72 -12 135 -9 202
9 229 7 242 -10 8 -12 121 -10 163 2 25 7 31 15 38 53 4 24 6 64 5 89 l-3 45
-115 4 c-120 4 -162 4 -295 -2 -44 -2 -86 1 -92 6 -9 6 -13 5 -13 -2 0 -6 -7
-11 -15 -11 -8 0 -15 8 -15 18 0 16 -10 19 -83 21 -81 2 -83 1 -112 -29 -59
-61 -106 -104 -118 -106 -41 -9 -58 -14 -76 -23 -11 -6 -42 -14 -68 -17 -26
-3 -58 -12 -70 -20 -12 -8 -35 -14 -51 -14 -15 0 -33 -5 -40 -12 -8 -8 -64
-11 -177 -11 -91 1 -165 -3 -165 -7 0 -4 -11 -11 -25 -14 -19 -5 -25 -13 -25
-34 -1 -30 -21 -62 -39 -62 -13 0 -14 12 -2 61 l8 37 -30 -9 c-17 -5 -33 -13
-37 -19 -3 -5 -42 -14 -86 -20 -101 -13 -138 -20 -144 -31 -3 -4 -46 -9 -95
-11 -50 -1 -98 -7 -108 -13 -13 -7 -20 -6 -27 4 -7 12 -11 13 -24 1 -9 -7 -19
-10 -23 -7 -3 4 -14 2 -24 -4 -14 -7 -19 -6 -19 2 0 8 -4 8 -12 1 -7 -5 -41
-9 -75 -9 l-63 0 0 42 c0 26 6 48 15 55 8 7 15 9 15 4 0 -5 9 10 20 34 11 24
19 46 19 50 -4 23 3 33 16 28 8 -3 15 0 15 7 1 7 16 29 34 49 27 31 41 38 82
43 27 3 55 6 62 7 6 1 12 5 12 9 0 7 87 19 174 24 28 1 78 6 111 11 33 4 71 8
85 9 14 1 35 3 48 3 12 1 22 8 22 15 0 10 30 13 138 12 75 -1 153 2 172 6 19
4 49 11 65 15 17 3 48 8 70 10 38 2 73 13 105 33 8 5 41 15 73 22 31 7 57 16
57 21 0 4 15 8 34 8 36 0 62 22 50 41 -4 8 -3 9 5 5 11 -7 87 36 103 59 4 5
10 6 14 3 4 -4 16 -1 28 8 19 14 77 14 156 0z m1372 -448 c-6 -6 -15 -8 -19
-4 -4 4 -1 11 7 16 19 12 27 3 12 -12z m-672 -244 c0 -15 -6 -24 -15 -24 -17
0 -18 4 -9 37 8 29 24 20 24 -13z m-366 -90 c33 -9 54 -10 66 -4 25 13 70 13
70 -1 0 -6 6 -9 13 -6 16 6 37 -9 65 -50 20 -28 22 -40 16 -85 -4 -29 -11 -58
-16 -65 -5 -6 -6 -22 -3 -35 5 -20 0 -27 -35 -47 -25 -14 -51 -21 -66 -18 -13
2 -26 1 -28 -2 -5 -7 -74 -5 -156 5 -76 9 -128 8 -143 -4 -19 -16 -162 -23
-272 -14 -55 4 -116 4 -135 0 -19 -4 -56 -10 -82 -14 -50 -5 -83 -28 -74 -50
3 -7 0 -14 -5 -16 -6 -2 -13 -22 -16 -46 -4 -32 -10 -42 -24 -42 -10 0 -20 -4
-23 -9 -6 -8 -68 -27 -118 -35 -14 -2 -36 -9 -48 -16 -11 -6 -28 -10 -38 -9
-9 1 -24 -1 -32 -5 -9 -3 -56 -8 -105 -9 -50 -2 -109 -9 -133 -17 -38 -12 -45
-12 -53 1 -6 10 -9 10 -9 2 0 -7 -11 -13 -24 -13 -13 0 -36 -6 -51 -14 -15 -8
-50 -17 -76 -21 -27 -4 -49 -11 -49 -16 0 -4 -7 -6 -16 -2 -9 3 -19 1 -23 -5
-12 -19 -207 -47 -217 -31 -3 6 -11 6 -20 -2 -8 -6 -45 -11 -84 -12 -38 0 -70
-4 -70 -9 0 -5 -9 -4 -19 2 -14 7 -22 7 -26 -1 -4 -6 -19 -7 -37 -4 -24 6 -29
4 -23 -6 6 -11 5 -11 -5 -2 -9 9 -19 9 -32 2 -11 -6 -26 -8 -34 -5 -8 3 -26 1
-40 -4 -15 -6 -52 -12 -83 -15 -31 -2 -92 -9 -135 -15 -44 -5 -82 -8 -84 -5
-3 3 -11 0 -19 -6 -7 -6 -13 -9 -13 -7 0 3 -33 -2 -72 -10 -40 -8 -89 -15
-108 -17 -19 -1 -42 -5 -50 -8 -39 -14 -48 -15 -59 -4 -8 8 -16 5 -31 -8 -18
-16 -23 -17 -30 -5 -8 13 -10 12 -10 -2 0 -14 -8 -16 -45 -14 -25 1 -45 -1
-45 -4 0 -7 -71 -17 -179 -25 -24 -2 -51 -7 -59 -10 -20 -7 -42 13 -42 40 0
14 10 27 28 36 15 7 51 29 81 47 30 19 62 35 72 37 22 4 79 46 79 57 0 4 7 8
15 8 19 0 48 16 96 53 20 15 43 27 50 27 7 0 10 3 6 6 -8 8 25 44 41 44 7 0
20 7 29 15 8 8 19 13 24 9 6 -3 16 0 24 6 8 6 19 9 24 6 6 -4 15 3 21 14 9 16
15 19 25 10 9 -8 15 -8 20 0 4 6 12 7 22 1 9 -5 33 -4 56 1 22 5 42 6 45 3 3
-2 10 -1 16 4 17 14 110 31 134 24 13 -3 22 -1 22 6 0 6 17 11 39 11 22 0 43
5 46 11 4 6 13 8 21 5 8 -3 38 -1 67 5 28 6 84 12 122 13 39 1 78 6 88 10 11
5 17 4 17 -4 0 -9 3 -10 14 -1 7 6 21 9 30 5 9 -3 24 0 33 7 13 11 17 11 20 2
6 -17 23 -17 23 0 0 10 14 13 50 10 27 -1 52 2 55 7 4 6 10 8 14 6 14 -9 211
21 226 34 9 7 18 10 21 7 4 -3 13 0 21 8 8 8 23 15 34 15 10 0 19 4 19 9 0 5
10 9 23 8 44 0 152 15 163 24 6 5 13 6 16 4 3 -3 39 1 81 10 41 8 101 15 133
14 58 -2 144 6 175 16 16 5 39 45 39 69 0 14 91 110 107 113 68 14 143 19 213
14 47 -3 137 -4 199 -3 92 1 117 5 124 17 9 17 42 14 131 -11z m-10160 -98 c4
-19 13 -37 21 -40 19 -7 21 -82 3 -89 -10 -4 -9 -8 2 -16 10 -7 11 -11 3 -11
-17 0 24 -77 47 -90 10 -6 21 -19 25 -29 3 -11 22 -30 41 -41 18 -12 34 -26
34 -31 0 -25 140 -159 173 -166 17 -3 33 -16 39 -29 6 -13 14 -24 18 -24 8 0
140 -88 157 -106 8 -8 22 -14 32 -14 10 0 26 -9 36 -20 10 -11 23 -20 30 -20
7 0 20 -10 31 -21 10 -12 34 -28 52 -36 31 -13 35 -12 47 4 8 10 13 34 12 54
-2 46 15 66 63 79 21 6 43 17 50 25 7 8 23 15 35 15 13 0 25 4 27 10 2 5 21
10 43 11 22 1 51 8 65 14 14 6 36 10 50 9 14 -2 50 -5 81 -8 31 -2 73 -14 95
-27 33 -18 57 -22 149 -24 61 -1 142 1 180 5 40 5 75 4 81 -1 6 -5 14 -6 17
-2 4 3 60 5 124 4 146 -3 121 -3 233 4 115 7 140 10 163 20 9 4 33 4 51 1 20
-4 37 -2 41 4 7 11 58 14 69 3 11 -11 106 -13 106 -2 0 6 6 7 13 2 13 -8 197
-12 197 -3 0 3 150 5 334 5 184 0 332 3 330 7 -3 5 -1 8 5 8 5 0 13 -5 17 -11
4 -6 20 -8 39 -5 20 4 36 2 40 -4 4 -6 25 -10 48 -8 23 1 81 -6 129 -16 67
-14 97 -16 133 -8 25 5 60 6 78 3 18 -4 49 -6 70 -3 27 3 44 -1 58 -14 16 -15
22 -16 29 -5 6 10 9 9 15 -7 3 -12 9 -21 13 -21 29 4 55 -5 77 -27 14 -14 29
-23 34 -20 5 3 14 -1 21 -8 6 -8 26 -18 43 -22 18 -3 38 -11 44 -16 7 -6 20
-8 28 -4 11 4 19 -3 25 -20 7 -17 15 -24 25 -20 8 3 17 1 20 -4 4 -6 12 -10
20 -10 17 0 52 -15 90 -39 17 -11 38 -20 48 -20 10 -1 37 -10 59 -21 23 -11
47 -20 54 -20 6 0 17 -6 23 -13 8 -11 6 -18 -8 -31 -15 -13 -32 -16 -92 -11
-41 3 -119 7 -174 10 -55 3 -102 5 -105 6 -3 1 -23 3 -45 4 -53 3 -156 20
-177 30 -10 4 -18 3 -18 -2 0 -6 -18 -6 -47 0 -27 6 -132 12 -235 13 -103 2
-230 8 -283 13 -53 5 -102 8 -110 5 -7 -3 -16 -1 -20 5 -8 14 -90 14 -116 0
-13 -7 -24 -7 -32 -1 -7 6 -48 8 -97 5 -47 -3 -164 -7 -260 -9 -211 -4 -282
-8 -297 -17 -7 -4 -32 -3 -57 3 -42 9 -89 8 -177 -6 -22 -3 -40 -1 -44 6 -5 8
-11 8 -21 -1 -11 -9 -14 -9 -14 1 0 8 -6 9 -17 5 -10 -5 -67 -9 -128 -9 -60
-1 -115 -5 -121 -9 -7 -4 -15 0 -18 9 -3 8 -10 13 -16 9 -8 -5 -85 -9 -380
-18 -30 -1 -59 0 -65 4 -5 3 -37 11 -70 18 -33 7 -64 17 -70 21 -5 5 -30 8
-55 9 -25 0 -71 2 -102 4 -32 1 -58 -2 -58 -7 0 -5 -18 -6 -40 -3 -26 3 -43 1
-50 -8 -6 -7 -20 -11 -31 -8 -12 3 -25 0 -29 -7 -4 -7 -19 -12 -33 -12 -14 0
-28 -7 -31 -14 -3 -8 -12 -14 -20 -14 -21 0 -27 -26 -14 -58 7 -15 12 -31 12
-37 1 -5 8 -17 16 -26 8 -9 28 -35 44 -58 17 -23 35 -41 42 -41 6 0 14 -8 18
-17 3 -10 10 -28 16 -41 9 -20 7 -23 -9 -17 -13 4 -24 -1 -34 -16 -16 -22 -42
-17 -33 7 3 9 -1 14 -12 14 -10 0 -22 4 -27 9 -6 5 -35 16 -66 25 -31 9 -60
23 -63 32 -3 8 -10 13 -14 10 -5 -3 -28 8 -53 25 -24 16 -52 29 -61 29 -10 0
-18 4 -18 8 0 5 -12 15 -27 22 -16 8 -40 22 -55 32 -14 10 -32 18 -40 18 -8 0
-29 13 -48 30 -19 16 -40 29 -47 30 -6 0 -18 8 -25 19 -12 17 -28 28 -109 72
-16 9 -37 25 -47 36 -29 32 -106 84 -155 104 -16 6 -33 22 -38 35 -5 14 -20
29 -35 34 -14 6 -28 19 -31 30 -3 11 -9 20 -13 20 -5 0 -11 14 -15 30 -4 17
-10 28 -15 25 -4 -3 -6 3 -3 13 4 18 -24 51 -36 43 -13 -9 -21 86 -23 309 -2
129 1 240 5 247 5 8 18 6 46 -8 31 -14 40 -25 45 -53z m11149 12 c70 -96 85
-147 78 -268 -1 -17 -117 -80 -146 -80 -15 0 -107 -24 -140 -36 -5 -2 -23 -13
-40 -23 -16 -11 -38 -20 -47 -20 -10 -1 -34 -17 -55 -36 -20 -19 -40 -32 -45
-29 -4 3 -8 -2 -8 -10 0 -9 -6 -16 -13 -16 -7 0 -18 -9 -25 -20 -7 -11 -19
-20 -26 -20 -16 0 -58 -48 -52 -59 3 -4 -9 -13 -25 -20 -18 -8 -29 -20 -29
-32 0 -11 -5 -29 -10 -40 -9 -16 -7 -19 8 -19 10 0 23 5 29 11 6 6 39 13 74
16 35 3 76 12 91 19 15 8 36 14 48 14 11 0 20 5 20 11 0 6 8 8 18 5 12 -4 26
1 37 14 10 11 21 17 26 14 5 -3 20 2 33 11 14 9 30 14 36 10 5 -3 10 -1 10 5
0 6 5 8 10 5 6 -3 10 -2 10 3 0 4 32 13 72 20 45 7 77 17 84 27 8 11 14 13 19
5 5 -7 12 -5 23 8 23 26 71 56 78 49 13 -12 16 -96 5 -128 -10 -31 -15 -34
-53 -37 -23 -1 -47 -7 -53 -12 -7 -6 -14 -7 -18 -4 -3 3 -10 -4 -16 -15 -7
-12 -17 -18 -27 -14 -8 3 -36 -3 -62 -13 -26 -10 -52 -17 -58 -16 -6 1 -24 -4
-39 -12 -16 -8 -32 -13 -36 -10 -8 5 -105 -42 -114 -55 -3 -5 -21 -9 -42 -9
-21 0 -39 -6 -44 -15 -5 -9 -32 -17 -70 -21 -62 -7 -87 -17 -123 -48 -12 -11
-28 -15 -42 -12 -12 3 -32 0 -44 -6 -12 -6 -46 -12 -76 -12 -51 -1 -82 -16
-71 -35 3 -5 -9 -15 -26 -22 -18 -7 -39 -16 -47 -20 -20 -11 -61 -83 -55 -98
2 -7 -9 -18 -25 -26 -22 -12 -39 -13 -77 -5 -42 9 -71 10 -168 4 -11 -1 -26
-5 -32 -9 -7 -5 -13 -4 -13 0 0 5 -34 9 -75 10 -47 1 -75 -2 -75 -9 0 -6 -7
-7 -17 -2 -55 24 -298 7 -365 -26 -24 -12 -64 -23 -89 -25 -64 -4 -83 -17
-115 -75 -15 -28 -31 -50 -36 -50 -5 0 -7 -4 -4 -9 7 -10 -17 -21 -45 -21 -10
0 -19 -4 -19 -10 0 -5 -15 -10 -34 -10 -19 0 -37 -4 -40 -9 -5 -7 -42 -14
-151 -27 -11 -2 -51 -5 -88 -8 -37 -2 -75 -10 -83 -17 -14 -12 -32 -17 -76
-21 -9 -1 -14 -6 -12 -10 3 -4 -21 -8 -53 -9 -32 0 -65 -2 -73 -4 -8 -2 -33
-9 -55 -14 -22 -6 -59 -11 -82 -11 -23 0 -45 -5 -48 -10 -3 -5 -24 -10 -46
-10 -22 0 -39 -5 -39 -11 0 -7 -18 -10 -50 -7 -28 1 -50 -1 -50 -6 0 -4 -8 -6
-19 -3 -10 2 -26 0 -35 -5 -11 -6 -22 -6 -32 2 -11 10 -14 10 -14 1 0 -7 -5
-9 -12 -5 -17 11 -78 6 -94 -7 -7 -6 -17 -8 -23 -5 -5 3 -11 0 -14 -6 -3 -10
-7 -10 -20 1 -12 9 -32 12 -69 7 -29 -3 -83 -7 -121 -7 -37 -1 -70 -6 -73 -11
-3 -5 -14 -6 -24 -3 -12 4 -22 -1 -29 -12 -7 -13 -13 -15 -18 -7 -9 13 -61 13
-81 0 -7 -4 -28 -5 -47 -2 -18 4 -36 2 -39 -3 -4 -5 -29 -8 -56 -6 -30 2 -48
0 -45 -6 4 -5 1 -9 -4 -9 -6 0 -11 5 -11 11 0 7 -10 4 -26 -6 -18 -12 -29 -14
-37 -6 -6 6 -17 7 -26 2 -23 -12 -122 -21 -115 -10 6 10 -29 12 -39 2 -8 -8
-43 -11 -163 -16 -50 -3 -99 -9 -109 -15 -12 -6 -28 -7 -44 -1 -16 6 -28 6
-35 -1 -5 -5 -20 -10 -32 -10 -12 0 -24 -6 -27 -12 -3 -10 -7 -10 -20 0 -20
17 -82 18 -101 3 -8 -7 -25 -9 -39 -6 -14 4 -28 2 -32 -4 -3 -6 -10 -9 -15 -6
-5 3 -20 1 -34 -4 -13 -6 -68 -11 -121 -13 -53 -1 -99 -6 -101 -10 -2 -4 -20
-4 -39 -1 -19 3 -42 2 -52 -2 -10 -5 -46 -9 -81 -11 -34 -1 -68 -6 -75 -12 -7
-6 -34 -7 -67 -2 -30 4 -58 6 -61 4 -20 -11 -386 -24 -794 -28 -187 -2 -342
-5 -345 -6 -3 -1 -7 -2 -10 -2 -133 11 -174 11 -181 0 -6 -9 -11 -9 -23 1 -10
8 -43 14 -81 14 -36 0 -65 3 -65 6 0 3 -44 7 -98 8 -53 2 -187 5 -297 9 -224
7 -207 6 -295 6 -36 -1 -83 0 -105 0 -22 0 -56 0 -75 -1 -19 -2 -58 0 -87 3
-34 4 -54 2 -59 -5 -5 -8 -8 -8 -14 1 -8 13 -249 18 -270 5 -9 -5 -11 -4 -6 3
9 15 -18 16 -45 2 -13 -8 -19 -7 -19 0 0 6 -4 9 -9 6 -5 -3 -143 -8 -307 -11
-324 -6 -385 -10 -394 -25 -4 -7 -59 -9 -156 -5 -163 7 -182 8 -204 18 -23 10
-140 14 -140 5 0 -12 -28 -10 -32 2 -2 5 -19 7 -42 3 l-38 -6 7 -71 c4 -39 7
-73 8 -76 1 -3 -2 -6 -8 -8 -14 -4 -23 32 -24 94 -1 28 -7 56 -13 62 -20 16
-149 22 -154 7 -7 -18 -41 -7 -47 16 -3 13 -14 19 -32 19 -29 0 -85 28 -85 43
0 5 -9 5 -20 2 -11 -4 -20 -2 -20 4 0 6 -9 11 -21 11 -11 0 -55 19 -97 41 -42
23 -108 52 -146 65 -38 13 -73 28 -77 35 -4 6 -12 9 -18 5 -6 -4 -23 4 -38 18
-15 15 -33 26 -38 26 -22 0 -65 25 -65 39 0 8 -6 11 -16 7 -8 -3 -13 -2 -9 3
5 10 -58 63 -88 74 -9 4 -17 10 -16 14 4 21 -2 33 -16 33 -8 0 -15 -5 -15 -11
0 -15 -83 -1 -159 27 -35 14 -73 22 -83 18 -12 -3 -18 0 -18 9 0 10 -15 17
-45 21 -24 4 -47 12 -51 17 -4 6 -10 6 -19 -1 -9 -8 -14 -6 -19 5 -3 9 -11 13
-17 10 -5 -4 -18 0 -29 10 -10 9 -30 20 -46 24 -18 5 -30 16 -35 32 -9 34 -12
210 -4 242 7 25 10 26 70 23 35 -1 70 -7 77 -13 24 -18 98 -53 114 -53 20 0
95 -51 89 -60 -3 -5 5 -17 17 -27 13 -10 23 -25 23 -33 0 -8 5 -14 12 -13 6 2
15 -7 18 -18 9 -28 45 -69 61 -69 6 0 15 -12 19 -27 9 -36 33 -63 57 -63 10 0
18 -5 18 -11 0 -6 7 -9 15 -5 8 3 15 0 15 -6 0 -14 51 -58 68 -58 13 0 70 -28
82 -40 15 -15 72 -39 83 -34 7 2 33 -11 58 -31 24 -19 54 -35 66 -35 12 0 23
-3 25 -7 5 -12 68 -43 87 -43 9 0 22 -5 27 -10 6 -6 30 -14 53 -18 24 -4 42
-11 41 -16 -2 -12 60 -38 77 -32 7 3 15 1 18 -4 9 -15 22 -12 29 5 6 16 -9 60
-30 85 -11 13 -18 54 -15 88 1 14 24 16 49 3 31 -17 57 -24 82 -24 94 3 136 8
142 17 6 8 10 8 15 0 5 -6 37 -16 73 -22 36 -7 102 -20 147 -30 45 -10 87 -16
93 -12 6 4 24 6 38 4 15 -2 68 1 117 6 50 6 108 12 131 14 23 1 45 5 50 8 5 2
286 3 624 2 338 -2 640 -4 670 -4 63 0 161 -1 169 -2 3 0 8 0 11 1 13 5 272 5
277 1 9 -9 58 -7 65 4 4 6 11 6 20 0 7 -6 24 -9 37 -8 14 1 38 -2 53 -7 18 -5
28 -4 28 3 0 6 8 7 17 3 10 -3 56 -8 103 -11 47 -3 91 -7 99 -10 7 -2 20 1 27
7 11 9 14 8 14 -1 0 -8 8 -10 24 -6 14 3 28 2 31 -4 3 -5 48 -10 98 -10 51 0
123 -5 161 -10 37 -6 161 -11 275 -11 286 -1 313 0 426 12 55 6 155 12 223 14
67 1 125 5 129 8 3 4 14 2 24 -4 11 -5 19 -6 19 -2 0 4 37 8 83 9 166 2 282 9
288 18 4 5 26 9 50 9 24 -1 49 3 54 7 6 5 26 7 45 6 19 -2 39 -1 45 2 5 3 21
6 35 6 17 1 24 6 22 16 -3 12 0 11 15 -2 17 -15 21 -15 54 1 41 20 68 23 87 8
8 -6 17 -6 26 2 8 7 32 14 53 15 21 2 49 6 63 10 21 5 157 15 224 17 11 0 49
7 85 15 36 8 77 17 90 20 14 3 29 8 34 11 5 3 50 7 100 9 74 2 94 6 105 21 10
14 15 15 21 5 6 -10 18 -11 52 -3 24 5 45 8 48 6 2 -3 9 -1 15 4 12 9 142 22
261 25 39 1 77 6 84 10 8 5 17 3 22 -5 6 -9 12 -10 17 -4 4 6 36 11 72 12 60
3 125 9 125 13 0 1 21 3 48 5 26 2 53 8 60 12 6 4 26 8 42 9 17 1 38 5 49 9
10 4 32 8 50 9 17 1 34 6 38 11 7 10 35 16 76 15 12 0 22 4 22 8 0 4 30 7 67
6 38 -1 73 2 78 5 6 3 19 7 30 8 11 1 49 7 85 13 36 6 81 12 100 14 19 2 71
13 115 24 44 11 114 27 155 37 86 20 100 28 100 61 0 12 5 26 10 29 6 3 10 14
10 23 0 9 9 28 19 41 15 20 33 25 127 37 60 8 117 17 127 20 10 3 79 8 155 10
142 4 166 7 192 18 47 20 282 25 305 6 14 -12 91 4 88 18 -3 13 18 12 28 -2 4
-5 10 15 14 43 4 28 11 51 17 51 5 0 6 10 3 21 -5 14 -4 19 4 15 7 -4 9 -1 5
8 -4 10 15 27 60 56 36 23 66 47 66 54 0 6 18 22 39 36 22 13 45 34 52 46 7
14 17 20 27 17 8 -4 18 1 23 10 5 9 22 22 37 30 85 44 112 60 112 67 0 4 12
13 28 19 15 6 42 25 59 41 18 17 39 30 47 30 9 0 16 5 16 10 0 6 7 10 16 10
10 0 32 16 51 35 19 19 42 35 51 35 17 0 44 23 100 86 15 16 35 33 45 37 9 3
17 13 17 22 0 27 38 16 63 -17z m-9986 -271 c41 -22 146 -48 153 -38 3 4 43 8
90 8 47 0 110 1 140 2 30 2 57 2 60 1 16 -5 127 -6 135 -1 6 3 37 7 70 8 33 1
71 3 85 4 14 1 84 -1 155 -3 72 -3 140 -1 152 3 13 5 25 4 29 -2 4 -6 17 -8
33 -3 37 11 510 13 517 3 3 -5 10 -9 15 -9 6 0 8 3 5 8 -7 12 220 16 437 7
107 -4 153 -3 163 6 11 9 23 6 54 -15 22 -14 40 -32 40 -40 0 -7 7 -19 15 -26
8 -7 15 -18 14 -24 0 -7 -2 -6 -6 2 -5 13 -33 17 -33 5 0 -5 -25 -9 -56 -10
-48 -2 -57 1 -61 17 -5 17 -7 18 -20 4 -11 -11 -19 -12 -28 -4 -8 7 -15 7 -19
1 -4 -5 -45 -8 -94 -7 -48 2 -93 -1 -99 -7 -7 -5 -13 -6 -13 -1 0 5 -66 8
-148 7 -81 -1 -158 -2 -172 -1 -14 0 -33 0 -42 -1 -35 -2 -93 -3 -123 -2 -49
3 -180 -5 -190 -10 -11 -6 -136 -3 -198 4 -20 3 -39 1 -42 -3 -3 -5 -35 -6
-73 -4 -37 2 -82 -1 -101 -7 -25 -9 -35 -8 -41 1 -5 9 -9 9 -14 1 -10 -15 -73
-14 -79 2 -4 8 -8 8 -14 2 -11 -13 -73 -19 -73 -7 0 5 -15 8 -32 6 -18 -1 -33
-3 -33 -4 0 -1 -81 -4 -180 -7 -173 -4 -277 6 -291 29 -3 4 -16 8 -28 8 -13 0
-29 7 -36 15 -13 16 -100 21 -100 6 0 -5 -10 -9 -22 -9 -61 0 -128 -31 -128
-58 0 -17 -44 -57 -65 -60 -9 -1 -15 6 -15 16 0 13 -5 17 -20 13 -21 -6 -24 5
-14 45 4 14 22 30 48 41 23 11 57 37 76 58 34 37 37 38 112 41 53 2 85 -1 105
-11z m-1181 -380 c3 -15 10 -25 15 -21 5 3 9 -1 9 -8 0 -9 -15 -13 -45 -13
-44 0 -45 1 -45 31 0 37 4 42 35 40 18 -1 26 -8 31 -29z m11422 -169 c7 -7 12
-20 12 -30 0 -10 5 -18 11 -18 6 0 9 -6 6 -12 -2 -7 6 -28 19 -47 12 -18 20
-40 17 -47 -3 -9 1 -14 12 -14 9 0 13 -4 10 -10 -3 -5 -1 -10 4 -10 12 0 14
-86 3 -110 -4 -8 -22 -16 -41 -18 -19 -1 -46 -9 -60 -17 -14 -8 -37 -20 -51
-27 -28 -14 -80 -67 -80 -80 0 -5 -9 -6 -20 -3 -11 4 -34 -1 -51 -9 -17 -9
-35 -13 -39 -11 -10 6 -105 -12 -135 -25 -11 -5 -37 -14 -57 -20 -21 -6 -38
-16 -38 -21 0 -5 -16 -9 -35 -9 -21 0 -35 -5 -35 -12 0 -10 -2 -10 -9 0 -6 10
-10 10 -21 -2 -7 -9 -16 -13 -22 -10 -5 3 -15 0 -23 -6 -8 -6 -19 -9 -25 -5
-7 4 -25 -5 -41 -21 -16 -15 -29 -23 -29 -18 0 6 -13 9 -30 6 -16 -2 -30 -9
-30 -14 0 -6 -8 -7 -17 -4 -9 4 -20 1 -24 -5 -4 -7 -21 -14 -38 -15 -17 -2
-42 -10 -54 -17 -12 -8 -41 -20 -64 -27 -24 -7 -43 -16 -43 -20 0 -4 -20 -11
-45 -14 -24 -4 -47 -11 -50 -16 -3 -5 -12 -7 -21 -3 -17 6 -121 -24 -130 -38
-3 -5 -14 -9 -25 -9 -10 0 -19 -4 -19 -10 0 -5 -16 -12 -35 -16 -19 -3 -39
-13 -43 -20 -4 -8 -35 -19 -67 -25 -33 -7 -66 -13 -72 -15 -8 -2 -13 -20 -13
-45 0 -44 -39 -202 -51 -207 -4 -2 -19 -14 -35 -27 -15 -13 -41 -25 -58 -28
-53 -8 -185 0 -200 12 -7 6 -54 12 -107 12 -119 2 -119 2 -113 -15 3 -7 -2
-16 -10 -19 -9 -4 -16 -14 -16 -24 0 -32 -50 -73 -90 -73 -20 0 -40 -3 -44 -7
-4 -4 -23 -8 -43 -10 -20 -1 -41 -7 -46 -12 -7 -7 -15 -7 -24 0 -10 9 -13 8
-13 -1 0 -8 -11 -11 -30 -8 -23 3 -29 1 -26 -8 6 -17 -10 -28 -19 -14 -5 8
-12 7 -23 -3 -10 -8 -25 -17 -34 -20 -10 -4 -18 -13 -18 -21 0 -15 -49 -36
-85 -36 -13 0 -26 -7 -29 -16 -4 -11 -10 -13 -19 -6 -6 5 -21 8 -32 6 -11 -2
-38 -6 -60 -9 -22 -2 -55 -9 -72 -14 -18 -5 -33 -7 -33 -4 0 3 -6 1 -13 -5
-11 -10 -76 -20 -160 -27 -15 -1 -30 -5 -34 -8 -3 -4 -17 -7 -29 -7 -13 0 -26
-5 -29 -10 -5 -8 -11 -8 -19 -1 -7 6 -15 8 -18 6 -11 -12 -57 -17 -166 -19
-71 -1 -116 -6 -124 -14 -15 -15 -29 -16 -25 -1 1 6 -4 14 -10 16 -7 3 -13 -2
-13 -11 0 -19 -11 -21 -27 -5 -6 6 -17 8 -24 3 -7 -4 -51 -9 -98 -11 -47 -2
-122 -5 -166 -7 -44 -1 -107 -11 -140 -21 -62 -19 -76 -21 -213 -28 -46 -3
-89 -10 -98 -18 -13 -10 -17 -10 -24 0 -6 11 -14 11 -44 0 -24 -9 -40 -10 -44
-4 -11 16 -52 16 -52 1 0 -11 -9 -13 -32 -9 -18 2 -107 0 -198 -7 -91 -6 -214
-13 -275 -15 -60 -2 -148 -7 -195 -11 -92 -7 -91 -7 -135 -4 -16 1 -46 -3 -65
-8 -40 -10 -69 -10 -87 1 -7 5 -31 3 -53 -3 -22 -6 -45 -8 -50 -5 -6 3 -10 2
-10 -3 0 -5 -60 -9 -138 -8 -102 1 -146 -3 -165 -13 -21 -11 -29 -12 -41 -2
-16 14 -56 6 -56 -10 0 -6 -9 -7 -20 -4 -12 4 -20 2 -20 -6 0 -8 -4 -9 -13 0
-10 7 -24 8 -48 1 -35 -11 -206 -16 -215 -7 -3 3 -18 2 -33 -3 -16 -4 -47 -4
-70 0 -22 4 -41 4 -41 0 0 -4 -46 -8 -102 -8 -57 0 -188 -2 -291 -4 -104 -2
-190 -1 -192 2 -2 4 -77 6 -167 5 -90 -1 -166 0 -170 2 -14 7 -391 9 -434 3
-25 -4 -47 -3 -50 2 -3 5 -32 6 -65 2 -37 -4 -64 -3 -72 4 -8 7 -18 7 -27 2
-20 -13 -33 -13 -25 0 4 6 -6 8 -25 5 -16 -3 -44 -7 -60 -10 -17 -2 -30 0 -30
5 0 7 -261 15 -345 11 -5 0 -32 -2 -60 -4 -27 -2 -66 0 -86 4 -20 5 -51 4 -69
-1 -19 -5 -38 -6 -44 -2 -6 5 -45 6 -86 4 -41 -2 -99 -3 -127 -3 -29 0 -53 -4
-53 -8 0 -5 -17 -5 -37 -1 -20 5 -41 6 -47 3 -11 -7 -88 -5 -130 3 -19 4 -26
3 -22 -5 5 -7 -2 -7 -24 0 -17 6 -39 9 -50 6 -10 -3 -46 1 -80 8 -33 7 -62 9
-65 5 -4 -6 -63 -6 -120 0 -5 1 -28 -1 -50 -4 -62 -9 -68 -9 -102 -8 -23 1
-33 7 -33 18 0 11 -6 14 -20 9 -14 -4 -27 2 -47 24 -50 54 -57 64 -58 85 -2
32 -28 110 -40 118 -5 4 -22 8 -37 8 -16 0 -28 5 -28 10 0 6 -17 21 -37 33
-38 22 -114 27 -137 8 -6 -5 -37 -12 -69 -16 -48 -5 -62 -3 -77 10 -10 9 -27
15 -37 14 -32 -5 -153 12 -159 22 -3 5 -14 7 -24 4 -10 -3 -21 -1 -24 4 -4 6
-13 8 -21 4 -9 -3 -21 -1 -28 5 -6 5 -19 10 -27 10 -8 1 -33 3 -55 5 -22 3
-48 0 -58 -5 -11 -5 -17 -5 -17 2 0 5 -7 10 -16 10 -8 0 -22 7 -30 15 -10 10
-35 15 -69 15 -30 0 -56 4 -60 9 -5 8 -77 25 -110 26 -5 0 -16 6 -24 13 -7 7
-22 10 -32 7 -11 -4 -19 -2 -19 4 0 6 -3 10 -7 10 -27 -4 -53 2 -47 12 4 8 0
9 -15 4 -13 -4 -21 -2 -21 5 0 6 -5 8 -10 5 -6 -4 -16 -2 -23 4 -7 5 -25 8
-41 7 -18 -2 -34 3 -44 15 -11 13 -20 15 -33 8 -14 -7 -25 -4 -44 13 -15 13
-38 25 -52 28 -19 4 -29 14 -35 35 -11 36 -14 228 -4 244 9 14 61 14 87 0 11
-5 38 -11 61 -11 26 0 49 -8 65 -22 23 -20 99 -41 186 -51 21 -3 47 -9 57 -15
17 -9 53 -16 134 -27 22 -3 46 -11 53 -19 8 -7 29 -16 48 -20 19 -3 35 -10 35
-14 0 -10 79 -32 91 -25 5 4 16 2 23 -5 8 -6 42 -13 75 -15 l61 -5 0 35 c0 18
-4 37 -10 40 -5 3 -10 13 -10 21 0 19 63 19 79 0 6 -7 24 -16 40 -19 16 -3 36
-13 44 -22 9 -8 24 -15 34 -15 10 0 27 -6 38 -14 11 -7 22 -14 25 -14 6 -1 34
-10 58 -19 9 -3 21 -5 26 -4 4 1 19 -5 32 -14 13 -8 30 -15 38 -15 8 0 17 -9
21 -20 3 -11 24 -35 46 -53 21 -19 39 -39 39 -45 0 -7 9 -12 21 -12 12 0 23
-8 26 -20 3 -11 9 -20 15 -20 5 0 21 -27 35 -59 23 -51 30 -59 57 -63 53 -8
268 2 281 12 7 5 14 7 18 4 11 -11 495 -26 501 -15 4 6 49 6 66 1 24 -7 166 4
172 13 6 9 10 9 16 0 10 -15 310 -16 329 -1 7 6 19 6 31 -1 11 -6 44 -11 73
-11 46 0 215 -6 257 -9 6 -1 36 -1 66 0 30 1 59 -2 65 -5 6 -4 11 -2 11 4 0 7
6 10 14 7 7 -3 19 0 25 6 8 8 11 8 11 0 0 -7 57 -11 178 -12 158 -2 237 -6
237 -11 0 -5 303 -10 492 -9 72 1 135 -1 140 -4 16 -9 402 0 415 10 14 11 64
11 75 0 11 -11 85 -8 78 3 -6 10 17 9 110 -4 17 -2 33 1 37 7 4 7 11 7 20 1
14 -12 80 -10 99 1 7 5 34 7 61 6 27 -1 54 2 61 6 15 9 60 9 75 -1 7 -4 12 -4
12 1 0 4 32 9 70 10 49 2 70 -1 70 -10 0 -8 3 -8 9 2 5 8 16 11 28 7 12 -4 25
0 33 9 7 9 17 12 24 7 6 -5 31 -7 56 -6 25 1 57 3 73 3 18 1 27 6 28 19 0 10
3 12 6 5 6 -16 35 -17 49 -3 7 7 20 7 41 -1 21 -7 38 -7 50 -1 10 5 56 9 101
8 46 -1 86 2 88 5 2 4 37 7 76 7 40 -1 111 2 158 6 47 4 126 8 175 10 50 2
105 6 124 10 69 16 235 35 321 37 36 1 75 6 88 10 14 6 22 5 22 -2 0 -8 5 -7
15 1 8 7 21 10 29 7 8 -3 17 -3 21 1 3 3 27 8 53 9 26 2 51 8 55 12 5 5 16 7
24 4 7 -3 22 2 32 11 12 11 21 13 25 7 4 -6 13 -8 21 -4 8 3 15 1 15 -4 0 -14
63 -14 72 0 5 8 11 8 16 2 8 -12 62 -13 80 -2 7 5 12 4 12 -2 0 -15 27 -14 33
2 4 10 7 10 18 0 16 -15 69 -17 69 -3 0 6 7 10 15 10 8 0 15 -5 15 -11 0 -7
10 -9 25 -5 14 4 51 9 82 12 32 3 60 8 63 12 3 4 21 7 40 7 22 0 40 7 48 18
10 13 17 15 33 7 10 -6 19 -7 19 -2 0 5 26 12 58 16 97 10 136 18 147 31 11
14 66 24 175 31 41 3 99 10 127 15 29 6 57 8 63 4 5 -3 10 -1 10 4 0 6 11 11
24 11 14 0 28 5 31 10 4 6 11 8 16 5 5 -4 14 5 20 19 7 14 15 23 19 21 4 -3
14 2 21 11 19 23 75 45 154 60 39 8 85 17 103 20 17 4 32 11 32 15 0 5 9 9 19
9 12 0 21 8 23 21 2 12 16 31 31 43 26 19 40 21 160 18 72 -2 136 -7 141 -11
16 -13 195 -22 236 -13 34 8 35 9 37 62 4 85 35 201 61 227 12 12 22 29 22 37
0 8 9 18 20 21 11 3 20 11 20 17 0 15 48 58 66 58 7 0 14 3 14 8 0 4 25 8 56
9 41 1 75 11 129 38 40 19 77 35 82 33 16 -3 93 23 93 32 0 6 10 10 23 10 12
0 35 7 51 15 15 8 32 12 37 9 6 -3 15 -1 22 4 7 5 31 13 55 17 23 4 42 11 42
16 0 5 8 9 18 9 9 0 34 9 53 19 20 11 45 17 56 15 11 -3 25 2 32 10 8 9 20 16
27 16 8 0 22 4 32 10 25 15 76 33 85 31 7 -1 74 24 132 50 11 5 36 11 55 13
45 5 80 16 80 26 0 4 18 10 40 14 24 4 43 13 47 22 6 15 55 43 79 44 5 0 15
-5 22 -12z m-8978 -377 c0 -10 -7 -24 -15 -31 -16 -13 -18 -8 -9 28 8 27 24
29 24 3z m-1280 -133 c0 -32 0 -32 -16 -10 -15 22 -12 42 7 42 5 0 9 -15 9
-32z m8120 -134 c0 -8 -5 -12 -10 -9 -6 4 -8 11 -5 16 9 14 15 11 15 -7z
m1141 -127 c-13 -13 -26 -3 -16 12 3 6 11 8 17 5 6 -4 6 -10 -1 -17z m1093
-114 c15 -70 12 -232 -5 -340 -2 -11 -100 -33 -147 -33 -12 0 -22 -4 -22 -10
0 -5 -8 -9 -17 -8 -38 3 -52 -2 -47 -16 4 -11 -4 -14 -33 -14 -42 1 -69 -4
-79 -15 -4 -4 -23 -4 -42 -1 -28 5 -38 3 -49 -12 -9 -13 -16 -15 -24 -7 -10
10 -49 3 -91 -18 -10 -5 -20 -4 -23 2 -5 7 -11 6 -20 -1 -10 -8 -15 -8 -20 0
-5 8 -11 8 -21 -1 -8 -6 -22 -9 -33 -6 -10 2 -25 0 -34 -4 -9 -6 -18 -5 -21 0
-3 5 -21 5 -40 1 -19 -4 -37 -5 -40 -2 -3 2 -48 6 -101 7 -52 1 -98 5 -102 8
-13 14 -49 7 -66 -13 -9 -11 -23 -20 -32 -20 -8 0 -30 -9 -49 -19 -19 -11 -37
-17 -41 -13 -3 4 -11 -1 -17 -11 -7 -13 -17 -17 -32 -13 -12 3 -34 -1 -50 -9
-16 -8 -39 -15 -51 -15 -13 0 -25 -4 -27 -10 -1 -5 -36 -11 -77 -13 -47 -3
-76 -9 -81 -18 -5 -8 -24 -12 -47 -11 -196 8 -213 12 -213 58 0 30 36 63 61
57 10 -3 25 0 33 6 7 6 27 11 42 10 42 -2 163 18 177 29 7 6 40 16 75 22 34 7
62 17 62 21 0 5 14 9 31 9 71 0 175 24 202 46 15 13 34 21 41 18 8 -3 44 9 80
26 37 17 80 33 96 37 17 3 30 11 30 19 0 17 70 74 92 74 9 0 19 4 22 9 6 10
129 40 161 39 52 -1 163 11 185 21 14 6 54 29 88 51 35 22 68 37 73 34 5 -3 9
-1 9 3 0 9 76 30 143 40 20 3 37 9 37 13 0 7 16 14 42 19 3 0 9 -11 12 -26z
m-5223 -206 c-1 -12 -15 -9 -19 4 -3 6 1 10 8 8 6 -3 11 -8 11 -12z m119 -7
c0 -5 -9 -10 -21 -10 -11 0 -17 5 -14 10 3 6 13 10 21 10 8 0 14 -4 14 -10z
m50 -20 c0 -6 -5 -10 -11 -10 -6 0 -9 -7 -6 -15 4 -8 2 -17 -2 -20 -5 -3 -11
2 -15 10 -3 8 -15 14 -27 12 -29 -3 -36 21 -7 25 53 8 68 7 68 -2z m37 4 c-3
-3 -12 -4 -19 -1 -8 3 -5 6 6 6 11 1 17 -2 13 -5z m233 -4 c0 -5 -2 -10 -4
-10 -3 0 -8 5 -11 10 -3 6 -1 10 4 10 6 0 11 -4 11 -10z m-196 -33 c-8 -13
-12 -14 -28 -1 -17 12 -18 14 -3 14 9 0 17 5 17 12 0 9 3 9 11 1 7 -7 8 -17 3
-26z m-4794 7 c0 -11 -28 -33 -34 -27 -3 3 -12 0 -21 -7 -12 -10 -15 -10 -15
2 0 8 12 19 28 25 33 13 42 15 42 7z m600 -4 c0 -5 -5 -10 -11 -10 -5 0 -7 5
-4 10 3 6 8 10 11 10 2 0 4 -4 4 -10z m3440 -18 c0 -15 -2 -15 -10 -2 -13 20
-13 33 0 25 6 -3 10 -14 10 -23z m-2746 -14 c16 -11 -6 -10 -23 1 -8 5 -10 14
-5 22 6 10 9 10 12 -1 3 -8 10 -18 16 -22z m2314 10 c8 -7 12 -7 12 0 0 11 97
10 130 -1 8 -3 23 -8 33 -11 10 -3 16 -2 13 3 -3 5 4 11 15 14 15 4 23 0 26
-14 6 -22 14 -24 31 -7 7 7 12 8 12 2 0 -11 -42 -34 -62 -34 -7 0 -7 5 1 14 8
9 8 16 2 20 -5 4 -12 -3 -16 -14 -4 -11 -10 -18 -15 -15 -5 3 -11 -1 -13 -7
-3 -8 -6 -6 -6 5 -1 18 -31 25 -31 6 0 -5 -4 -7 -10 -4 -5 3 -10 1 -10 -4 0
-17 -30 -13 -36 4 -8 21 -24 19 -24 -2 0 -13 -9 -18 -31 -19 -16 -1 -41 -7
-55 -14 -18 -10 -27 -11 -36 -2 -9 9 -15 9 -26 0 -11 -10 -13 -8 -10 8 4 25
-33 31 -55 10 -19 -19 -34 -21 -19 -3 14 16 -1 42 -21 34 -12 -4 -12 -1 -3 20
10 21 16 24 48 20 21 -3 40 -2 42 2 6 9 99 1 114 -11z m332 2 c0 -19 -20 -27
-33 -13 -8 7 11 33 24 33 5 0 9 -9 9 -20z m-1560 0 c0 -5 -2 -10 -4 -10 -3 0
-8 5 -11 10 -3 6 -1 10 4 10 6 0 11 -4 11 -10z m-755 -9 c3 -5 2 -12 -3 -15
-5 -3 -9 1 -9 9 0 17 3 19 12 6z m660 -1 c3 -5 1 -10 -4 -10 -6 0 -11 5 -11
10 0 6 2 10 4 10 3 0 8 -4 11 -10z m45 -21 c0 -5 -7 -9 -15 -9 -15 0 -20 12
-9 23 8 8 24 -1 24 -14z m336 5 c-3 -9 -6 -18 -6 -20 0 -3 -4 -3 -10 1 -11 7
-2 35 12 35 6 0 7 -7 4 -16z m227 -17 c-3 -5 -10 -4 -15 1 -6 6 -7 16 -3 22 6
9 9 9 16 -1 4 -7 5 -17 2 -22z m-2423 19 c0 -3 -4 -8 -10 -11 -5 -3 -10 -1
-10 4 0 6 5 11 10 11 6 0 10 -2 10 -4z m1915 -6 c3 -5 -1 -10 -9 -10 -9 0 -16
5 -16 10 0 6 4 10 9 10 6 0 13 -4 16 -10z m858 4 c7 -8 -17 -34 -32 -34 -5 0
-9 9 -8 20 1 19 26 27 40 14z m-260 -10 c8 -9 -11 -44 -23 -44 -6 0 -10 11
-10 25 0 23 18 34 33 19z m381 -2 c6 -10 -3 -22 -29 -42 -18 -14 -19 -14 -7 1
7 9 10 24 6 33 -6 17 20 24 30 8z m-1124 -23 c0 -11 -4 -17 -10 -14 -5 3 -10
13 -10 21 0 8 5 14 10 14 6 0 10 -9 10 -21z m-943 -151 c-3 -8 -6 -5 -6 6 -1
11 2 17 5 13 3 -3 4 -12 1 -19z m-3070 -80 c-3 -8 -6 -5 -6 6 -1 11 2 17 5 13
3 -3 4 -12 1 -19z m143 18 c0 -3 -4 -8 -10 -11 -5 -3 -10 -1 -10 4 0 6 5 11
10 11 6 0 10 -2 10 -4z m4110 -6 c0 -5 -4 -10 -10 -10 -5 0 -10 5 -10 10 0 6
5 10 10 10 6 0 10 -4 10 -10z m6174 -75 c3 -8 2 -24 -2 -36 -7 -18 -10 -19
-21 -5 -13 15 -7 56 9 56 4 0 10 -7 14 -15z m-9879 -55 c3 -6 -4 -10 -17 -10
-18 0 -20 2 -8 10 19 12 18 12 25 0z m8809 -92 c3 2 11 0 18 -5 39 -30 271
-38 289 -10 4 6 17 4 35 -4 24 -12 30 -23 37 -67 9 -58 30 -72 79 -53 14 5 29
7 32 3 8 -7 232 -5 256 3 8 3 31 1 49 -5 19 -5 39 -6 45 -2 13 8 51 12 126 13
30 0 65 5 78 12 18 8 25 8 31 -1 5 -8 16 -9 38 -3 17 5 34 7 37 4 2 -3 9 -2
15 1 18 11 200 15 233 5 55 -17 156 -29 288 -34 69 -3 149 -10 179 -15 36 -7
75 -7 117 0 35 6 67 10 71 9 21 -4 43 2 56 15 12 12 18 11 45 -6 l32 -20 0
-121 c0 -67 -4 -129 -10 -137 -5 -9 -5 -19 2 -27 15 -18 2 -42 -21 -40 -24 1
-29 17 -6 17 27 0 14 48 -15 56 -36 10 -189 13 -195 5 -2 -4 -34 -9 -71 -10
-49 -2 -71 -7 -79 -18 -8 -10 -19 -14 -30 -9 -10 3 -23 2 -30 -4 -7 -6 -17
-10 -21 -9 -25 4 -44 -3 -44 -16 0 -8 -9 -15 -19 -15 -11 0 -23 -5 -26 -10 -5
-8 -11 -7 -21 1 -11 9 -14 9 -14 0 0 -7 -5 -9 -10 -6 -6 4 -8 15 -5 25 6 17
-2 18 -122 18 -70 -1 -142 2 -160 6 -52 12 -94 10 -104 -5 -7 -12 -9 -12 -9 0
0 11 -12 12 -62 6 -35 -4 -72 -7 -83 -7 -10 1 -25 -3 -31 -9 -9 -7 -15 -5 -23
8 -6 10 -11 12 -11 6 0 -9 -17 -13 -53 -13 -29 0 -58 -5 -65 -12 -8 -8 -15 -8
-27 2 -11 9 -19 10 -27 2 -6 -6 -32 -8 -64 -5 -31 3 -54 2 -54 -4 0 -5 -24 -8
-52 -6 -81 4 -131 3 -150 -3 -10 -3 -18 -2 -18 3 0 16 -62 34 -76 22 -14 -11
-59 9 -98 44 -15 13 -22 14 -28 5 -4 -7 -6 2 -3 20 2 19 1 40 -1 47 -6 15 -94
48 -116 44 -7 -2 -26 0 -43 4 -136 31 -235 8 -235 -53 0 -12 5 -18 10 -15 6 3
10 -4 10 -17 0 -17 -3 -19 -9 -10 -6 10 -11 5 -19 -18 -14 -40 2 -70 38 -70
14 0 31 -5 38 -12 9 -9 12 -9 12 0 0 14 111 8 162 -8 20 -6 28 -5 32 7 5 13 9
13 23 2 14 -12 17 -12 21 0 4 11 6 11 13 0 8 -11 12 -10 24 5 22 29 18 2 -5
-38 -23 -37 -41 -49 -65 -40 -8 4 -15 2 -15 -4 0 -14 -39 -3 -72 20 -18 12
-28 15 -28 8 0 -7 -8 -10 -20 -7 -11 3 -20 1 -20 -4 0 -6 -6 -9 -12 -8 -21 4
-78 -12 -78 -22 0 -5 -7 -9 -15 -9 -8 0 -15 5 -15 10 0 6 -7 10 -15 10 -8 0
-15 -4 -15 -10 0 -5 -5 -10 -11 -10 -5 0 -9 10 -7 23 3 20 -1 22 -50 25 -37 2
-62 -2 -79 -13 -13 -9 -30 -14 -36 -12 -7 2 -20 -3 -30 -11 -13 -12 -20 -13
-29 -4 -14 14 -32 16 -24 4 3 -5 -11 -10 -32 -12 -57 -5 -705 -2 -912 4 -102
3 -302 8 -445 12 -486 12 -1016 27 -1027 30 -5 1 -33 2 -63 3 -40 1 -55 5 -55
15 0 21 34 27 195 32 202 6 242 9 260 24 12 10 15 9 15 -6 0 -14 2 -16 9 -6 6
9 31 14 77 14 38 0 74 4 81 10 7 6 14 5 18 -2 9 -15 36 -12 57 7 18 16 18 16
12 -3 -7 -17 -6 -17 9 -6 9 8 22 10 28 6 7 -4 9 -3 6 4 -7 10 81 17 180 13 23
0 44 3 47 8 3 5 26 7 51 6 25 -2 47 1 51 6 3 5 13 5 24 -1 10 -6 21 -7 24 -2
2 4 35 7 73 6 37 -1 72 0 76 3 16 10 91 12 102 3 12 -10 30 -1 38 20 4 11 6
11 6 -4 1 -13 6 -16 19 -11 17 8 65 16 92 17 8 1 20 5 27 10 7 5 13 5 17 0 3
-6 24 -6 52 -1 25 5 50 6 55 3 5 -3 9 -1 9 4 0 5 18 10 41 10 22 1 47 6 55 13
10 8 18 9 22 3 4 -6 24 -11 45 -11 29 -1 37 2 33 13 -6 16 20 19 29 3 4 -6 14
-8 22 -5 8 3 63 8 122 12 140 7 141 7 157 29 13 18 14 18 14 1 0 -15 5 -17 33
-12 17 3 55 15 82 25 105 40 95 38 188 47 37 4 67 11 67 15 0 5 11 9 23 9 13
0 27 3 31 8 9 8 14 9 55 11 34 1 54 33 67 103 10 54 9 49 18 75 4 14 19 25 34
29 15 3 32 7 37 8 6 2 24 -1 42 -4 18 -4 34 -5 37 -2z m1998 -480 c31 3 37 0
32 -12 -3 -9 -16 -16 -29 -16 -13 0 -30 -10 -39 -25 -9 -14 -23 -25 -32 -25
-20 0 -29 27 -14 45 10 12 10 18 -1 31 -20 24 11 40 31 16 10 -12 26 -16 52
-14z m98 -3 c0 -19 -20 -29 -32 -17 -8 8 -7 16 2 26 14 17 30 12 30 -9z m-360
-45 c0 -5 -7 -10 -15 -10 -8 0 -15 5 -15 10 0 6 7 10 15 10 8 0 15 -4 15 -10z
m-4710 -10 c0 -5 -7 -10 -15 -10 -8 0 -15 5 -15 10 0 6 7 10 15 10 8 0 15 -4
15 -10z m4308 -12 c3 -15 -2 -17 -30 -11 -40 7 -42 9 -33 23 11 17 59 8 63
-12z m-79 -30 c24 -30 24 -30 3 -24 -12 3 -31 9 -42 12 -16 4 -20 0 -21 -18 0
-22 -1 -22 -8 -3 -5 12 -4 23 3 27 6 4 7 8 2 8 -5 0 -3 7 4 15 18 22 32 18 59
-17z m416 12 c3 -5 1 -10 -4 -10 -6 0 -11 5 -11 10 0 6 2 10 4 10 3 0 8 -4 11
-10z"/>
<path d="M5319 9658 c-5 -17 -4 -48 3 -48 4 0 8 -7 8 -16 0 -19 20 -14 34 9 8
13 6 21 -11 37 -20 18 -32 24 -34 18z"/>
<path d="M7281 9314 c0 -11 3 -14 6 -6 3 7 2 16 -1 19 -3 4 -6 -2 -5 -13z"/>
<path d="M7457 9323 c-4 -3 -7 -11 -7 -17 0 -6 5 -5 12 2 6 6 9 14 7 17 -3 3
-9 2 -12 -2z"/>
<path d="M7586 9284 c-8 -8 -20 -14 -27 -14 -7 0 -10 -3 -6 -6 13 -13 -22 -33
-59 -33 -113 0 -307 -21 -322 -35 -10 -8 -21 -16 -27 -17 -23 -5 -57 -34 -66
-56 -5 -13 -15 -23 -23 -23 -19 0 -28 -26 -13 -39 7 -5 14 -25 15 -43 6 -81
23 -153 41 -172 10 -12 22 -31 26 -44 3 -12 15 -27 26 -32 10 -6 19 -17 19
-25 0 -8 8 -15 18 -15 9 0 30 -11 45 -26 15 -14 32 -22 38 -19 5 4 17 1 26 -7
22 -18 79 -19 112 -2 14 8 31 14 37 14 6 0 19 9 29 20 10 11 23 20 29 20 20 1
53 35 72 75 10 22 24 46 32 54 13 14 13 77 -2 219 -4 47 1 50 35 24 13 -10 33
-22 44 -26 33 -12 85 -50 85 -63 0 -6 13 -19 29 -30 146 -94 134 -82 126 -127
-4 -23 -7 -49 -7 -58 1 -14 -3 -15 -24 -6 -28 13 -42 2 -83 -64 -23 -38 -23
-38 -2 -38 12 0 21 -5 21 -11 0 -5 4 -8 8 -5 5 3 21 -2 36 -9 26 -14 28 -13
33 5 3 11 9 20 13 20 5 0 6 -10 3 -21 -4 -16 -2 -20 8 -17 9 3 17 29 23 66 6
43 13 62 23 62 8 0 11 -4 8 -10 -3 -5 0 -10 8 -10 8 0 17 7 21 15 3 8 12 15
21 15 8 0 15 7 15 15 0 14 3 14 30 0 37 -19 60 -19 60 0 0 8 5 15 10 15 6 0
10 10 10 22 0 12 3 18 7 15 3 -4 12 2 20 12 14 20 8 51 -9 51 -19 0 -37 34
-26 47 11 13 2 17 -33 14 -9 -1 -19 5 -22 14 -4 8 -16 15 -27 15 -11 0 -23 6
-26 14 -3 8 -16 17 -29 20 -17 4 -22 11 -18 26 5 21 -11 28 -22 10 -4 -6 -12
-7 -18 -3 -7 4 -19 6 -29 5 -9 -2 -19 2 -23 8 -3 6 3 10 15 10 12 0 33 9 47
20 14 11 29 18 32 15 4 -2 5 10 3 27 l-5 31 -17 -24 -18 -23 -7 37 c-6 30 -11
37 -31 37 -35 0 -38 1 -51 12 -7 5 -21 7 -31 4 -13 -5 -22 -1 -26 10 -4 11
-13 14 -29 11 -12 -3 -30 0 -41 8 -11 8 -30 12 -46 8 -15 -3 -38 1 -51 8 -34
19 -47 19 -63 3z m144 -104 c0 -5 -7 -7 -15 -4 -8 4 -15 8 -15 10 0 2 7 4 15
4 8 0 15 -4 15 -10z m146 -77 c-10 -10 -19 5 -10 18 6 11 8 11 12 0 2 -7 1
-15 -2 -18z m-537 -112 c22 -14 4 -51 -25 -51 -26 0 -40 20 -30 45 6 16 33 20
55 6z"/>
<path d="M5340 9265 c0 -12 -5 -26 -12 -33 -9 -9 -9 -12 0 -12 7 0 12 4 12 9
0 5 7 11 16 13 13 3 13 5 0 23 -15 20 -15 20 -16 0z"/>
<path d="M3993 8900 c2 -28 37 -42 37 -16 0 9 -6 16 -14 16 -8 0 -17 6 -20 13
-3 6 -4 1 -3 -13z"/>
<path d="M3710 8845 c0 -8 5 -15 10 -15 6 0 10 7 10 15 0 8 -4 15 -10 15 -5 0
-10 -7 -10 -15z"/>
<path d="M4500 8606 c0 -2 7 -7 16 -10 8 -3 12 -2 9 4 -6 10 -25 14 -25 6z"/>
<path d="M4619 8544 c-9 -11 -7 -14 10 -14 13 0 25 -9 30 -22 l9 -23 10 25 c5
14 7 30 5 36 -6 16 -50 14 -64 -2z"/>
<path d="M4510 8521 c0 -6 5 -13 10 -16 6 -3 10 1 10 9 0 9 -4 16 -10 16 -5 0
-10 -4 -10 -9z"/>
<path d="M3760 8325 c0 -8 2 -15 4 -15 2 0 6 7 10 15 3 8 1 15 -4 15 -6 0 -10
-7 -10 -15z"/>
<path d="M8649 7860 c-1 -14 0 -35 1 -48 1 -13 -4 -29 -10 -37 -6 -8 -7 -16
-2 -19 12 -7 35 45 35 80 0 35 -23 57 -24 24z"/>
<path d="M8660 7750 c0 -5 5 -10 10 -10 6 0 10 5 10 10 0 6 -4 10 -10 10 -5 0
-10 -4 -10 -10z"/>
<path d="M8645 7639 c1 -75 10 -84 19 -19 5 36 3 54 -7 64 -11 11 -13 3 -12
-45z"/>
<path d="M8600 7626 c0 -9 7 -16 16 -16 9 0 14 5 12 12 -6 18 -28 21 -28 4z"/>
<path d="M8597 7503 c-11 -10 -8 -63 3 -63 6 0 10 6 10 13 0 6 3 22 6 35 6 21
-5 30 -19 15z"/>
<path d="M4083 7150 c-18 -28 -16 -44 3 -26 8 9 14 23 12 31 -2 13 -6 12 -15
-5z"/>
<path d="M5862 6490 c-7 -11 -18 -20 -25 -20 -7 0 -20 -9 -30 -20 -9 -11 -26
-20 -37 -20 -11 0 -20 -5 -20 -10 0 -10 -48 -35 -62 -32 -4 1 -12 -7 -18 -18
-6 -11 -16 -17 -25 -14 -9 4 -22 1 -30 -6 -8 -7 -15 -9 -15 -6 0 4 -7 0 -16
-9 -9 -9 -23 -14 -32 -10 -9 3 -21 -3 -29 -15 -11 -16 -24 -21 -52 -19 -69 5
-109 -48 -55 -73 18 -9 30 -9 43 -1 9 6 31 14 49 18 17 3 36 14 41 23 11 19
81 27 81 10 0 -6 10 -2 23 10 13 12 33 22 45 22 12 0 26 10 33 21 9 18 17 21
53 16 26 -4 47 -2 54 5 8 8 15 8 26 -1 20 -16 38 -5 31 19 -3 10 -1 21 5 25 5
3 10 -2 10 -13 0 -11 6 -24 13 -29 17 -13 57 -14 57 -1 0 6 22 8 55 6 46 -2
54 0 50 12 -3 10 -1 10 9 -2 17 -22 51 -24 42 -3 -3 8 -1 15 3 15 5 0 12 -7
15 -16 3 -8 11 -12 16 -9 6 4 18 1 27 -7 12 -9 15 -9 9 0 -4 6 -2 12 3 12 14
0 14 10 1 30 -8 13 -11 13 -19 1 -7 -11 -11 -10 -19 5 -5 11 -7 26 -5 34 3 11
2 12 -5 2 -14 -21 -43 -3 -36 23 3 13 1 26 -4 29 -5 3 -12 -3 -15 -14 -3 -11
-11 -20 -17 -20 -7 0 -10 8 -7 20 8 32 -8 32 -38 0 -31 -33 -50 -38 -58 -16
-3 8 -21 17 -39 21 -18 4 -42 16 -53 26 -20 18 -21 18 -33 -1z"/>
<path d="M6537 6503 c-4 -3 -7 -20 -7 -37 -1 -26 -2 -28 -11 -13 -14 24 -27
21 -31 -5 -3 -22 -22 -28 -24 -8 -1 6 -2 18 -3 28 -2 15 -3 14 -10 -3 -5 -11
-6 -24 -3 -29 3 -5 -7 -7 -22 -4 -20 4 -26 1 -26 -13 0 -12 5 -16 14 -13 9 3
16 -4 20 -21 7 -29 26 -25 26 6 0 25 16 25 23 -1 3 -13 14 -20 29 -20 13 0 29
-5 36 -12 13 -13 13 -13 16 44 2 34 13 45 28 30 7 -7 22 -12 35 -12 13 0 23
-6 23 -12 0 -9 4 -8 10 2 8 12 10 9 10 -14 0 -22 4 -27 16 -22 14 5 15 4 4 -9
-17 -20 -6 -19 14 1 15 14 17 13 27 -15 11 -32 29 -42 29 -16 0 8 5 15 10 15
6 0 10 -4 10 -10 0 -5 8 -9 18 -8 53 4 92 -3 92 -17 0 -14 24 -20 58 -16 8 1
19 -2 25 -7 23 -17 56 -20 61 -5 5 12 10 11 32 -6 30 -24 60 -27 67 -8 9 24
-14 47 -54 53 -21 4 -42 11 -45 16 -4 6 -10 5 -14 -3 -7 -10 -12 -10 -26 1
-20 18 -84 23 -84 8 0 -16 -13 -1 -16 18 -5 30 -14 45 -24 39 -5 -3 -25 5 -43
19 -39 30 -37 30 -74 14 -49 -20 -65 -18 -59 8 3 12 2 26 -4 29 -5 3 -10 1
-10 -4 0 -16 -16 -13 -34 5 -16 16 -20 12 -17 -18 3 -25 -15 -23 -22 2 -3 14
-10 18 -22 14 -11 -5 -18 0 -22 15 -5 21 -14 26 -26 14z m433 -167 c0 -3 -4
-8 -10 -11 -5 -3 -10 -1 -10 4 0 6 5 11 10 11 6 0 10 -2 10 -4z"/>
<path d="M6201 6458 c0 -7 4 -22 9 -33 8 -19 9 -19 9 3 1 12 1 25 2 29 0 4 -4
9 -10 11 -6 2 -11 -2 -10 -10z"/>
<path d="M6400 5790 c0 -13 18 -22 24 -11 3 5 -1 11 -9 15 -8 3 -15 1 -15 -4z"/>
<path d="M4260 5675 c-1 -5 -3 -20 -6 -32 -2 -13 1 -23 6 -23 17 0 23 27 11
47 -6 10 -11 14 -11 8z"/>
<path d="M4300 5521 c0 -6 5 -13 10 -16 6 -3 10 1 10 9 0 9 -4 16 -10 16 -5 0
-10 -4 -10 -9z"/>
<path d="M4690 5510 c0 -5 7 -10 16 -10 8 0 12 5 9 10 -3 6 -10 10 -16 10 -5
0 -9 -4 -9 -10z"/>
<path d="M3346 5462 c-3 -6 -1 -14 5 -17 15 -10 25 3 12 16 -7 7 -13 7 -17 1z"/>
<path d="M7720 5310 c0 -5 5 -10 11 -10 5 0 7 5 4 10 -3 6 -8 10 -11 10 -2 0
-4 -4 -4 -10z"/>
<path d="M7714 5264 c3 -9 6 -18 6 -20 0 -3 4 -3 10 1 11 7 2 35 -12 35 -6 0
-7 -7 -4 -16z"/>
<path d="M7720 5185 c0 -14 4 -25 8 -25 4 0 9 11 10 25 1 14 -3 25 -8 25 -6 0
-10 -11 -10 -25z"/>
<path d="M7632 5120 c0 -14 2 -19 5 -12 2 6 2 18 0 25 -3 6 -5 1 -5 -13z"/>
<path d="M4400 5115 c0 -8 5 -15 10 -15 6 0 10 7 10 15 0 8 -4 15 -10 15 -5 0
-10 -7 -10 -15z"/>
<path d="M7666 5089 c4 -8 -1 -9 -17 -4 -14 3 -19 3 -12 -2 6 -5 17 -21 22
-36 6 -16 15 -25 21 -22 18 11 8 75 -12 75 -5 0 -6 -5 -2 -11z"/>
<path d="M4494 5049 c-3 -6 -1 -16 5 -22 8 -8 11 -5 11 11 0 24 -5 28 -16 11z"/>
<path d="M4540 4988 c0 -11 5 -18 13 -16 18 7 20 35 2 35 -8 0 -15 -9 -15 -19z"/>
<path d="M7637 4948 c6 -11 43 -10 43 1 0 5 -11 8 -24 7 -13 0 -22 -4 -19 -8z"/>
<path d="M7715 4929 c-4 -12 -2 -26 4 -32 8 -8 11 -7 11 5 0 9 3 23 6 32 3 9
1 16 -4 16 -6 0 -14 -9 -17 -21z"/>
<path d="M7664 4899 c-3 -6 -1 -16 5 -22 8 -8 11 -5 11 11 0 24 -5 28 -16 11z"/>
<path d="M191 15364 c0 -11 3 -14 6 -6 3 7 2 16 -1 19 -3 4 -6 -2 -5 -13z"/>
<path d="M12092 3985 c0 -16 2 -22 5 -12 2 9 2 23 0 30 -3 6 -5 -1 -5 -18z"/>
<path d="M12107 3910 c-15 -21 -15 -132 -3 -800 3 -168 9 -728 12 -1245 4
-517 8 -942 10 -944 2 -2 4 674 4 1502 0 829 -2 1507 -4 1507 -3 0 -11 -9 -19
-20z"/>
<path d="M3 2825 c0 -22 2 -30 4 -17 2 12 2 30 0 40 -3 9 -5 -1 -4 -23z"/>
<path d="M1 2694 c0 -11 3 -14 6 -6 3 7 2 16 -1 19 -3 4 -6 -2 -5 -13z"/>
<path d="M2 1313 l-2 -1313 2212 0 c1216 0 2209 2 2207 4 -8 9 -181 16 -489
21 -323 5 -453 9 -830 25 -368 16 -693 29 -720 29 -14 -1 -101 2 -195 6 -211
7 -421 7 -457 -1 -17 -3 -28 -1 -28 5 0 14 -127 15 -135 1 -4 -6 -11 -8 -16
-4 -5 3 -7 8 -5 12 2 4 -44 7 -102 7 -59 -1 -120 2 -136 5 -16 3 -63 2 -105
-1 -42 -4 -81 -3 -87 2 -5 4 -20 6 -32 2 -14 -3 -22 -1 -22 7 0 9 -13 11 -45
8 -25 -3 -45 -2 -45 3 0 5 -10 9 -21 9 -16 0 -20 -5 -16 -20 6 -24 -8 -27 -21
-4 -11 20 -74 29 -102 14 -16 -9 -25 -8 -37 2 -23 19 -350 18 -387 -1 -24 -13
-28 -13 -39 4 -10 12 -29 18 -68 20 -86 4 -139 43 -130 98 0 4 -6 7 -15 7 -8
0 -12 5 -9 11 4 5 -1 19 -10 29 -14 15 -18 40 -20 112 -2 95 -8 200 -25 413
-5 66 -12 226 -15 355 -3 129 -8 255 -10 280 -5 46 -10 195 -21 595 -17 605
-21 473 -22 -742z"/>
<path d="M12121 844 c0 -11 3 -14 6 -6 3 7 2 16 -1 19 -3 4 -6 -2 -5 -13z"/>
<path d="M12121 744 c0 -11 3 -14 6 -6 3 7 2 16 -1 19 -3 4 -6 -2 -5 -13z"/>
<path d="M4513 3 c9 -2 23 -2 30 0 6 3 -1 5 -18 5 -16 0 -22 -2 -12 -5z"/>
<path d="M4593 3 c9 -2 23 -2 30 0 6 3 -1 5 -18 5 -16 0 -22 -2 -12 -5z"/>
</g>
</svg>
