<?xml version="1.0" standalone="no"?>
<!DOCTYPE svg PUBLIC "-//W3C//DTD SVG 20010904//EN"
 "http://www.w3.org/TR/2001/REC-SVG-20010904/DTD/svg10.dtd">
<svg version="1.0" xmlns="http://www.w3.org/2000/svg"
 width="413.000000pt" height="531.000000pt" viewBox="0 0 413.000000 531.000000"
 preserveAspectRatio="xMidYMid meet">

<g transform="translate(0.000000,531.000000) scale(0.100000,-0.100000)"
fill="#000000" stroke="none">
<path d="M0 2655 l0 -2655 2065 0 2065 0 0 2655 0 2655 -2065 0 -2065 0 0
-2655z m4120 260 c0 -1312 -2 -2385 -4 -2385 -2 0 -16 37 -31 82 -15 46 -60
147 -101 226 -41 79 -74 152 -74 163 0 34 -30 166 -46 205 -12 29 -18 34 -25
23 -12 -19 -11 -66 1 -74 6 -3 10 -12 9 -18 0 -9 -2 -9 -6 1 -8 21 -23 13 -23
-13 0 -13 -5 -36 -12 -50 -10 -21 -8 -28 10 -48 20 -21 40 -77 28 -77 -3 0
-15 19 -27 42 -21 41 -22 42 -30 20 -6 -17 -5 -28 6 -38 51 -51 16 -108 -109
-178 -76 -43 -91 -56 -128 -112 -36 -57 -58 -78 -58 -57 0 10 50 83 79 117 15
16 20 26 13 21 -10 -5 -13 -2 -10 11 2 11 13 20 25 22 12 2 27 9 33 17 9 11 7
12 -11 8 -13 -4 -20 -2 -16 4 4 5 -6 8 -24 5 -16 -2 -32 -9 -35 -14 -4 -6 2
-7 17 -3 24 8 24 8 5 -14 -11 -11 -26 -21 -34 -21 -9 0 -12 -6 -8 -17 4 -10 4
-14 0 -10 -4 4 -20 -11 -37 -34 -37 -50 -48 -43 -18 12 13 22 21 43 18 46 -3
2 -14 -10 -24 -29 l-18 -33 -3 124 c-2 105 0 127 14 142 10 11 22 19 27 19 20
0 47 -33 47 -57 0 -18 6 -23 24 -23 19 0 29 13 61 83 51 109 65 159 65 224 0
63 -33 169 -90 288 -33 69 -53 95 -122 159 -45 42 -86 76 -90 76 -5 0 -2 -13
6 -29 15 -29 23 -66 30 -151 5 -60 -35 -187 -77 -242 -18 -23 -56 -60 -84 -83
-28 -22 -52 -42 -52 -45 -1 -3 12 -11 28 -17 59 -22 78 -96 27 -109 -12 -3
-26 -15 -31 -27 -8 -17 -19 -22 -51 -23 -22 0 -45 -4 -51 -7 -13 -8 -37 -9
-114 -3 -53 4 -99 22 -99 38 0 13 -37 9 -112 -12 -79 -22 -206 -26 -273 -10
-22 6 -173 14 -335 19 -290 9 -297 10 -435 44 -302 76 -483 168 -705 359 -47
41 -103 84 -125 98 -22 13 -58 38 -80 55 -68 54 -227 123 -258 112 -13 -5 -4
-9 98 -47 101 -38 230 -145 319 -265 181 -244 230 -307 281 -365 136 -153 219
-328 234 -493 10 -108 6 -122 -65 -217 -71 -95 -96 -125 -197 -228 l-91 -92
-148 0 -149 0 17 23 c10 12 37 38 62 57 24 19 51 50 58 68 13 30 13 35 -6 62
-11 15 -20 31 -20 35 0 4 -16 33 -34 64 -19 31 -40 77 -47 102 l-12 44 74 95
c41 52 104 125 142 162 38 37 63 69 57 73 -20 13 -100 -60 -158 -145 -40 -58
-107 -130 -121 -130 -24 0 -8 26 47 79 33 31 76 80 96 108 21 29 57 67 82 84
24 18 41 36 38 40 -9 16 -40 -9 -113 -90 -40 -45 -95 -99 -122 -122 -43 -35
-49 -38 -49 -20 0 12 22 37 58 67 83 68 205 185 198 191 -3 3 -22 -9 -43 -26
-87 -72 -223 -181 -227 -181 -9 0 -26 131 -31 250 l-7 125 -59 58 c-32 33 -59
62 -59 66 0 4 25 31 55 61 49 48 70 90 46 90 -10 0 -78 -73 -103 -110 -19 -30
-7 -35 -183 85 -169 116 -172 117 -267 116 -74 -1 -86 -4 -138 -36 -32 -19
-63 -42 -70 -50 -7 -8 -16 -15 -21 -15 -5 0 -9 862 -9 2005 l0 2005 2055 0
2055 0 0 -2385z m-270 -1846 c6 -11 10 -27 8 -36 -2 -10 -9 -2 -20 21 -18 37
-7 52 12 15z m-533 -261 c-3 -7 -5 -2 -5 12 0 14 2 19 5 13 2 -7 2 -19 0 -25z
m-309 2 c18 -11 42 -20 53 -20 27 0 89 -62 89 -89 0 -24 -33 -61 -53 -61 -8 0
-19 -11 -25 -24 -11 -25 -69 -45 -90 -32 -6 3 -27 -1 -47 -10 -30 -12 -43 -13
-66 -4 -21 9 -36 9 -64 0 -33 -11 -40 -10 -66 9 -16 12 -29 17 -29 11 0 -21
-16 -8 -38 31 -27 46 -20 66 9 30 l19 -23 0 26 c0 15 10 37 23 49 12 13 28 35
34 50 7 15 18 27 25 28 7 0 35 2 61 4 36 2 52 8 63 24 19 27 59 27 102 1z
m469 -185 c-6 -25 -14 -45 -19 -45 -11 0 0 60 14 78 16 18 16 16 5 -33z
m-1520 -39 c20 -17 34 -21 48 -15 63 25 53 4 -74 -166 -120 -159 -148 -173
-212 -104 -21 22 -52 48 -70 57 -18 10 -42 30 -53 45 -18 24 -19 29 -6 37 8 5
27 10 42 10 17 0 31 8 38 20 13 24 61 50 93 50 19 0 26 7 30 29 12 59 111 82
164 37z m481 -69 c13 -25 22 -54 20 -64 -3 -13 -15 0 -46 47 -23 36 -42 71
-42 79 0 26 44 -14 68 -62z m-55 -39 c37 -51 70 -109 65 -114 -6 -6 -118 124
-118 137 0 20 30 7 53 -23z m1007 -79 c0 -22 -9 -62 -20 -90 -21 -56 -19 -69
10 -69 29 0 32 -15 6 -39 -19 -18 -30 -21 -60 -15 -34 6 -36 8 -21 23 21 24
19 34 -5 21 -11 -6 -20 -7 -20 -3 0 4 -5 0 -11 -9 -5 -10 -14 -18 -20 -18 -5
0 0 13 12 30 12 16 27 26 32 23 6 -3 7 -1 4 5 -10 15 3 43 16 35 6 -3 7 -1 3
5 -4 6 2 29 14 51 11 22 20 59 20 82 0 41 0 42 20 24 13 -12 20 -31 20 -56z
m-743 29 c-3 -8 -6 -5 -6 6 -1 11 2 17 5 13 3 -3 4 -12 1 -19z m243 2 c0 -5
-2 -10 -4 -10 -3 0 -8 5 -11 10 -3 6 -1 10 4 10 6 0 11 -4 11 -10z m367 -25
c12 -33 -36 -205 -58 -205 -13 0 -18 29 -6 34 9 3 8 7 -2 14 -10 7 -11 14 -2
31 7 13 8 21 2 21 -6 0 -15 -10 -22 -21 -9 -17 -8 -23 2 -30 12 -7 11 -11 -1
-19 -8 -5 -10 -10 -3 -10 6 0 9 -9 5 -22 -4 -17 -2 -20 11 -15 10 4 17 2 17
-3 0 -6 -3 -10 -7 -10 -5 0 -18 -3 -31 -6 -21 -6 -22 -4 -12 20 8 22 7 26 -9
26 -9 0 -28 -11 -41 -25 -13 -14 -35 -25 -49 -25 l-25 0 31 33 c29 31 93 121
93 130 0 3 9 26 20 51 17 40 23 46 50 46 18 0 33 -6 37 -15z m-1127 -25 c0 -5
-2 -10 -4 -10 -3 0 -8 5 -11 10 -3 6 -1 10 4 10 6 0 11 -4 11 -10z m129 -65
c46 -49 57 -75 31 -75 -11 0 -102 78 -113 96 -10 17 -1 34 17 34 7 0 37 -25
65 -55z m1054 30 c-5 -16 -33 -21 -33 -7 0 13 22 32 31 26 5 -2 6 -11 2 -19z
m-1158 -36 c40 -37 58 -69 38 -69 -15 0 -113 84 -113 96 0 25 30 14 75 -27z
m665 16 c35 -18 56 -76 46 -127 -7 -40 -65 -112 -107 -133 -36 -19 -73 -19
-89 0 -19 22 -8 140 19 199 33 76 70 93 131 61z m-297 -19 c41 -17 83 -66 95
-110 10 -35 1 -114 -14 -125 -5 -3 -10 -13 -12 -21 -7 -28 -24 -40 -60 -40
-41 0 -35 14 6 15 30 0 30 1 11 111 -15 85 -19 89 -64 74 -20 -7 -38 -17 -41
-24 -3 -7 2 -39 11 -71 8 -33 15 -70 15 -83 0 -21 -4 -23 -42 -20 -40 3 -44 6
-56 43 -31 94 -12 226 35 254 25 15 78 13 116 -3z m479 -13 c3 -73 -12 -120
-35 -106 -6 3 -7 1 -3 -6 4 -6 1 -14 -8 -17 -8 -3 -12 -12 -10 -19 3 -7 1 -16
-5 -20 -7 -3 -8 0 -5 9 9 23 -33 21 -45 -2 -5 -10 -19 -18 -31 -19 -18 -2 -19
1 -10 12 7 8 16 13 20 10 4 -3 7 1 6 8 0 6 17 49 39 94 32 67 44 83 63 83 17
0 22 -6 24 -27z m489 -6 c-10 -9 -11 -8 -5 6 3 10 9 15 12 12 3 -3 0 -11 -7
-18z m10 -40 c-13 -13 -26 -3 -16 12 3 6 11 8 17 5 6 -4 6 -10 -1 -17z m-16
-27 c-3 -5 -11 -10 -16 -10 -6 0 -7 5 -4 10 3 6 11 10 16 10 6 0 7 -4 4 -10z
m85 -24 c0 -30 -25 -57 -45 -50 -30 12 -8 74 25 74 14 0 20 -7 20 -24z m-1373
-41 l36 -36 -23 -24 c-31 -33 -57 -40 -86 -24 -21 11 -28 10 -52 -8 -15 -11
-26 -28 -26 -37 1 -13 -8 -16 -43 -16 l-46 0 5 45 c6 50 47 107 88 123 14 6
45 11 69 11 37 1 48 -4 78 -34z m1277 -8 c-1 -10 1 -16 4 -12 4 3 12 -9 18
-27 9 -29 16 -34 55 -38 54 -7 69 -15 69 -41 0 -18 -8 -19 -105 -19 -58 0
-105 2 -105 4 0 2 -5 27 -10 56 -8 44 -7 58 6 77 19 30 70 29 68 0z m-147 -69
l31 -63 -23 -3 c-14 -2 -32 5 -44 17 -22 22 -41 27 -41 12 0 -5 -8 -8 -17 -7
-10 0 -17 -4 -16 -10 2 -8 -45 -12 -155 -12 -131 0 -149 2 -109 10 40 9 47 13
42 29 -7 22 -2 24 23 8 15 -9 38 -5 113 21 52 18 105 39 119 46 40 21 45 18
77 -48z m-1029 -36 c21 -27 14 -32 -45 -31 -56 0 -57 1 -35 16 12 8 22 22 22
30 0 18 39 8 58 -15z m522 8 c0 -5 -4 -10 -10 -10 -5 0 -10 5 -10 10 0 6 5 10
10 10 6 0 10 -4 10 -10z m-1120 -30 c11 -7 3 -10 -30 -10 -33 0 -41 3 -30 10
19 12 41 12 60 0z"/>
<path d="M1860 5120 c-14 -5 -74 -19 -135 -30 -60 -12 -149 -34 -197 -51 -48
-16 -111 -34 -139 -39 -29 -6 -60 -17 -69 -25 -9 -8 -25 -15 -36 -15 -35 0
-205 -72 -268 -113 -54 -36 -110 -79 -187 -142 -44 -37 -174 -180 -185 -205
-7 -14 -23 -50 -37 -80 -48 -104 -61 -142 -59 -172 1 -17 -2 -35 -6 -42 -5 -6
-12 -24 -15 -41 -7 -43 -31 -101 -49 -122 -24 -29 -28 -49 -11 -72 13 -20 13
-26 -2 -58 -10 -20 -19 -64 -20 -97 -2 -34 -12 -97 -23 -141 -20 -74 -23 -165
-13 -295 2 -23 3 -24 12 -5 13 27 1 -240 -12 -283 -6 -18 -8 -41 -4 -50 3 -9
9 -37 12 -62 8 -70 28 -107 71 -134 22 -14 43 -30 47 -36 3 -5 20 -10 37 -10
21 0 31 -6 35 -20 7 -26 17 -25 35 2 16 24 38 17 38 -12 0 -24 16 -34 24 -15
14 38 76 34 76 -4 0 -10 7 -26 15 -37 12 -15 16 -16 24 -5 7 11 13 9 30 -8 11
-11 21 -29 21 -38 1 -10 7 -29 15 -43 14 -25 14 -24 8 10 -3 19 -6 51 -7 70 0
19 -4 37 -8 40 -4 3 -9 25 -10 48 -2 23 -7 42 -12 42 -4 0 -6 6 -3 14 3 8 -1
35 -9 61 -7 26 -16 62 -18 79 -2 17 -9 46 -14 63 -6 18 -12 56 -13 85 -1 29
-7 56 -13 60 -7 5 -7 8 2 8 7 0 10 5 7 10 -4 6 -2 16 3 23 6 7 11 17 12 22 6
24 15 41 29 52 13 10 14 12 1 13 -17 0 -2 17 31 34 12 6 24 17 27 25 3 9 0 11
-9 5 -11 -6 -12 -5 -2 8 7 8 10 17 7 21 -3 3 3 8 13 11 20 6 31 56 12 56 -5 0
-7 5 -4 10 4 6 11 7 17 4 6 -4 8 -2 4 4 -3 6 7 18 23 28 16 10 27 23 24 30 -3
8 8 21 26 31 17 10 31 22 31 26 0 5 -5 5 -11 2 -7 -5 -7 -2 0 11 34 62 56 137
38 131 -7 -2 -13 -13 -15 -25 -2 -12 -8 -22 -14 -22 -5 0 -7 -7 -4 -16 7 -18
-14 -62 -41 -86 -13 -12 -22 -14 -33 -7 -12 9 -12 10 3 5 13 -4 21 2 28 22 28
69 71 152 79 152 6 0 10 6 10 14 0 15 21 26 51 26 11 0 18 4 15 9 -9 13 13 26
79 46 33 9 69 23 80 30 19 12 83 24 132 26 13 1 20 5 17 10 -3 5 4 9 15 9 11
0 23 5 26 11 6 9 -22 8 -77 -3 -6 -2 -14 5 -16 15 -2 10 2 17 12 17 9 0 16 -6
16 -12 0 -10 2 -10 9 0 5 8 17 11 33 7 15 -4 29 -2 32 4 4 6 21 11 38 11 25 0
29 -3 23 -17 -5 -15 -4 -16 6 -5 7 6 28 12 47 12 l34 0 -22 -36 c-12 -19 -20
-37 -17 -40 3 -3 13 11 22 31 11 21 24 35 34 34 9 -1 23 -1 31 0 13 1 13 3 0
10 -8 6 -18 7 -23 4 -5 -3 -8 0 -6 6 3 7 8 12 12 11 5 -1 18 5 31 13 12 9 44
18 71 21 26 3 53 10 58 15 6 6 21 11 33 11 20 0 22 -3 14 -29 -7 -24 -5 -30
11 -34 18 -5 25 -29 19 -67 -1 -8 12 1 29 18 26 29 37 51 21 45 -3 -1 -14 -5
-25 -9 -19 -7 -19 -7 -2 13 22 26 64 35 89 20 19 -13 24 -33 9 -39 -6 -1 -12
-37 -15 -78 -5 -68 -4 -71 6 -30 13 56 39 90 86 113 31 14 32 16 10 12 -36 -7
-35 1 2 20 38 19 51 19 43 -2 -4 -11 -3 -14 5 -9 7 4 12 14 12 22 0 8 5 14 11
14 5 0 7 -5 3 -11 -3 -6 8 -3 25 6 17 9 36 13 41 10 5 -3 19 -1 30 5 13 7 20
7 20 1 0 -6 8 -7 17 -4 12 5 15 2 10 -10 -9 -25 20 -22 33 3 12 23 42 28 34 5
-4 -9 0 -15 10 -15 9 0 16 5 16 10 0 6 6 10 14 10 13 0 14 -34 2 -117 -2 -17
2 -23 15 -23 13 0 19 7 19 21 0 11 -4 18 -9 15 -5 -3 -3 13 4 37 10 35 17 43
40 45 27 3 28 2 21 -30 -4 -18 -10 -58 -12 -88 -4 -47 -3 -52 8 -35 7 11 13
30 14 43 0 12 4 26 9 30 9 8 -3 -137 -13 -153 -3 -5 -10 1 -14 15 -5 17 -5 12
-2 -15 3 -22 5 -45 6 -51 1 -6 7 -11 14 -11 16 0 29 30 16 35 -12 4 -3 42 8
42 5 0 10 10 13 23 3 20 4 20 12 4 4 -11 2 -35 -5 -57 -10 -32 -11 -42 0 -55
7 -8 10 -22 6 -30 -3 -8 -2 -15 2 -15 33 -1 37 -50 3 -50 -9 0 -3 -7 14 -16
40 -20 53 -34 34 -34 -8 0 -20 5 -27 12 -8 8 -12 8 -12 1 0 -6 7 -16 15 -23 8
-7 15 -18 14 -24 0 -6 -7 -1 -16 12 -22 31 -33 28 -23 -8 8 -28 7 -29 -21 -23
-19 4 -29 1 -29 -6 0 -8 -8 -10 -19 -6 -22 7 -88 -22 -95 -42 -3 -8 2 -13 14
-13 11 0 20 -5 20 -11 0 -6 9 -8 21 -4 18 6 20 4 14 -15 -5 -15 -3 -20 3 -16
6 4 20 -3 30 -14 17 -19 20 -19 26 -4 3 9 12 14 20 11 7 -3 19 0 25 6 8 8 11
8 11 -1 0 -6 7 -9 15 -6 8 4 15 1 15 -5 0 -6 5 -11 11 -11 5 0 7 5 4 10 -9 14
19 12 33 -2 21 -21 13 -34 -31 -56 -43 -21 -84 -21 -99 2 -5 7 -8 4 -8 -6 0
-11 -8 -18 -18 -18 -10 0 -22 -4 -27 -9 -6 -5 -33 -14 -60 -19 -71 -15 -96
-26 -130 -59 -16 -15 -41 -29 -55 -30 -45 -4 -68 -23 -79 -69 -15 -60 -14
-104 5 -139 17 -31 26 -135 12 -135 -21 0 8 -160 30 -168 7 -2 12 5 12 17 0
34 17 33 49 -4 26 -30 31 -44 31 -88 0 -49 1 -51 16 -29 39 55 20 129 -43 169
-29 18 -42 33 -40 44 1 4 -5 15 -14 25 -8 11 -15 24 -14 29 3 21 18 45 27 45
5 0 6 -5 3 -11 -4 -6 2 -5 13 2 19 12 19 14 4 26 -15 11 -15 12 6 8 12 -2 22
0 22 4 0 5 19 5 42 1 l41 -8 -46 44 c-44 42 -58 64 -38 64 4 0 19 -8 32 -19
36 -28 89 -53 141 -66 38 -11 62 -10 133 2 49 8 98 11 113 7 33 -9 55 -6 64 9
5 8 13 5 27 -8 12 -10 19 -20 17 -23 -3 -2 -1 -15 4 -27 6 -16 5 -25 -3 -28
-8 -2 -6 -12 7 -31 9 -15 15 -30 12 -34 -3 -3 1 -14 11 -24 13 -14 13 -18 2
-18 -10 -1 -9 -5 5 -15 10 -7 15 -19 11 -25 -3 -6 -3 -10 2 -9 21 4 33 -2 33
-17 0 -12 -3 -14 -13 -6 -10 8 -13 6 -13 -9 0 -10 4 -19 8 -19 4 0 5 -6 2 -14
-3 -8 -1 -17 5 -21 6 -3 11 -13 11 -21 0 -8 -4 -12 -10 -9 -6 4 -11 -6 -11
-22 -2 -36 -2 -35 7 -57 5 -14 4 -17 -4 -12 -7 4 -12 4 -13 -1 0 -4 -2 -35 -4
-69 -2 -33 -9 -74 -16 -90 -6 -16 -13 -43 -15 -60 -4 -43 -30 -104 -44 -104
-6 0 -9 -4 -6 -9 4 -5 -10 -25 -29 -45 -19 -20 -32 -36 -29 -36 4 0 0 -7 -7
-16 -7 -9 -14 -22 -15 -28 -3 -18 -52 -66 -68 -66 -8 0 -19 -7 -26 -15 -7 -8
-16 -13 -20 -10 -10 6 -116 -96 -124 -121 -12 -38 -124 -131 -193 -160 -50
-21 -222 -49 -291 -47 -79 2 -155 24 -254 74 -42 21 -123 57 -179 80 -56 22
-122 56 -148 74 -47 34 -99 60 -114 56 -13 -3 -69 39 -115 87 -23 25 -45 42
-49 38 -3 -3 -12 -1 -20 5 -9 8 -17 8 -25 1 -12 -9 -37 -15 -117 -29 -23 -4
-29 -8 -20 -14 10 -6 5 -9 -16 -9 -51 0 -104 -20 -141 -52 -37 -33 -78 -108
-65 -121 8 -8 72 4 149 27 23 8 42 12 42 10 0 -13 -70 -44 -97 -44 -40 0 -52
-17 -21 -29 29 -11 80 14 122 58 17 17 36 31 44 31 17 0 -88 -99 -105 -100
-17 0 -17 -16 0 -23 7 -3 37 19 66 49 30 30 60 54 68 54 8 0 35 -19 61 -43 96
-88 237 -203 255 -210 7 -3 -11 -25 -41 -52 -42 -38 -50 -50 -41 -61 10 -12
21 -6 65 36 29 27 56 50 60 50 4 0 46 -20 93 -44 267 -136 876 -195 1176 -115
128 35 259 127 308 218 46 84 67 156 57 192 -5 18 -7 36 -4 41 7 10 -29 42
-76 67 -19 10 -43 28 -52 38 -17 19 -25 72 -16 103 14 46 60 131 74 137 13 5
13 7 2 14 -10 7 -8 9 6 9 12 0 16 5 13 14 -3 8 -2 16 4 18 8 3 24 67 46 185 4
21 7 73 8 115 0 43 3 70 7 60 5 -14 7 -13 7 6 1 12 -4 22 -10 22 -8 0 -8 5 1
15 10 12 9 15 -4 15 -13 0 -11 6 10 25 15 14 29 25 30 25 2 0 4 -15 3 -32 0
-27 -2 -30 -9 -13 -5 13 -7 -5 -6 -50 0 -38 -3 -105 -7 -147 l-9 -77 39 36
c38 37 58 76 73 148 5 23 21 72 35 110 15 39 33 90 41 114 17 54 144 269 186
313 55 59 63 105 62 368 0 225 -1 239 -28 336 -23 86 -42 125 -119 253 -51 83
-114 189 -140 234 -27 46 -88 129 -136 185 -133 155 -506 502 -538 502 -9 0
-51 16 -93 35 -53 24 -103 38 -157 45 -120 14 -365 20 -393 10z m206 -1029
c-3 -5 -16 -11 -28 -14 -22 -6 -22 -5 -4 8 22 17 40 20 32 6z m-266 -21 c-18
-12 -43 -13 -36 -2 2 4 15 8 28 9 18 2 19 0 8 -7z m430 -4 c0 -11 -19 -15 -25
-6 -3 5 1 10 9 10 9 0 16 -2 16 -4z m-605 -46 c-3 -5 -11 -10 -16 -10 -6 0 -7
5 -4 10 3 6 11 10 16 10 6 0 7 -4 4 -10z m-318 -36 c-3 -3 -12 -4 -19 -1 -8 3
-5 6 6 6 11 1 17 -2 13 -5z m80 -20 c-3 -3 -12 -4 -19 -1 -8 3 -5 6 6 6 11 1
17 -2 13 -5z m-77 -24 c0 -5 -15 -10 -32 -10 -25 0 -29 3 -18 10 20 13 50 13
50 0z m47 4 c-3 -3 -12 -4 -19 -1 -8 3 -5 6 6 6 11 1 17 -2 13 -5z m-157 -34
c-18 -12 -43 -13 -36 -2 2 4 15 8 28 9 18 2 19 0 8 -7z m75 1 c-14 -14 -73
-26 -60 -13 6 6 21 12 35 15 14 2 27 5 30 6 2 0 0 -3 -5 -8z m-80 -31 c-3 -5
-15 -10 -25 -10 -10 0 -31 -11 -46 -25 -31 -29 -49 -33 -35 -7 11 20 45 39 81
45 14 2 26 5 28 6 2 0 0 -3 -3 -9z m-145 -55 c0 -14 -52 -85 -62 -85 -7 0 -6
6 3 18 8 9 21 29 29 45 12 23 30 37 30 22z m1631 -202 c13 -15 12 -15 -6 -6
-11 6 -27 13 -35 16 -10 4 -8 6 6 6 12 1 28 -6 35 -16z m-42 -404 c43 -15 67
-61 51 -98 -12 -31 -57 -61 -90 -61 -20 0 -20 1 -6 22 9 12 16 41 16 63 0 22
-7 51 -16 63 -18 26 -7 29 45 11z m-352 -31 c-3 -8 -6 -5 -6 6 -1 11 2 17 5
13 3 -3 4 -12 1 -19z m193 -38 c0 -5 -5 -10 -11 -10 -5 0 -7 5 -4 10 3 6 8 10
11 10 2 0 4 -4 4 -10z m265 0 c3 -5 -3 -10 -14 -10 -12 0 -21 5 -21 10 0 6 6
10 14 10 8 0 18 -4 21 -10z m-385 -15 c0 -9 7 -29 15 -45 17 -32 5 -43 -32
-29 -26 9 -30 38 -11 69 15 24 28 26 28 5z m630 -25 c6 0 10 -9 10 -20 0 -11
-5 -20 -11 -20 -6 0 -9 -7 -6 -15 4 -8 2 -17 -3 -20 -6 -4 -10 0 -11 7 0 7 -4
4 -9 -7 -7 -17 -9 -17 -9 -2 -1 15 -12 22 -33 18 -12 -2 -10 17 2 24 6 4 8 10
5 15 -3 5 0 21 5 36 l11 27 20 -21 c11 -12 24 -22 29 -22z m-569 -86 c38 -6
49 -17 29 -29 -11 -7 -100 30 -100 41 0 3 7 3 16 0 9 -3 33 -9 55 -12z m351
-56 c-7 -7 -12 -8 -12 -2 0 6 3 14 7 17 3 4 9 5 12 2 2 -3 -1 -11 -7 -17z
m176 -393 c-3 -3 -9 2 -12 12 -6 14 -5 15 5 6 7 -7 10 -15 7 -18z m-118 -409
c0 -3 -4 -8 -10 -11 -5 -3 -10 -1 -10 4 0 6 5 11 10 11 6 0 10 -2 10 -4z
m-1874 -202 c-4 -9 -1 -23 5 -30 9 -11 3 -18 -32 -34 -24 -11 -56 -20 -71 -20
-15 0 -39 -5 -54 -10 -50 -19 -43 -1 29 72 33 33 44 38 83 38 39 0 45 -3 40
-16z m769 -270 c22 -8 51 -17 65 -19 14 -2 61 -14 105 -25 44 -11 95 -22 113
-24 72 -8 42 -17 -41 -13 -56 2 -92 9 -97 16 -4 7 -28 14 -54 15 -26 1 -54 9
-65 18 -10 9 -25 16 -33 15 -31 -1 -46 4 -52 18 -7 19 8 18 59 -1z"/>
<path d="M2244 4035 c-10 -8 -14 -15 -8 -15 6 0 17 7 24 15 16 19 9 19 -16 0z"/>
<path d="M2420 4020 c0 -5 5 -10 10 -10 6 0 10 5 10 10 0 6 -4 10 -10 10 -5 0
-10 -4 -10 -10z"/>
<path d="M2506 4005 c-3 -8 -1 -15 3 -15 5 0 11 7 15 15 3 8 1 15 -3 15 -5 0
-11 -7 -15 -15z"/>
<path d="M1886 3985 c-11 -8 -15 -15 -9 -15 6 0 16 7 23 15 16 19 11 19 -14 0z"/>
<path d="M1478 3933 c6 -2 18 -2 25 0 6 3 1 5 -13 5 -14 0 -19 -2 -12 -5z"/>
<path d="M1545 3930 c-3 -5 -1 -10 4 -10 6 0 11 5 11 10 0 6 -2 10 -4 10 -3 0
-8 -4 -11 -10z"/>
<path d="M2455 3899 c-4 -6 -5 -12 -2 -15 2 -3 7 2 10 11 7 17 1 20 -8 4z"/>
<path d="M2551 3714 c0 -11 3 -14 6 -6 3 7 2 16 -1 19 -3 4 -6 -2 -5 -13z"/>
<path d="M2590 3670 c0 -5 5 -10 10 -10 6 0 10 5 10 10 0 6 -4 10 -10 10 -5 0
-10 -4 -10 -10z"/>
<path d="M2228 3553 c6 -2 18 -2 25 0 6 3 1 5 -13 5 -14 0 -19 -2 -12 -5z"/>
<path d="M2293 3548 c-2 -5 10 -8 26 -8 17 0 31 3 31 8 0 4 -12 7 -26 7 -14 0
-28 -3 -31 -7z"/>
<path d="M2450 3540 c-15 -5 -18 -8 -8 -9 9 -1 25 -4 35 -7 14 -5 15 -4 4 4
-11 8 -7 11 20 15 31 3 31 4 4 4 -16 1 -41 -3 -55 -7z"/>
<path d="M2424 3505 c-16 -12 -16 -14 -3 -15 9 0 22 7 29 15 16 19 0 19 -26 0z"/>
<path d="M1055 3409 c-4 -5 -1 -9 5 -9 6 0 8 -5 3 -12 -11 -19 -12 -37 -2 -44
5 -3 9 5 9 17 0 12 7 30 15 39 13 14 12 16 -5 17 -11 1 -22 -2 -25 -8z"/>
<path d="M2462 3404 c2 -11 -3 -19 -11 -19 -20 0 -25 -21 -7 -28 8 -3 21 3 29
16 12 19 12 24 0 36 -12 11 -14 10 -11 -5z"/>
<path d="M1387 3384 c-3 -3 -20 -9 -39 -13 -18 -5 -44 -11 -58 -15 -18 -5 -21
-5 -10 3 24 16 2 25 -27 11 -16 -7 -32 -13 -36 -12 -4 1 -10 -5 -13 -13 -4 -8
-14 -15 -23 -15 -9 0 -29 -7 -45 -15 -33 -18 -50 -5 -40 29 4 12 2 16 -5 12
-6 -4 -11 -15 -11 -25 0 -10 -7 -24 -15 -31 -8 -7 -15 -20 -15 -29 0 -9 -6
-23 -12 -29 -7 -7 -13 -16 -13 -20 0 -4 -9 -20 -19 -35 -10 -15 -17 -30 -14
-32 6 -7 82 18 90 29 4 6 4 14 2 18 -3 4 2 5 10 2 8 -3 27 2 43 10 l28 16 -30
-5 c-23 -4 -21 -2 11 10 22 9 50 23 60 33 24 21 29 22 132 33 46 5 91 15 100
21 27 21 25 38 -5 38 l-28 1 30 14 30 13 -36 1 c-20 1 -38 -2 -42 -5z"/>
<path d="M2366 3374 c-8 -21 -4 -25 14 -14 11 7 12 12 4 20 -8 8 -13 7 -18 -6z"/>
<path d="M1476 3203 c-1 -2 -16 -5 -32 -7 -58 -9 -120 -30 -149 -50 -41 -28
-85 -72 -79 -79 3 -3 -4 -8 -15 -12 -12 -4 -21 -15 -21 -27 0 -15 -5 -19 -17
-14 -17 6 -17 5 -1 -7 15 -12 15 -14 0 -24 -15 -10 -13 -12 10 -12 23 -1 27
-5 25 -23 -1 -14 4 -23 13 -23 8 0 26 -7 40 -14 31 -18 75 -25 176 -29 55 -2
50 -22 -6 -22 -21 0 -42 -5 -46 -12 -5 -8 2 -9 26 -5 18 4 48 7 66 7 27 0 32
3 28 18 -5 13 -4 14 4 3 12 -16 72 -8 119 17 46 25 153 115 153 130 0 6 6 12
14 12 21 0 3 66 -26 97 -28 31 -82 59 -129 68 -37 7 -148 12 -153 8z m184 -81
c42 -28 85 -76 86 -94 2 -24 -12 -33 -68 -47 -62 -15 -61 -15 -43 19 8 16 15
41 15 55 0 14 -7 39 -15 55 -18 34 -11 37 25 12z m-260 -71 c0 -15 11 -45 25
-65 14 -21 19 -36 12 -36 -18 0 -154 49 -139 49 8 1 30 19 49 41 43 47 53 50
53 11z m377 7 c-3 -8 -6 -5 -6 6 -1 11 2 17 5 13 3 -3 4 -12 1 -19z m-92 -107
c-18 -17 -80 -48 -110 -55 -28 -7 -29 -7 -10 8 20 15 20 15 -2 9 -13 -3 -23
-9 -23 -14 0 -5 -5 -9 -11 -9 -5 0 -8 4 -5 9 4 5 1 11 -6 13 -6 2 22 14 63 25
83 23 118 28 104 14z"/>
<path d="M2800 2916 c0 -2 7 -9 15 -16 13 -11 14 -10 9 4 -5 14 -24 23 -24 12z"/>
<path d="M2198 2573 c7 -3 16 -2 19 1 4 3 -2 6 -13 5 -11 0 -14 -3 -6 -6z"/>
<path d="M877 2542 c-35 -3 -38 -6 -33 -25 3 -12 6 -25 6 -29 0 -5 9 1 21 13
13 13 27 18 40 14 13 -4 19 -2 19 9 0 19 -7 22 -53 18z"/>
<path d="M920 2441 c0 -6 -7 -11 -15 -11 -23 0 -17 -14 12 -27 31 -15 32 -14
35 17 2 16 -3 25 -14 28 -10 2 -18 -1 -18 -7z"/>
<path d="M860 2395 c0 -8 4 -15 10 -15 5 0 7 7 4 15 -4 8 -8 15 -10 15 -2 0
-4 -7 -4 -15z"/>
<path d="M2425 2323 c-11 -3 -25 -12 -31 -21 -6 -8 -17 -13 -25 -10 -8 3 -18
6 -23 6 -5 0 -13 6 -17 14 -7 10 -9 10 -9 -2 0 -13 -1 -13 -10 0 -7 10 -10 11
-10 2 0 -9 -11 -10 -41 -6 -30 5 -43 3 -50 -7 -5 -9 -9 -10 -9 -2 0 17 -24 10
-63 -20 -33 -25 -44 -27 -159 -32 -68 -3 -138 -10 -156 -16 -19 -6 -59 -9 -89
-6 -88 8 -109 -7 -119 -88 -3 -22 -7 -46 -10 -54 -8 -26 33 17 49 51 l14 30
37 -32 c42 -38 56 -35 25 3 -11 15 -16 27 -11 27 6 0 19 3 29 6 13 4 14 3 5
-3 -9 -7 9 -16 60 -31 83 -25 107 -27 163 -10 l40 12 -30 5 c-31 6 -41 26 -26
49 12 20 85 33 129 24 21 -5 53 -7 70 -4 17 2 40 1 49 -3 16 -6 15 -8 -7 -20
-14 -8 -35 -14 -48 -15 -13 0 -21 -4 -17 -9 3 -5 21 -7 41 -4 25 4 39 2 45 -8
6 -10 11 -11 19 -3 6 6 29 9 51 7 33 -4 38 -2 33 11 -7 19 -3 20 31 4 23 -10
24 -13 9 -29 -9 -10 -22 -15 -30 -12 -8 3 -14 -1 -14 -10 0 -8 -9 -26 -20 -40
-11 -14 -20 -28 -20 -31 0 -14 31 -4 57 18 15 13 44 33 64 44 63 35 79 47 79
56 0 5 10 25 23 43 19 28 26 32 51 27 l28 -6 -18 32 c-40 67 -69 80 -139 63z
m-305 -93 c0 -5 -7 -10 -16 -10 -8 0 -12 5 -9 10 3 6 10 10 16 10 5 0 9 -4 9
-10z m155 -19 c-3 -6 -11 -8 -17 -5 -6 4 -5 9 3 15 16 10 23 4 14 -10z m-580
-30 c-3 -6 -14 -11 -23 -11 -15 1 -15 2 2 15 21 16 32 13 21 -4z m122 13 c-3
-3 -12 -4 -19 -1 -8 3 -5 6 6 6 11 1 17 -2 13 -5z m578 -14 c3 -5 2 -10 -4
-10 -5 0 -13 5 -16 10 -3 6 -2 10 4 10 5 0 13 -4 16 -10z"/>
<path d="M2025 2140 c-4 -6 5 -10 20 -10 15 0 24 4 20 10 -3 6 -12 10 -20 10
-8 0 -17 -4 -20 -10z"/>
<path d="M728 1933 c-22 -26 -77 -140 -71 -147 16 -15 43 30 78 127 16 42 15
45 -7 20z"/>
<path d="M3075 1833 c8 -44 38 -78 79 -87 l29 -7 -19 29 c-24 38 -66 86 -82
96 -10 6 -12 0 -7 -31z"/>
<path d="M620 1835 c-7 -9 -10 -18 -7 -21 3 -3 10 4 17 15 13 25 8 27 -10 6z"/>
<path d="M3034 1461 c-23 -10 -65 -22 -95 -26 -194 -24 -459 -71 -544 -95 -55
-15 -125 -33 -155 -40 -77 -18 -231 -80 -224 -91 7 -12 74 -12 74 0 0 13 95
49 175 66 39 8 102 24 140 35 66 19 247 51 483 85 57 8 121 24 142 35 22 11
54 21 72 23 17 1 33 8 36 15 6 19 -56 15 -104 -7z"/>
<path d="M3045 1413 c-29 -16 -187 -48 -385 -78 -52 -8 -115 -19 -140 -24
-116 -24 -308 -70 -339 -82 -30 -11 -32 -13 -15 -19 21 -8 78 -3 109 10 36 15
238 59 340 75 56 8 148 23 205 34 58 11 126 23 152 27 33 4 58 16 85 40 41 36
36 43 -12 17z"/>
<path d="M2860 1314 c-36 -7 -126 -23 -200 -35 -147 -22 -330 -66 -290 -69 14
-2 36 -4 50 -6 14 -2 48 3 75 11 28 8 122 26 210 39 107 15 174 30 203 45 68
35 57 38 -48 15z"/>
<path d="M3670 850 c-9 -6 -10 -10 -3 -10 6 0 15 5 18 10 8 12 4 12 -15 0z"/>
<path d="M1067 267 c-4 -10 -7 -28 -7 -40 1 -20 2 -20 11 -4 6 10 9 28 7 40
-3 20 -4 20 -11 4z"/>
<path d="M2746 242 c-7 -13 -28 -134 -23 -139 10 -9 69 -14 64 -6 -3 5 0 27 8
49 8 21 14 54 15 72 0 29 -3 32 -29 32 -17 0 -32 -3 -35 -8z"/>
<path d="M2948 234 c-5 -4 -8 -16 -8 -28 0 -14 3 -17 11 -9 6 6 9 19 7 28 -1
9 -6 13 -10 9z"/>
</g>
</svg>
