<?xml version="1.0" standalone="no"?>
<!DOCTYPE svg PUBLIC "-//W3C//DTD SVG 20010904//EN"
 "http://www.w3.org/TR/2001/REC-SVG-20010904/DTD/svg10.dtd">
<svg version="1.0" xmlns="http://www.w3.org/2000/svg"
 width="401.000000pt" height="404.000000pt" viewBox="0 0 401.000000 404.000000"
 preserveAspectRatio="xMidYMid meet">

<g transform="translate(0.000000,404.000000) scale(0.100000,-0.100000)"
fill="#000000" stroke="none">
<path d="M1975 3923 c-60 -3 -222 -24 -345 -45 -106 -18 -300 -100 -370 -156
-69 -56 -83 -71 -145 -156 -41 -56 -51 -74 -32 -60 15 10 27 22 27 27 0 4 23
31 51 60 67 68 48 32 -30 -58 -34 -38 -61 -73 -61 -77 0 -5 -7 -8 -15 -8 -8 0
-15 -4 -15 -9 0 -5 -6 -16 -13 -23 -48 -48 -144 -245 -133 -273 2 -7 -2 -21
-9 -32 -8 -10 -14 -42 -15 -74 0 -31 -7 -76 -15 -99 -22 -61 -19 -316 4 -460
6 -36 11 -92 11 -125 0 -41 7 -74 20 -100 11 -22 18 -46 15 -54 -9 -23 25 -51
62 -51 18 0 32 -3 31 -7 -3 -16 15 -63 24 -63 5 0 6 -5 3 -10 -4 -6 7 -26 24
-46 17 -19 31 -40 31 -45 0 -14 59 -89 70 -89 10 0 8 16 -7 55 -7 17 -24 84
-38 150 -14 65 -31 125 -36 131 -6 7 -8 27 -5 46 3 18 8 65 11 103 3 39 10 71
15 73 5 2 6 10 3 18 -3 9 0 12 9 9 9 -4 18 6 27 30 7 19 17 35 22 35 6 0 7 5
4 10 -3 6 -1 10 6 10 7 0 10 3 7 6 -3 3 10 20 29 39 19 18 36 39 37 47 2 7 6
20 9 28 4 8 8 24 10 35 2 11 11 34 20 51 9 17 14 34 10 37 -3 3 4 18 16 33 11
15 21 32 21 39 0 6 17 21 38 33 21 11 46 30 57 42 10 11 24 20 32 20 7 0 13 5
13 11 0 5 4 8 8 5 11 -6 75 16 96 33 9 7 16 10 16 6 0 -5 9 0 20 10 11 10 20
14 20 10 0 -5 5 -4 12 3 7 7 19 12 27 12 14 0 14 -1 1 -10 -11 -7 -5 -10 23
-10 20 0 37 4 37 8 0 5 7 9 15 9 8 0 12 -4 9 -9 -15 -25 98 19 117 46 4 4 9 2
11 -5 3 -9 17 -6 52 14 27 15 55 27 62 27 8 0 14 4 14 9 0 12 33 24 78 29 7 1
11 6 8 10 -7 12 31 52 49 52 8 0 15 5 15 11 0 6 9 8 20 4 15 -5 20 -2 20 13 0
21 51 49 69 37 6 -3 11 -1 11 4 0 8 7 7 20 -1 13 -9 16 -15 7 -20 -8 -5 -5 -9
8 -13 11 -4 30 -12 42 -18 13 -6 26 -7 30 -4 9 9 33 -12 33 -29 0 -8 -7 -14
-15 -14 -39 0 12 -39 53 -41 14 0 13 -2 -3 -9 -19 -8 -19 -9 2 -9 34 -1 52
-11 47 -26 -4 -9 14 -16 62 -24 37 -7 77 -19 88 -27 22 -15 40 -19 32 -6 -2 4
4 8 14 8 10 0 17 -4 14 -7 -6 -10 37 -40 48 -33 4 3 5 -1 2 -9 -5 -15 20 -47
37 -47 16 0 23 -51 8 -60 -11 -7 -9 -21 9 -73 24 -70 27 -97 13 -97 -5 0 -7
-17 -5 -37 2 -21 5 -44 6 -50 1 -7 5 -13 10 -13 5 0 7 -4 4 -8 -3 -5 6 -25 19
-45 14 -20 25 -41 25 -46 0 -6 4 -11 9 -11 5 0 19 -24 31 -54 38 -96 27 -264
-36 -506 -16 -64 -22 -95 -20 -98 5 -4 46 63 46 74 0 5 18 31 40 58 22 26 40
52 40 56 0 5 20 21 45 37 46 29 56 43 30 43 -8 0 -15 4 -15 10 0 5 7 7 15 3 9
-3 15 -2 14 3 -2 5 4 34 13 64 9 30 26 107 38 171 19 98 21 139 17 275 -3 87
-8 175 -12 194 -18 95 -47 199 -73 267 -11 29 -17 54 -14 57 3 4 0 6 -7 6 -7
0 -10 4 -7 8 3 5 -6 32 -20 61 -13 29 -24 59 -24 67 0 8 -4 14 -10 14 -5 0
-10 7 -10 15 0 9 -17 42 -38 73 -21 32 -41 65 -44 74 -13 33 -171 138 -207
138 -6 0 -11 4 -11 10 0 5 -16 16 -35 25 -19 8 -51 22 -70 31 -20 8 -58 35
-85 59 -27 24 -59 46 -71 50 -12 4 -43 22 -69 41 -25 18 -66 38 -90 45 -54 14
-192 25 -275 22z m-71 -218 c-4 -9 -17 -15 -33 -14 -20 1 -22 2 -6 6 11 3 24
9 30 14 13 13 15 11 9 -6z m-360 -54 c-10 -10 -23 -16 -28 -13 -5 3 2 11 15
18 33 18 36 17 13 -5z m-174 -45 c0 -3 -4 -8 -10 -11 -5 -3 -10 -1 -10 4 0 6
5 11 10 11 6 0 10 -2 10 -4z m55 -6 c3 -5 1 -10 -4 -10 -6 0 -11 5 -11 10 0 6
2 10 4 10 3 0 8 -4 11 -10z m340 -20 c-3 -5 -14 -10 -23 -9 -14 0 -13 2 3 9
27 11 27 11 20 0z m-34 -27 c13 -15 12 -15 -8 -4 -24 12 -29 21 -14 21 5 0 15
-7 22 -17z m-486 -83 c-28 -31 -10 -36 25 -6 36 29 41 31 58 14 15 -15 15 -28
1 -28 -5 0 -8 4 -4 9 9 15 -16 24 -28 11 -9 -10 -9 -11 1 -6 7 4 12 1 12 -8 0
-8 -9 -20 -20 -26 -11 -6 -20 -8 -20 -4 0 4 -8 0 -17 -8 -35 -30 -46 -32 -31
-8 11 19 11 23 0 27 -10 4 -8 11 9 29 27 29 40 32 14 4z m-114 -53 c-10 -9
-11 -8 -5 6 3 10 9 15 12 12 3 -3 0 -11 -7 -18z m1232 5 c19 -21 9 -46 -13
-32 -8 5 -11 12 -7 16 4 4 2 13 -4 21 -17 20 5 16 24 -5z m-463 -12 c0 -5 -4
-10 -10 -10 -5 0 -10 5 -10 10 0 6 5 10 10 10 6 0 10 -4 10 -10z m-761 -62
c-11 -21 -11 -22 4 -9 22 17 22 7 0 -30 -18 -30 -37 -40 -27 -14 4 9 0 15 -7
15 -10 0 -10 3 -3 8 6 4 16 17 23 30 6 12 14 22 17 22 2 0 -1 -10 -7 -22z
m818 16 c-3 -3 -12 -4 -19 -1 -8 3 -5 6 6 6 11 1 17 -2 13 -5z m-520 -20 c-3
-3 -12 -4 -19 -1 -8 3 -5 6 6 6 11 1 17 -2 13 -5z m-347 -8 c0 -2 -8 -10 -17
-17 -16 -13 -17 -12 -4 4 13 16 21 21 21 13z m1901 -99 c15 -11 15 -17 4 -42
-11 -25 -21 -21 -16 8 0 4 -3 7 -9 7 -5 0 -10 9 -10 20 0 23 8 25 31 7z
m-1246 -17 c3 -5 1 -10 -4 -10 -6 0 -11 5 -11 10 0 6 2 10 4 10 3 0 8 -4 11
-10z m1278 -44 c4 -10 1 -13 -9 -9 -7 3 -14 9 -14 14 0 14 17 10 23 -5z m-113
-20 c0 -3 -4 -8 -10 -11 -5 -3 -10 -1 -10 4 0 6 5 11 10 11 6 0 10 -2 10 -4z
m26 -33 c-3 -4 -6 -1 -6 6 0 7 -4 9 -10 6 -6 -4 -7 1 -3 11 6 15 7 15 15 -1 6
-9 7 -19 4 -22z"/>
<path d="M1515 2302 c-63 -27 -123 -61 -130 -72 -13 -21 33 -8 88 25 32 19 60
35 63 35 3 0 2 -15 -1 -33 -5 -24 -1 -41 17 -67 20 -29 30 -35 66 -38 61 -5
92 29 92 97 0 27 -5 53 -11 56 -6 4 -40 9 -77 11 -49 3 -78 -1 -107 -14z m105
-57 c0 -8 -4 -15 -10 -15 -5 0 -10 7 -10 15 0 8 5 15 10 15 6 0 10 -7 10 -15z
m40 -10 c0 -8 -4 -15 -10 -15 -5 0 -10 7 -10 15 0 8 5 15 10 15 6 0 10 -7 10
-15z"/>
<path d="M2411 2261 c-37 -13 -45 -21 -48 -45 -6 -42 4 -72 29 -96 26 -24 90
-27 112 -5 19 19 30 76 22 110 -4 14 -4 25 -1 25 15 0 53 -26 92 -61 40 -37
63 -48 63 -31 -1 32 -105 101 -163 108 -23 3 -47 7 -52 8 -6 2 -30 -4 -54 -13z
m19 -67 c0 -10 -7 -14 -22 -12 -15 2 -22 -2 -20 -10 1 -8 -2 -11 -9 -6 -9 5
-5 13 10 26 28 22 41 23 41 2z m40 -9 c0 -8 -7 -15 -15 -15 -8 0 -15 7 -15 15
0 8 7 15 15 15 8 0 15 -7 15 -15z"/>
<path d="M1036 1975 c-3 -9 0 -15 9 -15 16 0 20 16 6 24 -5 3 -11 -1 -15 -9z"/>
<path d="M1289 1148 c-6 -13 -18 -26 -25 -31 -7 -4 -11 -16 -9 -27 3 -14 -2
-20 -16 -20 -21 0 -26 -29 -8 -47 8 -8 5 -13 -11 -18 -18 -6 -20 -9 -9 -17 11
-7 11 -11 1 -15 -6 -2 -10 -9 -6 -14 3 -5 0 -9 -5 -9 -6 0 -11 -5 -11 -11 0
-7 -8 -18 -17 -25 -16 -12 -16 -13 7 -8 l25 5 -25 -13 c-43 -22 -64 -58 -33
-58 9 0 13 -3 10 -7 -4 -4 7 -13 24 -20 17 -7 28 -17 25 -22 -4 -5 0 -12 6
-14 10 -4 10 -6 1 -6 -7 -1 -10 -8 -6 -17 5 -14 1 -16 -30 -10 -24 4 -37 3
-37 -4 0 -5 -6 -10 -14 -10 -14 0 -32 -36 -28 -54 6 -19 -11 -46 -28 -46 -18
0 -30 -25 -23 -47 3 -7 12 -13 21 -13 11 0 13 -3 6 -8 -13 -8 -34 -117 -25
-129 3 -5 17 -9 31 -9 14 -1 39 -3 55 -4 66 -5 95 0 95 16 0 12 8 15 36 11 20
-3 40 -11 45 -18 6 -11 9 -10 15 4 3 9 10 14 15 11 5 -3 7 -9 4 -14 -3 -4 4
-10 15 -13 25 -7 26 5 1 23 -11 7 -17 18 -14 23 4 6 1 7 -8 2 -19 -12 -49 -14
-49 -3 0 5 -5 6 -12 2 -7 -5 -8 -3 -3 6 11 18 13 140 2 140 -4 0 -5 -5 -1 -12
5 -7 3 -8 -5 -3 -7 4 -11 15 -8 25 2 9 0 26 -5 36 -6 12 -2 10 10 -5 14 -17
21 -20 27 -11 11 18 26 -9 19 -35 l-6 -20 17 20 c14 17 16 17 11 3 -3 -10 -1
-18 5 -18 7 0 8 10 4 28 -10 38 -12 153 -2 159 4 3 3 11 -4 19 -9 11 -8 14 3
14 11 0 14 12 12 50 -1 32 2 50 10 50 7 0 7 3 1 8 -5 4 -11 48 -12 97 -3 105
-13 149 -36 153 -8 2 -21 -7 -28 -20z m-2 -470 c-3 -8 -6 -5 -6 6 -1 11 2 17
5 13 3 -3 4 -12 1 -19z m-187 -68 c0 -5 -7 -10 -15 -10 -8 0 -15 5 -15 10 0 6
7 10 15 10 8 0 15 -4 15 -10z m-13 -26 c-3 -3 -12 -4 -19 -1 -8 3 -5 6 6 6 11
1 17 -2 13 -5z"/>
<path d="M2630 1145 c-11 -30 -16 -51 -27 -130 -3 -22 -9 -42 -13 -45 -4 -3
-6 -13 -4 -22 1 -10 -3 -18 -9 -18 -7 0 -5 -5 3 -10 8 -5 10 -10 4 -10 -7 0
-9 -11 -7 -27 4 -22 2 -25 -6 -13 -6 8 -11 10 -11 5 0 -6 6 -17 13 -24 7 -9 7
-11 1 -8 -7 4 -15 0 -18 -9 -3 -9 -2 -12 5 -9 6 4 8 -4 6 -22 -3 -15 -9 -27
-14 -26 -5 1 -11 -19 -12 -45 -1 -25 -6 -49 -12 -53 -6 -3 -12 -21 -14 -40 -2
-19 -4 -36 -5 -39 -1 -3 -2 -8 -1 -12 0 -5 -4 -8 -10 -8 -8 0 -8 -4 0 -13 8
-10 7 -17 -1 -25 -9 -9 -7 -17 9 -32 21 -19 22 -19 28 0 3 10 12 17 18 14 13
-5 81 49 72 58 -3 2 21 5 53 6 41 1 51 -1 37 -8 -16 -7 -17 -9 -3 -9 9 -1 25
-4 35 -8 16 -6 16 -5 4 10 -7 9 -10 17 -5 17 5 0 9 28 9 61 0 53 -3 63 -20 70
-18 7 -18 8 -2 8 10 1 17 7 14 14 -2 6 3 17 12 23 12 9 6 12 -29 12 -28 1 -52
-5 -65 -16 -17 -15 -18 -15 -7 0 7 9 9 18 5 20 -4 3 -3 3 4 2 6 -2 17 5 25 14
11 13 11 14 -1 7 -10 -6 -12 -4 -6 4 4 7 16 11 26 8 11 -3 17 -1 13 4 -3 5 0
9 6 9 6 0 9 4 6 9 -3 5 0 11 8 14 16 6 10 47 -8 59 -7 5 -7 8 2 8 10 0 12 10
9 33 -11 67 -21 102 -34 115 -7 8 -11 17 -8 21 2 5 -11 26 -29 47 l-34 39 -12
-30z"/>
<path d="M2856 763 c2 -6 -5 -14 -14 -16 -16 -4 -16 -5 0 -6 10 0 20 -12 24
-26 3 -14 13 -25 21 -25 8 0 12 -4 9 -9 -6 -9 -56 -3 -54 8 2 22 -4 41 -13 41
-6 0 -9 -9 -6 -20 3 -11 -1 -26 -8 -34 -8 -7 -12 -16 -9 -18 2 -3 -1 -28 -7
-57 -8 -40 -8 -55 1 -66 7 -8 9 -15 4 -15 -5 0 -2 -5 6 -10 10 -6 11 -10 3
-10 -7 0 -21 8 -31 18 -24 22 -39 25 -39 6 0 -8 6 -13 12 -10 9 3 8 -7 -2 -37
-8 -23 -15 -50 -16 -59 -1 -10 -6 -18 -12 -18 -5 0 -3 -5 5 -10 12 -8 11 -10
-7 -10 -13 0 -22 3 -20 8 1 4 -2 8 -8 9 -5 2 -11 -5 -11 -15 -1 -9 -2 -24 -3
-32 -1 -9 -7 -6 -18 10 -23 33 -36 41 -45 27 -5 -8 -8 -7 -8 5 0 20 -7 25 -43
32 -19 3 -25 1 -21 -6 5 -7 2 -9 -8 -5 -18 7 -38 -11 -37 -32 0 -10 4 -7 10 7
5 13 14 20 20 16 8 -4 7 -9 -2 -15 -11 -7 -11 -9 1 -9 13 0 13 -1 0 -10 -12
-8 -12 -10 -1 -10 8 0 12 -2 9 -5 -3 -3 -17 -1 -31 6 -22 10 -24 15 -16 37 5
13 8 27 5 29 -2 3 -7 -5 -11 -16 -3 -12 -13 -21 -21 -21 -14 0 -18 -11 -15
-40 2 -12 0 -13 -7 -1 -6 7 -15 10 -21 7 -15 -10 -14 -29 2 -21 6 4 -2 -6 -20
-22 -17 -15 -33 -37 -35 -48 -2 -11 -9 -19 -16 -18 -11 3 -19 -18 -26 -60 -1
-10 -8 -23 -14 -29 -7 -7 -12 -23 -12 -35 0 -29 -25 -79 -42 -86 -7 -3 94 -6
225 -6 l238 -1 -18 33 c-10 17 -24 36 -30 40 -7 4 -13 16 -13 25 0 9 -7 25
-14 35 -12 16 -11 21 7 41 12 12 28 20 36 18 7 -3 17 1 22 9 7 11 9 11 9 -3 0
-17 -10 -22 -39 -19 -7 2 -10 -2 -7 -8 4 -5 -2 -14 -11 -20 -16 -9 -16 -12 -3
-21 23 -15 30 -12 31 13 1 21 1 21 8 -2 4 -14 12 -26 19 -29 8 -2 10 2 5 14
-4 11 -3 15 5 10 13 -8 11 -86 -2 -86 -5 0 -7 -2 -4 -5 2 -3 21 3 41 13 31 15
35 20 25 31 -11 11 -10 13 2 7 8 -4 6 0 -5 9 -11 9 -19 23 -17 31 2 9 -6 14
-25 15 -25 2 -25 2 -5 6 13 3 21 10 19 16 -5 15 17 37 37 37 18 0 21 15 6 25
-13 8 -13 45 1 45 5 0 9 -10 7 -21 -2 -18 2 -22 29 -23 31 -1 49 16 38 34 -3
5 -1 11 5 15 5 3 10 -2 11 -12 0 -10 2 -37 5 -61 2 -24 0 -51 -6 -62 -7 -14
-6 -19 6 -24 12 -5 15 -14 11 -36 -4 -16 -2 -43 4 -60 l11 -30 98 0 c68 0 100
4 102 12 3 8 23 11 56 9 42 -2 51 0 46 12 -3 8 -7 30 -8 49 -3 31 -5 33 -39
32 -26 -1 -34 2 -30 12 3 8 -2 14 -11 14 -9 0 -19 6 -22 14 -6 16 -61 39 -74
31 -5 -3 -11 1 -13 7 -4 10 -6 10 -6 1 -1 -17 -36 -16 -50 1 -9 11 -9 15 1 19
10 4 10 6 1 6 -7 1 -13 5 -13 11 0 5 7 7 15 4 8 -4 15 -1 15 5 0 6 11 11 25
11 14 0 25 5 25 10 0 19 20 10 47 -20 24 -27 32 -30 74 -28 l47 3 -14 27 c-12
24 -12 28 2 36 23 13 9 51 -23 63 -19 7 -23 14 -18 32 4 12 14 29 22 37 14 13
15 13 8 0 -6 -11 -5 -12 3 -5 7 6 15 25 18 43 5 25 3 33 -12 39 -24 9 -44 28
-44 42 0 6 -4 11 -8 11 -5 0 -30 20 -58 44 -27 25 -66 53 -86 63 -21 10 -38
21 -38 26 0 4 -7 7 -15 7 -8 0 -15 4 -15 9 0 5 -15 16 -34 25 -19 9 -36 20
-39 24 -2 4 -2 2 -1 -5z m28 -146 c7 -6 6 -7 -4 -4 -8 2 -16 12 -17 23 -2 13
-1 15 4 4 3 -8 11 -19 17 -23z m56 -38 c0 -5 5 -7 10 -4 6 3 10 -1 10 -10 0
-9 5 -13 10 -10 6 4 13 -7 16 -24 4 -17 10 -31 15 -31 5 0 9 -7 9 -16 0 -8 4
-13 9 -9 14 8 25 -15 13 -27 -7 -7 -18 -1 -34 17 -12 15 -29 33 -35 41 -7 7
-13 19 -13 26 -1 17 -21 43 -40 51 -10 4 -8 6 8 6 12 1 22 -4 22 -10z m-50
-69 c0 -5 -2 -10 -4 -10 -3 0 -8 5 -11 10 -3 6 -1 10 4 10 6 0 11 -4 11 -10z
m200 -78 c0 -14 -11 -21 -26 -15 -21 8 -17 23 6 23 11 0 20 -4 20 -8z m-326
-88 c3 -8 -1 -14 -9 -14 -8 0 -14 4 -12 9 1 5 -2 9 -8 9 -5 0 -9 -4 -7 -9 1
-5 -2 -9 -8 -9 -13 0 -13 13 1 27 14 14 35 7 43 -13z m-164 -4 c-7 -4 -9 -13
-6 -19 4 -6 3 -11 -3 -11 -6 0 -8 -7 -5 -15 4 -8 12 -15 20 -15 12 0 12 -4 2
-20 -9 -13 -14 -16 -17 -8 -2 7 -17 29 -33 50 -15 20 -24 38 -18 40 21 7 71 5
60 -2z m173 -36 c-4 -11 -8 -12 -13 -4 -10 17 -31 3 -23 -15 3 -10 -1 -15 -13
-15 -15 0 -16 2 -5 9 9 6 10 11 2 15 -22 14 -10 26 24 26 27 0 33 -3 28 -16z
m177 -30 c0 -8 -5 -12 -10 -9 -6 4 -8 11 -5 16 9 14 15 11 15 -7z m210 -194
c0 -5 -2 -10 -4 -10 -3 0 -8 5 -11 10 -3 6 -1 10 4 10 6 0 11 -4 11 -10z
m-813 -36 c-3 -3 -12 -4 -19 -1 -8 3 -5 6 6 6 11 1 17 -2 13 -5z"/>
<path d="M1011 704 c-6 -15 -9 -29 -6 -32 3 -3 5 0 5 7 0 7 4 10 9 7 12 -8 24
25 13 36 -5 5 -14 -3 -21 -18z"/>
<path d="M1050 666 c0 -2 9 -6 20 -9 11 -3 20 -1 20 4 0 5 -9 9 -20 9 -11 0
-20 -2 -20 -4z"/>
<path d="M865 640 c-4 -11 -11 -18 -16 -15 -5 4 -9 2 -9 -3 0 -5 -10 -14 -22
-20 -13 -6 -18 -11 -11 -11 7 -1 -1 -15 -17 -31 -17 -17 -30 -37 -30 -44 0
-18 25 -38 35 -28 4 4 5 -2 2 -13 -3 -11 -8 -34 -12 -51 -5 -25 -10 -31 -26
-27 -10 3 -19 10 -19 17 0 6 -9 17 -20 24 -12 7 -18 17 -15 23 4 5 3 9 -2 8
-4 -1 -10 0 -13 1 -3 1 -15 3 -28 4 -19 2 -22 -1 -18 -17 4 -15 2 -17 -7 -8
-16 16 -30 14 -57 -11 -14 -13 -28 -23 -33 -23 -5 0 -14 -8 -21 -17 -7 -10
-18 -18 -24 -18 -6 0 -14 -9 -17 -20 -4 -11 -11 -18 -16 -14 -6 3 -21 -7 -35
-23 -22 -25 -22 -29 -8 -40 9 -6 13 -16 9 -22 -4 -7 5 -11 22 -11 22 0 25 -2
13 -11 -11 -8 -8 -9 15 -5 56 9 120 31 130 44 19 24 67 10 84 -23 23 -43 24
-60 4 -76 -16 -13 -17 -12 -5 2 10 14 10 18 -5 23 -10 4 -19 2 -21 -4 -2 -6
-12 -2 -22 10 -12 14 -19 17 -22 8 -5 -14 13 -58 24 -58 4 0 2 -11 -4 -25 -6
-14 -15 -25 -20 -25 -5 0 -6 5 -3 10 3 6 -1 18 -10 27 -13 12 -19 13 -24 4 -6
-9 -12 -8 -26 5 -17 17 -18 17 -32 -2 -10 -13 -16 -15 -21 -7 -9 14 -76 11
-94 -4 -7 -6 -28 -14 -45 -18 -18 -3 -33 -11 -33 -17 0 -6 -3 -8 -7 -5 -3 4
-12 2 -19 -4 -11 -9 -11 -16 -2 -33 7 -11 11 -25 10 -29 -2 -5 3 -7 10 -4 7 2
12 10 10 16 -1 6 2 11 8 11 5 0 10 -7 10 -15 0 -13 21 -15 130 -15 l130 0 0
29 c0 19 11 42 30 63 22 24 30 28 30 15 0 -9 -5 -17 -11 -17 -7 0 -9 -10 -7
-25 3 -13 0 -26 -6 -29 -7 -3 -7 -5 2 -5 21 -2 13 -19 -10 -24 -15 -3 -10 -5
14 -6 35 -1 36 1 43 39 4 22 11 40 16 40 5 0 9 7 9 15 0 8 -7 15 -17 15 -9 0
-13 3 -9 8 4 4 13 7 19 7 7 0 13 18 15 39 3 29 6 36 13 25 7 -11 9 -9 9 8 0
16 8 23 32 28 45 10 67 26 60 43 -4 11 -1 13 7 7 8 -4 17 -2 22 6 7 11 9 10 9
-5 0 -13 4 -16 13 -9 13 10 42 9 68 -1 9 -4 22 0 30 10 12 16 12 17 -1 9 -12
-6 -13 -5 -2 6 14 16 17 73 2 64 -5 -3 -10 -2 -10 4 0 5 5 13 11 17 6 3 9 14
6 24 -2 9 0 26 6 36 14 25 26 114 15 114 -5 0 -11 -6 -14 -13 -3 -8 -16 -12
-32 -10 -21 3 -31 -2 -46 -25 -13 -20 -25 -28 -38 -24 -15 3 -16 7 -7 18 7 8
9 18 5 21 -4 4 -11 1 -15 -6 -10 -16 -31 -6 -31 13 0 8 7 19 15 26 9 7 14 19
11 27 -3 7 0 13 7 13 7 0 13 9 13 20 0 26 -23 26 -31 0z m122 -96 c-3 -3 -12
-4 -19 -1 -8 3 -5 6 6 6 11 1 17 -2 13 -5z m-97 -54 c13 -9 13 -10 0 -10 -8 0
-27 -7 -42 -14 -31 -16 -37 -6 -12 18 18 18 33 20 54 6z m7 -62 c-3 -8 -6 -5
-6 6 -1 11 2 17 5 13 3 -3 4 -12 1 -19z m-54 -25 c-3 -6 -11 -14 -19 -17 -15
-6 -18 11 -8 38 5 12 9 13 19 3 7 -6 10 -17 8 -24z m-168 7 c-3 -5 -11 -10
-16 -10 -6 0 -7 5 -4 10 3 6 11 10 16 10 6 0 7 -4 4 -10z m299 -86 c3 -8 2
-12 -4 -9 -6 3 -10 10 -10 16 0 14 7 11 14 -7z m-444 -10 c0 -12 -29 -34 -46
-34 -16 0 -16 1 1 20 17 19 45 27 45 14z m-25 -184 c3 -6 -1 -7 -9 -4 -18 7
-21 14 -7 14 6 0 13 -4 16 -10z m2 -76 c-3 -3 -12 -4 -19 -1 -8 3 -5 6 6 6 11
1 17 -2 13 -5z m-100 -10 c-3 -3 -12 -4 -19 -1 -8 3 -5 6 6 6 11 1 17 -2 13
-5z"/>
<path d="M995 600 c-3 -5 -2 -10 4 -10 5 0 13 5 16 10 3 6 2 10 -4 10 -5 0
-13 -4 -16 -10z"/>
<path d="M1340 570 c0 -5 5 -10 11 -10 5 0 7 5 4 10 -3 6 -8 10 -11 10 -2 0
-4 -4 -4 -10z"/>
<path d="M682 558 c-9 -9 -9 -15 0 -27 10 -13 10 -14 -2 -3 -8 6 -21 12 -29
12 -13 -1 -13 -3 2 -14 18 -14 18 -14 0 -19 -12 -3 -9 -5 10 -6 15 0 27 2 28
7 3 20 6 62 4 62 0 0 -6 -5 -13 -12z"/>
<path d="M717 543 c-4 -3 -7 -11 -7 -17 0 -6 5 -5 12 2 6 6 9 14 7 17 -3 3 -9
2 -12 -2z"/>
<path d="M2518 443 c7 -3 16 -2 19 1 4 3 -2 6 -13 5 -11 0 -14 -3 -6 -6z"/>
<path d="M3296 425 c-4 -12 -1 -16 11 -13 18 3 21 20 5 26 -5 1 -12 -4 -16
-13z"/>
<path d="M1304 385 c1 -14 6 -28 9 -32 4 -3 2 -12 -4 -20 -6 -7 -7 -13 -2 -13
5 0 8 -12 7 -27 -1 -36 23 -73 47 -73 15 0 19 7 19 34 0 19 6 37 13 39 8 4 6
6 -4 6 -12 1 -15 8 -12 25 3 13 -1 27 -8 31 -9 6 -11 3 -6 -8 4 -11 1 -17 -9
-17 -9 0 -12 -5 -8 -12 6 -10 3 -9 -9 0 -11 10 -14 20 -8 35 10 29 3 57 -14
57 -9 0 -13 -9 -11 -25z m56 -97 c0 -4 -7 -8 -15 -8 -8 0 -15 4 -15 8 0 5 7 9
15 9 8 0 15 -4 15 -9z"/>
<path d="M1405 400 c3 -5 8 -10 11 -10 2 0 4 5 4 10 0 6 -5 10 -11 10 -5 0 -7
-4 -4 -10z"/>
<path d="M3256 383 c-4 -10 -1 -20 8 -25 9 -5 15 -19 14 -31 -1 -12 6 -39 15
-59 13 -32 21 -38 46 -38 17 0 31 5 31 11 0 8 5 7 16 -1 8 -8 14 -9 12 -4 -2
5 1 10 6 11 14 3 33 46 28 66 -5 19 -18 23 -24 6 -2 -5 -11 -7 -21 -4 -19 8
-23 25 -7 25 6 0 5 6 -2 14 -11 13 -16 13 -35 0 -26 -16 -43 -18 -43 -4 0 6 7
10 15 10 13 0 13 3 3 20 -16 24 -53 26 -62 3z"/>
<path d="M960 290 c-1 -3 -3 -21 -6 -40 -4 -34 -4 -35 11 -13 12 17 13 28 6
40 -6 10 -11 16 -11 13z"/>
<path d="M3466 274 c-4 -9 -4 -19 -1 -22 2 -3 7 3 11 12 4 9 4 19 1 22 -2 3
-7 -3 -11 -12z"/>
<path d="M1536 243 c-3 -4 -33 -8 -65 -8 -39 -1 -65 -7 -75 -18 -12 -11 -12
-16 -3 -20 8 -3 12 -22 11 -56 -2 -28 1 -49 6 -46 11 7 60 -34 60 -51 0 -11
15 -14 61 -14 46 0 58 3 52 13 -10 16 -13 37 -5 36 21 -3 65 3 55 8 -7 2 -13
13 -13 24 0 10 6 17 13 15 6 -1 9 -1 4 1 -4 3 -5 9 -2 14 4 5 -1 6 -9 3 -9 -3
-17 2 -21 15 -3 12 -10 21 -15 21 -6 0 -6 10 0 24 5 15 5 27 -3 35 -12 12 -40
15 -51 4z m64 -93 c0 -5 -2 -10 -4 -10 -3 0 -8 5 -11 10 -3 6 -1 10 4 10 6 0
11 -4 11 -10z m-23 -52 c-3 -7 -5 -2 -5 12 0 14 2 19 5 13 2 -7 2 -19 0 -25z
m24 9 c-10 -9 -11 -8 -5 6 3 10 9 15 12 12 3 -3 0 -11 -7 -18z"/>
<path d="M240 225 c-7 -8 -9 -15 -6 -15 4 0 -6 -11 -21 -24 -19 -17 -25 -28
-18 -35 7 -7 15 -7 25 -1 13 8 13 11 1 19 -11 7 -10 11 7 20 11 6 22 7 24 2 2
-5 9 -3 16 5 11 12 9 14 -9 14 -18 0 -19 2 -9 15 7 8 10 15 7 15 -2 0 -10 -7
-17 -15z"/>
<path d="M1234 217 c1 -21 -3 -22 -94 -23 -52 0 -112 -6 -132 -13 -35 -12 -38
-15 -38 -51 0 -21 4 -50 9 -64 7 -17 7 -26 -2 -30 -7 -2 29 -5 80 -5 50 -1 94
3 97 8 9 14 45 20 53 9 3 -6 2 -9 -3 -6 -5 3 -18 2 -29 -3 -12 -4 30 -7 100
-7 66 1 105 3 87 5 -24 3 -32 8 -28 19 3 8 2 14 -2 14 -4 0 -8 10 -9 23 -9
140 -7 132 -39 133 -16 0 -35 3 -40 7 -6 3 -10 -3 -10 -16z m22 -152 c-21 -11
-32 -13 -40 -5 -8 8 -6 9 7 5 10 -4 17 -2 17 4 0 6 10 11 23 11 20 0 19 -2 -7
-15z"/>
<path d="M935 201 c3 -5 1 -12 -5 -16 -5 -3 -10 -11 -10 -18 0 -6 7 -2 15 9
17 23 19 34 4 34 -5 0 -8 -4 -4 -9z"/>
<path d="M2831 194 c0 -11 3 -14 6 -6 3 7 2 16 -1 19 -3 4 -6 -2 -5 -13z"/>
<path d="M3388 193 c7 -3 16 -2 19 1 4 3 -2 6 -13 5 -11 0 -14 -3 -6 -6z"/>
<path d="M3570 186 c0 -17 16 -30 23 -19 3 5 -1 14 -9 21 -12 10 -14 10 -14
-2z"/>
<path d="M3450 182 c-60 -3 -110 -24 -129 -55 -10 -16 -10 -21 1 -28 10 -7 10
-9 -2 -9 -9 -1 -6 -5 8 -10 12 -5 22 -14 22 -20 0 -5 14 -10 31 -10 17 0 28
-4 24 -10 -3 -5 1 -10 9 -10 8 0 18 5 21 10 4 6 11 8 16 5 5 -4 9 0 9 8 0 16
31 18 41 3 4 -5 18 -6 32 -2 20 5 24 12 24 39 -1 18 2 40 5 48 7 18 -19 44
-42 44 -8 0 -40 -1 -70 -3z m75 -112 c3 -5 1 -10 -4 -10 -6 0 -11 5 -11 10 0
6 2 10 4 10 3 0 8 -4 11 -10z"/>
<path d="M3630 151 c5 -11 10 -30 10 -42 0 -33 11 -16 16 25 4 31 1 36 -16 36
-17 0 -19 -3 -10 -19z"/>
<path d="M3681 143 c2 -22 15 -41 25 -35 6 5 4 13 -8 25 -10 9 -18 14 -17 10z"/>
<path d="M765 131 c-3 -5 -1 -12 5 -16 5 -3 10 1 10 9 0 18 -6 21 -15 7z"/>
<path d="M1380 115 c-7 -9 -11 -17 -9 -20 3 -2 10 5 17 15 14 24 10 26 -8 5z"/>
<path d="M210 113 c0 -5 11 -16 25 -23 14 -7 25 -17 25 -22 0 -17 18 -7 23 12
4 17 2 20 -15 15 -12 -4 -27 0 -39 11 -10 9 -19 13 -19 7z"/>
<path d="M860 111 c0 -6 4 -12 8 -15 5 -3 9 1 9 9 0 8 -4 15 -9 15 -4 0 -8 -4
-8 -9z"/>
<path d="M2820 103 c10 -4 1 -11 -25 -19 -32 -11 -34 -12 -8 -8 47 8 55 -27 8
-39 -14 -3 -10 -5 12 -6 35 -1 41 8 35 51 -3 18 -10 28 -21 27 -13 0 -13 -2
-1 -6z"/>
<path d="M197 89 c7 -7 15 -10 18 -7 3 3 -2 9 -12 12 -14 6 -15 5 -6 -5z"/>
<path d="M800 80 c0 -11 2 -20 4 -20 2 0 6 9 9 20 3 11 1 20 -4 20 -5 0 -9 -9
-9 -20z"/>
<path d="M831 67 c0 -16 -5 -26 -10 -22 -5 3 -12 1 -16 -5 -4 -6 13 -10 47
-10 36 0 48 3 38 9 -8 6 -18 7 -22 5 -4 -3 -8 1 -8 8 0 10 -2 10 -9 -1 -7 -11
-10 -7 -14 15 l-4 29 -2 -28z"/>
<path d="M2230 76 c0 -8 -7 -22 -16 -30 -14 -15 -14 -16 4 -16 14 0 21 8 24
30 3 17 1 30 -4 30 -4 0 -8 -6 -8 -14z"/>
<path d="M1710 51 c10 -7 3 -11 -30 -14 -25 -2 -3 -4 49 -5 92 -2 114 3 55 13
-16 2 -42 7 -59 10 -22 5 -26 4 -15 -4z"/>
<path d="M145 40 c-15 -6 -7 -9 29 -9 27 -1 47 1 45 3 -11 9 -56 13 -74 6z"/>
<path d="M268 33 c7 -3 16 -2 19 1 4 3 -2 6 -13 5 -11 0 -14 -3 -6 -6z"/>
</g>
</svg>
