<?xml version="1.0" standalone="no"?>
<!DOCTYPE svg PUBLIC "-//W3C//DTD SVG 20010904//EN"
 "http://www.w3.org/TR/2001/REC-SVG-20010904/DTD/svg10.dtd">
<svg version="1.0" xmlns="http://www.w3.org/2000/svg"
 width="400.000000pt" height="402.000000pt" viewBox="0 0 400.000000 402.000000"
 preserveAspectRatio="xMidYMid meet">

<g transform="translate(0.000000,402.000000) scale(0.100000,-0.100000)"
fill="#000000" stroke="none">
<path d="M1805 3895 c-94 -15 -193 -46 -240 -75 -18 -11 -40 -20 -49 -20 -27
0 -166 -48 -222 -76 -53 -28 -126 -92 -181 -159 -18 -22 -39 -47 -46 -55 -95
-109 -137 -169 -137 -195 0 -8 -4 -15 -9 -15 -5 0 -14 -15 -22 -32 -7 -18 -25
-60 -41 -92 -15 -33 -28 -67 -28 -77 0 -10 -4 -20 -9 -23 -7 -5 -13 -26 -22
-74 -1 -4 -7 -23 -14 -42 -19 -49 -45 -205 -45 -264 0 -38 -7 -59 -26 -88 -15
-21 -31 -38 -35 -38 -5 0 -9 -5 -9 -11 0 -5 4 -8 9 -5 11 7 23 -22 15 -35 -3
-5 -1 -9 5 -9 5 0 16 -13 25 -30 10 -21 11 -30 3 -30 -7 0 -13 -18 -14 -42 -3
-46 19 -81 44 -71 13 5 15 -3 11 -53 -6 -75 -3 -86 28 -78 28 7 29 1 8 -61 -8
-25 -12 -55 -9 -66 4 -11 37 -50 74 -87 58 -57 72 -77 92 -137 12 -38 26 -71
29 -73 4 -1 4 -16 2 -32 -2 -17 3 -45 12 -64 9 -19 16 -38 16 -43 0 -15 47
-63 55 -55 5 4 5 2 2 -4 -7 -12 19 -54 33 -54 5 0 8 24 7 54 -1 30 -5 52 -9
49 -5 -2 -8 3 -8 11 0 9 5 16 12 16 6 0 3 9 -7 20 -10 11 -13 20 -7 20 14 0 4
62 -12 72 -7 5 -6 8 4 8 10 0 11 3 4 8 -6 4 -11 14 -12 22 0 8 -3 26 -7 40 -3
14 -8 36 -11 50 -2 14 -7 32 -11 40 -8 20 -9 26 -17 85 -7 53 -13 90 -16 90
-2 0 -9 64 -13 130 -2 28 -7 57 -11 66 -4 10 -3 20 3 24 6 3 11 14 11 24 0 25
55 87 64 73 4 -7 13 -8 24 -3 9 5 30 13 46 17 34 11 63 77 69 159 2 31 12 62
23 77 24 32 120 97 154 104 14 3 34 10 45 15 19 9 50 11 115 8 14 -1 42 3 62
9 26 7 36 7 32 0 -5 -7 5 -8 27 -4 19 4 48 8 64 10 17 2 30 5 30 6 0 1 10 3
23 6 12 2 22 0 22 -6 0 -5 6 -7 13 -5 14 5 88 16 137 20 72 5 172 33 165 45
-4 6 -2 10 4 10 5 0 11 -5 13 -10 2 -6 14 -7 33 -2 40 12 60 5 41 -14 -8 -8
-19 -14 -25 -14 -5 0 -13 -5 -17 -12 -4 -7 -3 -8 4 -4 7 4 12 2 12 -3 0 -14
36 -14 61 -1 11 7 19 7 19 1 0 -5 -6 -12 -12 -15 -7 -3 1 -3 17 0 17 4 35 7
42 7 7 0 10 4 7 9 -3 4 4 8 16 8 12 0 19 4 16 9 -4 5 2 8 11 6 10 -1 23 0 28
4 14 8 35 10 35 3 0 -3 -7 -14 -17 -24 -9 -10 -14 -20 -11 -23 6 -6 90 36 100
50 4 6 15 10 25 11 62 4 63 4 63 29 0 14 4 25 10 25 6 0 7 -23 4 -59 -5 -41
-3 -60 6 -66 7 -4 16 -2 21 6 7 12 9 11 10 -1 1 -8 1 -19 0 -24 -1 -5 4 -6 12
-3 7 3 24 -3 37 -13 23 -17 23 -18 6 -45 -12 -18 -24 -25 -37 -22 -15 4 -19
-2 -23 -27 -3 -17 -8 -49 -12 -71 -12 -66 -7 -96 25 -150 31 -52 71 -95 88
-95 7 0 13 -4 13 -9 0 -5 13 -14 29 -21 47 -19 115 -102 124 -150 3 -14 10
-45 17 -70 8 -34 8 -61 0 -110 -6 -36 -12 -71 -12 -77 -1 -7 -5 -13 -8 -13 -8
0 -33 -90 -27 -96 6 -6 57 95 57 113 0 27 25 38 95 40 62 1 72 4 93 28 13 15
22 35 20 44 -3 17 -45 24 -54 10 -3 -5 -14 -9 -24 -9 -10 0 -21 -6 -24 -12 -3
-7 -5 -4 -3 7 1 11 20 29 42 42 24 13 39 29 37 38 -2 8 3 15 10 15 16 0 44 31
46 51 0 8 2 34 3 58 2 51 17 83 51 111 22 17 25 26 22 62 -2 24 -7 115 -9 203
-10 286 -13 306 -66 430 -5 11 -13 31 -19 45 -23 56 -132 209 -148 210 -7 0
-11 4 -7 9 7 12 -123 142 -139 140 -25 -3 -36 2 -36 15 0 7 -14 16 -31 20 -23
4 -29 10 -25 23 6 20 -9 51 -20 41 -3 -4 -14 8 -23 26 -21 41 -101 136 -114
136 -5 0 -26 14 -46 30 -20 17 -42 35 -49 41 -14 11 -83 30 -177 49 -33 6 -85
20 -115 31 -30 10 -71 21 -90 24 -79 12 -250 12 -325 0z m657 -112 c18 -10 35
-19 37 -20 2 -2 2 -5 -1 -8 -3 -3 -25 6 -49 20 -50 28 -39 35 13 8z m-234
-333 c-7 -10 -14 -17 -17 -15 -4 4 18 35 25 35 2 0 -1 -9 -8 -20z m327 -460
c3 -5 1 -10 -4 -10 -6 0 -11 5 -11 10 0 6 2 10 4 10 3 0 8 -4 11 -10z m289
-65 c3 -8 1 -15 -4 -15 -6 0 -10 7 -10 15 0 8 2 15 4 15 2 0 6 -7 10 -15z
m-30 -112 c4 -9 2 -21 -4 -27 -8 -8 -9 -6 -5 7 4 9 3 17 -3 17 -6 0 -13 -10
-15 -22 -3 -17 -5 -14 -6 10 -1 35 22 46 33 15z m-144 -293 c0 -5 -4 -10 -10
-10 -5 0 -10 5 -10 10 0 6 5 10 10 10 6 0 10 -4 10 -10z m-1623 -680 c3 -14
10 -31 16 -37 6 -9 6 -13 -1 -13 -14 0 -22 -38 -8 -44 8 -3 8 -5 -1 -5 -11 -1
-25 11 -48 42 -10 13 -14 24 -23 66 -7 33 14 19 33 -22 12 -25 14 -27 10 -7
-3 14 -8 39 -11 55 -4 29 -4 29 11 10 9 -11 19 -31 22 -45z"/>
<path d="M2680 3660 c0 -5 5 -10 11 -10 5 0 7 5 4 10 -3 6 -8 10 -11 10 -2 0
-4 -4 -4 -10z"/>
<path d="M2510 2870 c0 -5 5 -10 10 -10 6 0 10 5 10 10 0 6 -4 10 -10 10 -5 0
-10 -4 -10 -10z"/>
<path d="M2095 2840 c-3 -5 3 -10 14 -10 12 0 21 5 21 10 0 6 -6 10 -14 10 -8
0 -18 -4 -21 -10z"/>
<path d="M1199 2271 c-38 -34 -32 -53 9 -30 16 8 27 24 28 37 1 12 0 22 -1 22
-1 0 -17 -13 -36 -29z"/>
<path d="M1588 2233 c7 -3 16 -2 19 1 4 3 -2 6 -13 5 -11 0 -14 -3 -6 -6z"/>
<path d="M1630 2230 c-9 -6 -10 -10 -3 -10 6 0 15 5 18 10 8 12 4 12 -15 0z"/>
<path d="M2738 2223 c6 -2 10 -9 6 -14 -3 -5 0 -9 5 -9 6 0 11 7 11 15 0 8 -8
15 -17 14 -11 0 -13 -3 -5 -6z"/>
<path d="M1500 2199 c-75 -5 -108 -13 -155 -35 -33 -16 -61 -33 -62 -39 -1 -5
-5 -19 -9 -29 -5 -14 -4 -17 4 -12 7 4 12 3 12 -3 0 -5 -6 -12 -12 -14 -8 -3
-7 -6 4 -6 9 -1 20 -10 23 -22 4 -11 13 -18 20 -16 7 3 16 2 21 -3 12 -11 74
-20 74 -11 0 4 -11 14 -25 21 -29 15 -33 30 -9 30 10 0 33 17 53 37 l36 37 6
-42 c8 -62 46 -97 101 -95 35 2 48 8 71 35 16 19 27 44 27 62 l0 30 35 -34
c19 -19 35 -28 35 -21 0 9 8 11 25 7 15 -4 25 -2 25 4 0 17 -66 100 -74 93 -3
-3 -14 3 -23 14 -20 21 -44 23 -203 12z m-59 -50 c-16 -6 -28 -6 -35 1 -7 7 1
10 25 9 32 0 33 -1 10 -10z m-56 -9 c-3 -5 -12 -10 -18 -10 -7 0 -6 4 3 10 19
12 23 12 15 0z m185 -30 c0 -5 -4 -10 -10 -10 -5 0 -10 5 -10 10 0 6 5 10 10
10 6 0 10 -4 10 -10z m40 0 c0 -5 -4 -10 -10 -10 -5 0 -10 5 -10 10 0 6 5 10
10 10 6 0 10 -4 10 -10z m-280 -10 c0 -5 -8 -10 -17 -10 -15 0 -16 2 -3 10 19
12 20 12 20 0z"/>
<path d="M2314 2184 c4 -9 -1 -14 -14 -14 -27 0 -58 -18 -92 -54 -31 -31 -36
-56 -12 -56 10 0 14 -6 10 -15 -9 -24 8 -17 39 15 37 39 45 38 45 -4 0 -74 90
-119 149 -76 26 18 55 85 45 102 -3 4 2 5 10 2 25 -10 56 -67 49 -92 -3 -14 0
-24 9 -27 17 -7 88 21 88 35 0 6 10 10 22 10 21 0 21 0 2 15 -16 13 -17 16 -4
25 11 7 11 10 2 10 -7 0 -10 5 -7 10 10 17 -5 52 -21 46 -8 -3 -14 1 -14 8 0
25 -39 36 -185 51 -33 4 -75 10 -93 15 -28 7 -33 6 -28 -6z m211 -64 c3 -5 1
-10 -4 -10 -6 0 -11 5 -11 10 0 6 2 10 4 10 3 0 8 -4 11 -10z m-165 -40 c0 -5
-4 -10 -10 -10 -5 0 -10 5 -10 10 0 6 5 10 10 10 6 0 10 -4 10 -10z m40 0 c0
-5 -4 -10 -10 -10 -5 0 -10 5 -10 10 0 6 5 10 10 10 6 0 10 -4 10 -10z"/>
<path d="M906 1925 c4 -8 8 -15 10 -15 2 0 4 7 4 15 0 8 -4 15 -10 15 -5 0 -7
-7 -4 -15z"/>
<path d="M2838 1730 c-21 -72 -29 -128 -19 -135 5 -2 11 21 15 51 3 31 11 65
17 76 6 10 9 29 7 41 -3 15 -9 5 -20 -33z"/>
<path d="M1800 1555 c-7 -9 -10 -18 -7 -22 8 -7 97 -15 167 -14 30 1 79 2 108
2 44 1 53 4 50 17 -4 23 -59 27 -97 8 -41 -22 -84 -20 -123 4 -39 24 -81 26
-98 5z"/>
<path d="M1601 1341 c-30 -8 -38 -26 -16 -35 31 -11 330 -30 420 -26 79 3 161
4 238 1 62 -3 111 5 115 18 3 8 0 11 -6 7 -6 -3 -12 -2 -14 4 -4 12 -68 32
-68 21 0 -4 -8 -9 -17 -10 -45 -8 -455 -12 -518 -6 -16 1 -43 8 -60 15 -39 17
-45 18 -74 11z"/>
<path d="M1333 1183 c-22 -8 -14 -21 10 -16 16 3 18 2 8 -5 -7 -5 -10 -15 -7
-21 17 -27 -8 -28 -36 -1 -17 17 -34 30 -37 30 -25 -1 -56 -61 -47 -94 5 -21
3 -24 -10 -19 -14 5 -15 3 -5 -15 6 -11 11 -31 11 -44 0 -13 6 -33 13 -44 41
-71 55 -104 62 -144 9 -54 41 -117 66 -131 17 -9 19 -6 17 45 -2 43 2 62 18
83 20 27 64 41 64 21 0 -6 18 -7 43 -4 23 3 36 3 28 0 -13 -6 13 -17 154 -65
33 -12 62 -24 65 -28 3 -5 19 -11 35 -15 17 -3 41 -9 55 -12 73 -17 126 -20
164 -12 22 6 47 11 54 11 6 0 12 4 12 9 0 4 5 8 11 8 5 0 36 12 67 27 31 14
63 26 70 24 6 -1 12 2 12 7 0 6 11 13 25 16 14 4 24 10 21 15 -3 4 5 6 18 4
13 -3 27 0 30 6 4 6 13 11 19 11 7 0 6 -4 -3 -11 -12 -8 -12 -10 5 -8 11 1 29
0 40 -1 l20 -1 -20 -9 c-15 -6 -16 -9 -4 -9 16 -1 23 -31 6 -31 -5 0 -7 -9 -4
-19 3 -14 1 -18 -9 -14 -8 3 -14 1 -14 -5 0 -6 6 -12 13 -15 6 -3 2 -4 -10 -4
-13 1 -23 6 -23 11 0 5 -2 7 -5 5 -2 -3 -1 -19 4 -36 6 -19 5 -35 -1 -41 -6
-6 -6 -12 1 -17 6 -3 14 2 18 12 6 16 27 45 64 91 6 7 29 45 52 85 22 40 49
79 59 88 20 18 25 34 6 23 -7 -4 -8 -3 -4 4 4 6 13 9 21 5 10 -3 15 1 15 12 0
10 -5 13 -12 9 -6 -4 -1 9 11 30 13 20 21 45 18 56 -3 11 -2 20 2 20 5 0 8 13
9 30 1 27 -1 29 -19 20 -10 -6 -19 -15 -19 -19 0 -13 -70 -52 -89 -50 -29 3
-36 -1 -22 -10 11 -7 -1 -14 -42 -26 -31 -9 -57 -20 -57 -25 0 -7 -29 -18 -47
-18 -3 0 -9 -6 -14 -14 -5 -7 -12 -13 -16 -13 -5 0 -18 -9 -30 -20 -15 -14
-34 -20 -57 -19 -21 1 -36 -3 -36 -10 0 -6 -5 -3 -11 8 -9 15 -13 16 -20 5 -8
-12 -11 -12 -19 1 -5 8 -10 10 -10 4 0 -6 -6 -11 -12 -12 -77 -8 -117 -7 -187
5 -74 13 -85 13 -100 -1 -19 -18 -41 -21 -41 -7 0 5 -16 12 -35 15 -19 4 -35
11 -35 16 0 6 -6 10 -14 10 -8 0 -28 14 -45 31 -17 17 -31 28 -31 25 0 -3 -27
21 -61 54 -33 33 -65 58 -70 54 -5 -3 -9 1 -9 10 0 8 -17 25 -37 37 -21 13
-44 29 -51 36 -7 7 -14 13 -15 12 -1 0 -8 -3 -14 -6z m491 -298 c-4 -8 -8 -15
-10 -15 -2 0 -4 7 -4 15 0 8 4 15 10 15 5 0 7 -7 4 -15z"/>
<path d="M1862 1162 c-31 -5 -17 -22 18 -22 16 0 35 -6 43 -14 8 -8 23 -13 33
-11 11 2 36 7 57 10 51 8 39 21 -25 28 -29 3 -64 7 -78 9 -14 2 -35 2 -48 0z"/>
<path d="M2730 1131 c0 -5 5 -13 10 -16 6 -3 10 -2 10 4 0 5 -4 13 -10 16 -5
3 -10 2 -10 -4z"/>
<path d="M2757 1076 c-4 -9 -1 -16 4 -16 6 0 9 -8 7 -18 -3 -11 0 -19 8 -19
17 0 17 15 0 46 -11 19 -14 21 -19 7z"/>
<path d="M2767 913 c-3 -10 -8 -28 -12 -41 -6 -21 -4 -23 17 -20 16 2 24 10
26 29 4 32 -24 60 -31 32z"/>
<path d="M2970 795 c0 -10 10 -15 33 -15 30 1 31 1 13 15 -25 19 -46 19 -46 0z"/>
<path d="M3045 770 c-3 -5 -1 -10 4 -10 6 0 11 5 11 10 0 6 -2 10 -4 10 -3 0
-8 -4 -11 -10z"/>
<path d="M1131 690 c21 -64 30 -83 35 -77 8 7 -17 78 -33 97 -11 12 -11 8 -2
-20z"/>
<path d="M2457 626 c-62 -26 -78 -36 -58 -36 9 0 11 -9 6 -29 -6 -30 8 -50 21
-30 5 8 3 9 -6 4 -8 -5 -11 -3 -8 6 5 17 58 25 58 10 0 -6 -4 -11 -9 -11 -5 0
-11 -7 -14 -14 -4 -10 -1 -13 9 -9 10 4 14 -3 14 -26 0 -26 4 -31 25 -31 14 0
25 5 25 10 0 7 6 7 19 1 10 -6 40 -18 66 -26 36 -13 50 -14 61 -4 8 6 14 8 14
3 0 -5 4 -3 9 5 5 7 22 15 38 17 24 3 34 -4 66 -49 21 -29 42 -58 47 -66 7
-12 11 -12 23 -2 12 10 24 10 59 0 24 -7 48 -13 53 -15 6 -1 18 -5 27 -9 11
-4 20 0 27 13 9 18 4 23 -44 48 -31 15 -60 33 -66 41 -7 7 -17 13 -24 13 -7 0
-23 10 -37 23 -31 27 -64 47 -79 47 -6 0 -28 14 -49 30 -21 17 -43 30 -49 30
-6 0 -28 16 -49 35 -53 47 -99 53 -175 21z"/>
<path d="M3030 636 c0 -15 45 -30 61 -20 6 3 -2 12 -16 20 -34 18 -45 18 -45
0z"/>
<path d="M3311 626 c2 -2 15 -9 29 -15 24 -11 24 -11 6 3 -16 13 -49 24 -35
12z"/>
<path d="M3160 602 c0 -12 19 -26 26 -19 2 2 -2 10 -11 17 -9 8 -15 8 -15 2z"/>
<path d="M3370 586 c0 -2 7 -7 16 -10 8 -3 12 -2 9 4 -6 10 -25 14 -25 6z"/>
<path d="M1171 541 c-7 -11 -8 -21 -3 -21 5 0 13 -14 18 -31 7 -26 11 -29 20
-18 8 10 7 24 -6 53 -17 37 -18 38 -29 17z"/>
<path d="M1380 499 c-6 -11 -32 -29 -57 -40 -26 -11 -47 -27 -50 -39 -3 -11
-9 -20 -13 -20 -11 0 -40 -29 -40 -40 0 -5 18 -8 40 -6 45 4 60 -10 60 -54 0
-5 5 -10 10 -10 6 0 10 9 10 19 0 26 10 51 21 51 5 0 8 -18 7 -40 -2 -47 23
-80 60 -80 21 0 24 4 20 29 -3 20 2 34 17 47 l22 19 -24 18 c-26 21 -31 47 -8
47 23 0 15 53 -10 65 -11 6 -21 21 -23 33 -4 28 -28 29 -42 1z"/>
<path d="M820 500 c0 -5 7 -10 16 -10 8 0 12 5 9 10 -3 6 -10 10 -16 10 -5 0
-9 -4 -9 -10z"/>
<path d="M1130 502 c0 -18 23 -62 32 -62 14 0 9 21 -12 47 -11 14 -20 21 -20
15z"/>
<path d="M2410 494 c0 -8 5 -12 10 -9 6 4 8 11 5 16 -9 14 -15 11 -15 -7z"/>
<path d="M3500 476 c14 -13 27 -22 29 -20 7 6 -31 44 -43 44 -6 0 1 -11 14
-24z"/>
<path d="M780 446 c7 -7 13 -7 20 0 6 6 3 10 -10 10 -13 0 -16 -4 -10 -10z"/>
<path d="M1215 451 c-3 -6 4 -15 15 -21 22 -12 23 -10 14 14 -7 18 -20 21 -29
7z"/>
<path d="M696 411 c-17 -18 -24 -31 -17 -35 13 -8 73 34 68 48 -7 20 -24 16
-51 -13z"/>
<path d="M2311 426 c-13 -15 -7 -36 9 -36 12 0 19 25 11 39 -6 9 -11 8 -20 -3z"/>
<path d="M935 400 c-3 -5 -1 -10 4 -10 6 0 11 5 11 10 0 6 -2 10 -4 10 -3 0
-8 -4 -11 -10z"/>
<path d="M2470 215 l0 -185 25 0 c23 0 25 3 19 28 -4 15 -14 33 -23 40 -15 11
-15 12 0 6 14 -4 16 12 18 145 2 146 1 151 -19 151 -19 0 -20 -6 -20 -185z
m30 -145 c0 -5 -2 -10 -4 -10 -3 0 -8 5 -11 10 -3 6 -1 10 4 10 6 0 11 -4 11
-10z"/>
<path d="M876 354 c-11 -7 -18 -16 -15 -18 2 -2 13 2 23 10 11 7 18 16 15 18
-2 2 -13 -2 -23 -10z"/>
<path d="M2415 353 c4 -14 2 -23 -5 -23 -6 0 -10 -6 -9 -12 3 -24 -1 -39 -9
-34 -4 2 -8 -4 -8 -14 0 -13 4 -16 12 -10 6 6 14 7 18 3 4 -4 4 1 0 11 -5 14
-4 17 4 12 7 -4 12 -1 12 8 0 9 -5 16 -10 16 -6 0 -5 8 2 20 10 16 10 22 -1
32 -11 11 -12 9 -6 -9z"/>
<path d="M625 350 c-3 -5 -2 -10 4 -10 5 0 13 5 16 10 3 6 2 10 -4 10 -5 0
-13 -4 -16 -10z"/>
<path d="M2239 281 c-24 -20 -24 -20 -2 -14 12 3 28 11 34 19 17 21 -5 17 -32
-5z"/>
<path d="M1546 255 c-5 -13 48 -135 59 -135 3 0 5 25 5 55 0 43 -5 58 -22 75
-26 24 -34 25 -42 5z"/>
<path d="M3270 228 c0 -23 4 -37 10 -33 6 4 10 -6 10 -24 0 -16 -4 -33 -10
-36 -5 -3 -10 -11 -10 -16 0 -6 7 -4 15 5 17 17 19 53 5 90 -7 20 -6 27 6 34
14 8 13 10 -5 15 -19 5 -21 1 -21 -35z"/>
<path d="M2242 230 c-10 -17 -10 -20 4 -20 8 0 12 -5 9 -11 -4 -6 2 -5 14 3
12 7 21 16 21 20 0 5 8 8 18 8 15 1 15 2 -2 11 -14 9 -20 8 -27 -2 -6 -10 -9
-11 -9 -1 0 18 -14 15 -28 -8z"/>
<path d="M2390 240 c-13 -8 -12 -10 3 -10 9 0 17 5 17 10 0 12 -1 12 -20 0z"/>
<path d="M489 213 c-5 -14 -17 -32 -26 -38 -13 -10 -14 -13 -2 -20 8 -5 11 -5
8 -1 -4 4 4 18 17 31 13 13 24 31 24 40 0 23 -9 18 -21 -12z"/>
<path d="M1150 210 c0 -5 5 -10 11 -10 5 0 7 5 4 10 -3 6 -8 10 -11 10 -2 0
-4 -4 -4 -10z"/>
<path d="M2383 201 c0 -11 5 -17 9 -15 11 7 10 34 -1 34 -6 0 -9 -9 -8 -19z"/>
<path d="M1650 156 c5 -13 6 -34 3 -46 -4 -16 -3 -21 5 -16 7 4 12 2 12 -3 0
-6 7 -11 15 -11 21 0 19 23 -7 64 -26 40 -42 47 -28 12z"/>
<path d="M1840 160 c-8 -4 -38 -19 -67 -32 l-52 -25 29 -28 c15 -15 31 -27 34
-26 18 3 18 -1 1 -9 -19 -8 -19 -9 2 -9 19 -1 21 4 20 42 -2 48 -5 47 116 34
31 -4 57 -4 57 -2 0 2 -21 13 -47 25 -27 13 -55 26 -63 30 -8 4 -22 4 -30 0z"/>
<path d="M2302 157 c-5 -6 -12 -38 -14 -70 -3 -54 -2 -57 20 -57 21 0 22 4 22
64 0 65 -9 86 -28 63z"/>
<path d="M440 130 c0 -19 3 -21 12 -12 9 9 9 15 0 24 -9 9 -12 7 -12 -12z"/>
<path d="M3404 116 c-3 -19 -12 -37 -20 -40 -20 -8 -17 -26 4 -26 15 0 42 56
42 90 0 25 -20 6 -26 -24z"/>
<path d="M247 133 c-4 -3 -7 -14 -7 -23 0 -10 -7 -23 -15 -30 -15 -12 -12 -30
5 -30 5 0 7 7 4 15 -4 9 0 15 10 15 11 0 16 9 16 30 0 31 -2 35 -13 23z"/>
<path d="M3282 100 c-19 -31 -15 -50 11 -49 16 1 18 2 5 6 -21 5 -23 24 -6 41
6 6 10 14 7 16 -3 3 -10 -4 -17 -14z"/>
<path d="M2222 87 c-12 -13 -22 -29 -22 -36 0 -7 -4 -9 -10 -6 -5 3 -18 1 -27
-4 -15 -9 -13 -10 12 -11 23 0 35 8 54 35 28 42 24 55 -7 22z"/>
<path d="M1104 72 c-14 -9 -26 -42 -15 -42 4 0 13 11 19 25 13 27 12 28 -4 17z"/>
<path d="M670 66 c0 -4 7 -20 15 -36 16 -30 36 -40 34 -17 -1 15 -17 55 -18
43 -1 -5 -8 -3 -16 4 -8 7 -15 9 -15 6z"/>
<path d="M1610 42 c0 -12 19 -26 26 -19 2 2 -2 10 -11 17 -9 8 -15 8 -15 2z"/>
<path d="M890 25 c0 -7 11 -15 25 -18 20 -3 25 -1 23 12 -4 19 -48 24 -48 6z"/>
<path d="M2388 33 c6 -2 18 -2 25 0 6 3 1 5 -13 5 -14 0 -19 -2 -12 -5z"/>
</g>
</svg>
