<?xml version="1.0" standalone="no"?>
<!DOCTYPE svg PUBLIC "-//W3C//DTD SVG 20010904//EN"
 "http://www.w3.org/TR/2001/REC-SVG-20010904/DTD/svg10.dtd">
<svg version="1.0" xmlns="http://www.w3.org/2000/svg"
 width="310.000000pt" height="165.000000pt" viewBox="0 0 310.000000 165.000000"
 preserveAspectRatio="xMidYMid meet">

<g transform="translate(0.000000,165.000000) scale(0.100000,-0.100000)"
fill="#000000" stroke="none">
<path d="M20 1114 l0 -537 28 -23 c15 -13 35 -24 44 -24 9 0 34 -16 55 -35 21
-19 44 -35 51 -35 7 0 18 -11 24 -25 10 -23 20 -30 32 -22 7 4 56 -46 56 -58
0 -6 9 -19 21 -28 20 -17 20 -17 19 0 -1 10 -2 44 -1 76 1 43 5 57 16 57 8 0
15 6 15 14 0 8 -7 21 -15 30 -10 9 -15 34 -15 70 0 54 13 75 22 38 5 -17 17
-19 103 -19 115 -1 215 -11 235 -23 12 -7 11 -14 -5 -44 -23 -42 -50 -58 -40
-23 5 19 3 18 -19 -8 -25 -29 -26 -29 -26 -7 0 13 -6 22 -15 22 -8 0 -15 -8
-15 -18 0 -10 -6 -24 -12 -31 -11 -12 -9 -13 7 -6 11 4 29 8 40 10 11 1 20 3
20 4 0 2 15 3 33 4 24 2 32 -2 32 -15 0 -10 -5 -18 -11 -18 -6 0 -10 -16 -9
-37 3 -59 2 -62 -32 -84 l-33 -20 35 6 c19 4 45 18 58 31 12 14 22 21 22 17 0
-5 -6 -15 -12 -22 -19 -21 11 -3 40 22 26 24 31 4 5 -25 -18 -20 -4 -25 16 -6
10 11 11 10 5 -5 -8 -22 -72 -86 -79 -79 -3 3 -5 -3 -6 -14 0 -10 -3 -13 -6
-7 -3 10 -11 9 -34 -2 -18 -10 -29 -11 -29 -5 0 6 -5 8 -10 5 -6 -4 -8 -10 -5
-15 3 -5 0 -12 -7 -16 -7 -4 -10 -4 -6 0 4 5 1 14 -5 21 -10 11 -15 10 -29 -2
-12 -11 -18 -12 -18 -4 0 9 -5 9 -21 0 -12 -6 -19 -7 -15 -1 3 6 3 18 0 27 -6
15 -9 14 -20 -6 -14 -26 -59 -36 -81 -17 -10 8 -12 7 -7 -6 3 -9 2 -16 -3 -16
-5 0 -13 12 -19 27 l-9 28 -20 -40 c-11 -22 -19 -50 -17 -62 3 -21 9 -23 66
-23 34 0 88 5 120 11 32 6 92 11 134 12 49 1 76 6 75 13 -1 7 70 10 230 9 159
-2 235 1 240 9 6 8 10 7 14 -1 2 -7 11 -13 19 -13 9 0 13 -4 10 -8 -3 -5 -18
-7 -34 -4 -16 2 -33 -1 -36 -7 -4 -6 1 -8 14 -6 11 2 20 0 20 -6 0 -5 -5 -9
-12 -9 -6 0 -8 -3 -5 -6 4 -4 13 -1 21 5 12 10 19 8 36 -9 12 -12 20 -23 18
-25 -2 -2 -28 -5 -58 -6 -30 -1 -60 -6 -67 -11 -7 -6 -42 -8 -79 -6 -41 2 -68
-1 -71 -8 -5 -14 373 -19 382 -4 5 8 10 8 20 0 9 -8 14 -6 19 5 4 12 -5 15
-59 15 -58 0 -65 2 -65 20 0 21 30 27 67 13 16 -6 15 -8 -7 -14 -16 -4 1 -7
48 -8 73 -1 93 -13 50 -31 -22 -8 -22 -9 4 -9 14 -1 29 5 31 12 4 9 6 9 6 0 1
-16 53 -17 69 -1 9 9 12 9 12 0 0 -13 151 -13 160 0 3 4 25 9 48 10 23 2 42 6
42 10 0 4 12 8 28 10 15 2 26 8 24 13 -1 6 12 13 30 16 l33 6 -37 2 c-21 0
-38 -3 -38 -9 0 -5 -8 -6 -17 -3 -11 4 -13 8 -5 11 7 2 9 8 6 13 -3 5 -20 -4
-37 -21 -17 -16 -33 -27 -36 -24 -3 3 5 15 18 26 21 16 22 21 10 29 -25 15
-30 12 -32 -21 0 -12 -37 -39 -42 -31 -2 5 2 14 10 21 24 20 18 40 -11 40 -21
0 -25 -4 -22 -18 3 -12 -2 -24 -14 -31 -18 -11 -19 -10 -16 16 2 21 -2 29 -16
31 -13 3 -17 0 -14 -10 3 -7 -1 -19 -8 -26 -13 -12 -18 -8 -15 12 2 11 -19 36
-31 36 -6 0 -8 -7 -4 -15 3 -8 1 -15 -4 -15 -5 0 -11 9 -15 19 -4 12 -12 18
-21 14 -8 -3 -14 1 -14 10 0 9 -5 19 -12 23 -7 4 -8 3 -4 -4 4 -7 5 -12 2 -12
-3 0 -15 18 -26 40 -23 45 -18 50 19 18 l25 -23 -23 30 c-25 33 -81 52 -93 32
-6 -9 -8 -8 -8 1 0 8 -9 12 -22 10 -23 -3 -77 36 -66 47 3 3 2 22 -2 41 -7 30
-6 33 6 23 8 -7 17 -9 21 -5 3 3 2 6 -4 6 -15 0 -63 98 -63 128 1 35 32 102
59 126 11 11 21 16 21 11 0 -4 6 -3 13 2 6 6 19 11 27 12 8 0 40 4 72 7 52 6
62 4 128 -32 l72 -39 -5 -67 c-2 -37 0 -65 4 -62 5 3 9 13 9 22 0 14 2 14 9 3
15 -23 5 -83 -15 -98 -17 -12 -16 -13 7 -12 13 0 43 -3 67 -7 38 -6 42 -5 35
11 -6 18 -5 18 17 2 14 -9 31 -17 39 -17 11 0 8 5 -7 16 -12 8 -20 19 -17 24
3 5 0 12 -6 16 -8 5 -9 3 -4 -7 5 -8 4 -11 0 -6 -15 13 -13 48 2 43 7 -3 13 1
13 10 0 8 -6 17 -14 20 -8 3 -14 19 -14 40 0 23 4 32 12 27 8 -5 8 -3 0 8 -7
8 -10 47 -9 94 2 70 12 111 40 177 5 13 -1 20 -29 32 -46 19 -96 88 -96 134 0
49 -20 110 -39 117 -8 3 -12 3 -9 -1 4 -3 0 -13 -9 -22 -14 -14 -13 -17 8 -25
l24 -10 -27 -10 c-30 -12 -37 -27 -13 -27 15 0 19 -13 15 -62 -1 -16 3 -28 9
-28 6 0 11 -7 11 -15 0 -8 -7 -15 -16 -15 -10 0 -13 -6 -9 -19 3 -10 -1 -24
-10 -31 -8 -7 -15 -9 -15 -4 0 5 -5 2 -10 -6 -9 -13 -10 -13 -10 0 0 13 -1 13
-10 0 -7 -11 -10 -11 -10 -2 0 7 7 24 16 37 19 28 9 34 -13 8 -14 -17 -14 -17
-9 0 4 11 0 17 -10 17 -10 0 -14 -6 -11 -14 3 -8 -1 -20 -9 -27 -13 -11 -14
-9 -9 14 6 24 4 27 -18 27 -21 0 -24 -4 -21 -22 l5 -23 -12 23 c-15 29 -53 31
-44 2 3 -11 1 -28 -5 -37 -10 -16 -11 -16 -7 4 3 12 -1 30 -8 39 -11 15 -13
13 -20 -22 l-9 -39 -5 33 c-6 35 -28 41 -24 7 2 -19 1 -18 -14 3 -20 28 -32
28 -26 0 4 -20 2 -20 -12 4 -10 19 -20 25 -31 21 -12 -4 -15 -2 -12 8 2 8 14
15 26 17 12 2 22 10 22 18 0 8 -4 12 -10 9 -5 -3 -10 -3 -11 2 0 4 -2 19 -4
33 -3 24 -1 25 43 21 50 -3 55 6 6 13 -55 7 -64 15 -53 44 6 14 7 44 3 66 -10
60 -7 106 11 156 14 40 14 46 0 56 -19 14 -20 25 -1 18 10 -4 14 1 13 14 0 12
-5 20 -10 19 -5 -1 -10 16 -11 38 0 22 -5 40 -11 40 -15 0 -18 -56 -6 -117 9
-54 6 -73 -8 -49 -7 11 -9 11 -13 0 -3 -8 -9 -11 -13 -6 -5 4 -3 13 3 19 7 7
12 19 11 27 0 11 -4 8 -11 -6 -6 -13 -17 -23 -24 -23 -7 0 -21 -3 -31 -7 -16
-6 -16 -5 -4 10 7 9 17 17 22 17 10 0 49 37 49 46 0 6 -62 29 -72 26 -7 -2
-12 13 -9 30 1 8 -55 2 -71 -8 -7 -4 -8 -3 -4 4 5 8 -2 12 -18 12 -20 0 -26 5
-26 21 0 15 5 19 19 14 11 -3 26 1 35 10 14 15 16 15 16 1 0 -9 5 -16 11 -16
5 0 9 10 7 23 -2 16 1 21 15 19 9 -2 17 2 17 8 0 5 5 10 11 10 6 0 9 -9 6 -19
-3 -12 1 -22 11 -26 19 -7 34 14 23 33 -5 8 -6 35 -3 60 l5 45 -37 -22 c-56
-35 -176 -157 -176 -180 0 -11 14 -28 34 -41 84 -51 137 -146 139 -248 2 -58
4 -63 27 -69 38 -9 41 -13 30 -34 -6 -11 -15 -17 -21 -14 -5 4 -9 1 -9 -6 0
-7 -3 -9 -6 -6 -4 3 -15 2 -25 -4 -15 -8 -19 -6 -19 8 0 15 -2 16 -10 3 -6
-10 -5 -17 4 -22 17 -9 9 -65 -10 -72 -8 -3 -17 1 -20 9 -4 8 -10 13 -14 10
-14 -9 -23 16 -11 28 6 6 11 18 11 26 -1 9 -8 3 -17 -13 -27 -51 -36 -57 -50
-32 -12 20 -12 20 -14 -9 -1 -19 -3 -23 -6 -12 -5 18 -5 18 -19 0 -13 -17 -13
-17 -14 5 0 13 -4 20 -10 17 -6 -3 -7 -17 -4 -31 4 -14 2 -24 -5 -24 -6 0 -11
8 -12 18 0 14 -2 14 -8 -3 -7 -17 -10 -14 -20 18 -7 21 -15 36 -18 33 -3 -3 0
-19 6 -37 17 -49 4 -48 -19 2 -11 24 -19 34 -16 23 2 -12 0 -28 -5 -35 -7 -11
-9 -11 -9 -1 0 7 -4 11 -9 8 -4 -3 -6 7 -3 22 5 25 4 26 -12 13 -11 -9 -15
-23 -12 -35 5 -19 4 -20 -8 -3 -19 24 -27 21 -16 -7 6 -17 5 -29 -6 -42 -15
-18 -15 -18 -10 6 3 14 1 32 -5 40 -8 12 -9 10 -4 -7 4 -14 2 -23 -5 -23 -6 0
-8 -4 -5 -10 10 -17 -27 -11 -48 8 -19 16 -19 16 -13 -5 9 -27 3 -29 -18 -7
-9 8 -16 11 -16 6 0 -9 -20 -9 -40 -2 -3 1 -12 2 -21 1 -9 -1 -21 9 -27 21 -9
20 -11 20 -11 4 -1 -13 -6 -16 -18 -11 -10 3 -22 7 -28 8 -5 1 -17 11 -27 22
-9 11 -17 16 -18 11 0 -5 -7 -3 -15 4 -8 7 -13 16 -10 20 3 5 -3 11 -13 14
-10 4 -25 18 -32 32 -17 31 -3 44 48 44 21 0 32 5 32 15 0 8 -9 14 -22 13 -47
-2 -69 2 -63 12 3 6 35 10 71 10 l64 0 0 44 c0 24 9 65 21 91 20 45 19 60 -3
60 -6 0 -13 7 -15 15 -3 9 -1 11 4 5 17 -21 50 -8 110 42 34 28 59 54 55 58
-4 4 -2 6 3 5 6 -1 12 -2 15 -1 3 1 25 4 50 6 32 2 38 1 20 -4 -67 -21 -127
-62 -168 -116 -36 -46 -42 -58 -31 -71 10 -12 9 -13 -4 -8 -21 8 -41 -28 -24
-46 9 -10 9 -11 0 -6 -8 4 -13 1 -13 -8 0 -10 9 -16 24 -16 13 0 30 -8 37 -17
12 -16 12 -17 -2 -5 -23 18 -69 12 -69 -9 0 -16 16 -17 155 -18 100 -1 155 2
155 9 0 5 -4 10 -10 10 -5 0 -10 5 -10 11 0 6 7 8 16 5 15 -6 15 -4 0 19 -16
24 -15 24 6 16 13 -5 23 -14 24 -22 0 -8 2 -17 4 -21 1 -5 3 -14 4 -20 0 -7
12 -13 26 -13 19 0 25 5 24 23 0 12 3 22 8 22 4 0 8 -11 8 -25 0 -23 4 -25 48
-25 26 -1 71 -3 100 -5 l52 -4 0 51 c0 44 -2 49 -15 38 -9 -7 -18 -10 -22 -6
-3 3 -1 6 5 6 20 0 23 37 6 79 -32 80 -155 171 -232 171 -11 0 -24 6 -28 13
-4 6 -4 9 1 5 4 -4 14 -3 21 3 10 8 10 17 -2 46 -8 19 -13 37 -10 40 2 2 7 -5
11 -17 5 -17 9 -19 21 -9 11 9 12 15 3 25 -6 8 -8 14 -3 14 5 0 9 24 9 54 l0
54 -100 0 c-63 1 -94 -3 -84 -8 17 -10 24 -76 10 -99 -6 -9 -8 3 -7 33 3 52
-10 72 -20 29 -3 -15 -8 -34 -10 -42 -4 -11 -2 -12 11 -1 16 13 20 3 7 -16 -8
-13 -44 -15 -36 -2 3 4 -2 8 -10 8 -9 0 -16 7 -16 15 0 8 -7 15 -15 15 -8 0
-15 5 -15 10 0 6 -6 10 -13 10 -8 0 -20 11 -27 25 -9 18 -22 25 -42 25 -15 0
-28 -3 -28 -8 0 -10 38 -42 50 -42 6 0 10 -7 10 -16 0 -8 5 -12 10 -9 6 3 10
-4 10 -16 0 -19 -2 -20 -17 -8 -11 10 -14 10 -9 2 15 -26 -5 -12 -59 41 l-55
55 -245 1 -245 0 0 -536z m837 511 c0 -8 -4 -12 -9 -9 -5 3 -6 10 -3 15 9 13
12 11 12 -6z m-368 -11 c6 4 11 0 11 -8 0 -9 7 -16 15 -16 18 0 19 -9 4 -30
-7 -11 -12 -12 -15 -3 -3 7 -12 9 -20 6 -10 -4 -12 0 -8 11 3 9 1 16 -5 16 -6
0 -11 10 -11 23 0 16 3 18 9 8 5 -7 14 -10 20 -7z m-80 -45 c-16 -10 -23 -4
-14 10 3 6 11 8 17 5 6 -4 5 -9 -3 -15z m146 -9 c3 -5 1 -10 -4 -10 -6 0 -11
5 -11 10 0 6 2 10 4 10 3 0 8 -4 11 -10z m-150 -20 c3 -5 1 -10 -4 -10 -6 0
-11 5 -11 10 0 6 2 10 4 10 3 0 8 -4 11 -10z m-23 -24 c7 4 8 2 4 -5 -9 -13
-26 -5 -25 12 0 9 2 8 6 -1 2 -6 10 -9 15 -6z m58 -6 c0 -5 -7 -10 -16 -10 -8
0 -12 5 -9 10 3 6 10 10 16 10 5 0 9 -4 9 -10z m40 -10 c0 -5 -4 -10 -9 -10
-6 0 -13 5 -16 10 -3 6 1 10 9 10 9 0 16 -4 16 -10z m-45 -15 c17 -3 37 -6 45
-8 126 -28 149 -34 155 -37 7 -3 22 -7 36 -9 5 0 7 -6 4 -12 -5 -7 -15 -5 -31
6 -13 8 -24 11 -24 5 0 -5 -5 -10 -11 -10 -5 0 -7 5 -4 10 3 6 1 10 -4 10 -6
0 -11 -4 -11 -10 0 -5 -5 -10 -11 -10 -5 0 -8 4 -4 9 9 16 -36 25 -47 10 -7
-11 -11 -11 -15 -2 -3 10 -8 10 -18 -1 -10 -9 -27 -11 -61 -6 -26 4 -55 5 -66
2 -14 -3 -18 1 -18 25 0 36 6 43 33 37 12 -2 36 -6 52 -9z m285 -1 c0 -2 -7
-4 -15 -4 -8 0 -15 4 -15 10 0 5 7 7 15 4 8 -4 15 -8 15 -10z m0 -34 c0 -5 -4
-10 -10 -10 -5 0 -10 5 -10 10 0 6 5 10 10 10 6 0 10 -4 10 -10z m177 -16 c-3
-3 -12 -4 -19 -1 -8 3 -5 6 6 6 11 1 17 -2 13 -5z m-517 -76 c0 -6 -6 -5 -15
2 -8 7 -15 14 -15 16 0 2 7 1 15 -2 8 -4 15 -11 15 -16z m17 -10 c-3 -8 -6 -5
-6 6 -1 11 2 17 5 13 3 -3 4 -12 1 -19z m67 11 c3 -3 -4 -5 -14 -6 -11 -1 -20
2 -20 7 0 8 25 8 34 -1z m29 -43 c15 0 26 -5 24 -11 -5 -13 -126 -15 -150 -3
-31 16 -8 27 46 21 28 -3 64 -6 80 -7z m73 -18 c3 -4 -1 -5 -10 -4 -8 1 -18 5
-22 8 -3 4 1 5 10 4 8 -1 18 -5 22 -8z m-78 -32 c3 -4 -24 -6 -61 -5 -37 1
-70 6 -73 10 -6 10 124 5 134 -5z m642 -16 c0 -5 -8 -10 -17 -10 -15 0 -16 2
-3 10 19 12 20 12 20 0z m17 -36 c-3 -3 -12 -4 -19 -1 -8 3 -5 6 6 6 11 1 17
-2 13 -5z m-722 -14 c-3 -5 -16 -10 -28 -9 -20 1 -20 2 3 9 14 4 26 8 28 9 2
1 0 -3 -3 -9z m232 -16 c-3 -3 -12 -4 -19 -1 -8 3 -5 6 6 6 11 1 17 -2 13 -5z
m-200 -236 c-3 -8 -6 -5 -6 6 -1 11 2 17 5 13 3 -3 4 -12 1 -19z m60 -68 c-1
-21 -7 -30 -19 -30 -21 0 -22 10 -7 44 15 32 29 24 26 -14z m1066 -30 c-3 -12
-8 -19 -11 -16 -5 6 5 36 12 36 2 0 2 -9 -1 -20z m-839 -62 c-3 -5 -12 -7 -20
-4 -8 3 -11 0 -8 -8 6 -15 44 -10 44 5 0 14 50 10 66 -5 17 -17 50 -10 59 12
5 14 7 14 15 2 7 -10 10 -11 10 -2 0 9 41 12 170 12 155 0 170 -2 170 -17 1
-17 1 -17 14 -1 7 10 15 16 17 14 2 -2 31 -6 64 -9 32 -3 61 -9 63 -15 2 -6
27 -8 63 -5 51 5 58 3 53 -10 -3 -9 -9 -16 -12 -15 -4 0 -37 0 -74 -1 l-68 -1
-2 -37 -1 -38 -4 38 -4 38 -82 -3 -82 -3 -3 -32 c-2 -18 -8 -33 -14 -33 -6 0
-8 13 -6 30 4 28 3 30 -31 32 -20 1 -49 3 -66 4 -83 6 -193 6 -202 1 -15 -10
-65 0 -74 14 -6 10 -9 10 -9 2 0 -9 -14 -12 -40 -11 -22 1 -42 -1 -45 -4 -3
-2 4 -22 15 -43 27 -53 25 -73 -6 -81 -35 -9 -105 2 -115 18 -14 21 -10 29 9
19 10 -5 37 -7 60 -4 35 5 42 9 42 28 0 28 -24 49 -46 41 -12 -4 -15 -2 -10 9
4 12 -2 15 -28 15 -19 0 -36 -5 -38 -11 -4 -12 -46 6 -60 25 -4 6 -12 5 -20
-1 -13 -11 -67 -17 -119 -14 -22 1 -26 6 -27 31 l-1 31 195 -2 c120 -1 192 -5
188 -11z m1015 -33 c2 -3 -39 -5 -92 -5 -53 0 -98 4 -101 9 -6 9 184 5 193 -4z
m-601 -62 c2 -14 -4 -22 -17 -26 -18 -4 -21 0 -21 23 0 21 4 28 18 26 9 -2 18
-12 20 -23z m-788 -27 c0 -3 -4 -8 -10 -11 -5 -3 -10 -1 -10 4 0 6 5 11 10 11
6 0 10 -2 10 -4z m1372 -72 c-2 -13 -9 -21 -15 -17 -6 4 -8 -2 -4 -17 4 -14 2
-19 -3 -14 -5 5 -12 24 -16 41 -5 27 -4 31 18 31 21 0 24 -5 20 -24z m-616
-61 c-2 -5 -25 -17 -50 -28 -58 -25 -59 -38 -2 -32 49 5 177 -31 184 -52 2 -7
-8 -26 -24 -42 -29 -30 -27 -36 6 -19 17 9 19 7 15 -19 -2 -16 -11 -41 -20
-55 -18 -27 -31 -36 -20 -13 4 6 -3 1 -14 -13 -15 -18 -19 -20 -15 -6 6 16 4
17 -13 8 -11 -6 -24 -8 -28 -4 -5 4 -5 2 -2 -4 4 -6 -5 -22 -18 -34 -14 -13
-25 -19 -25 -13 0 6 7 13 15 17 8 3 15 12 15 19 0 8 -7 14 -15 14 -8 0 -15 -6
-15 -13 0 -6 -7 -14 -15 -18 -9 -3 -15 0 -15 9 0 21 -9 19 -31 -7 l-19 -21 0
21 c0 29 -26 28 -35 0 l-7 -23 -7 25 c-4 14 -15 27 -25 28 -14 3 -17 0 -13
-12 4 -9 2 -16 -3 -16 -6 0 -10 6 -10 14 0 7 -7 19 -15 26 -13 11 -15 10 -9
-6 5 -18 5 -18 -7 0 -6 11 -23 29 -36 40 -20 17 -23 27 -18 49 5 18 12 26 21
23 18 -7 18 2 -1 21 -9 8 -14 20 -12 26 5 16 69 47 98 47 14 0 60 16 100 35
75 35 94 41 85 28z m-269 -70 c-3 -10 -5 -4 -5 12 0 17 2 24 5 18 2 -7 2 -21
0 -30z m790 -409 c-3 -3 -12 -4 -19 -1 -8 3 -5 6 6 6 11 1 17 -2 13 -5z"/>
<path d="M483 773 c-7 -17 6 -31 15 -16 4 6 16 13 27 15 16 3 15 5 -8 10 -20
4 -30 1 -34 -9z"/>
<path d="M682 775 c-11 -12 -10 -15 3 -15 8 0 15 7 15 15 0 18 -2 18 -18 0z"/>
<path d="M1000 770 c0 -5 5 -10 10 -10 6 0 10 5 10 10 0 6 -4 10 -10 10 -5 0
-10 -4 -10 -10z"/>
<path d="M1057 443 c-3 -5 -1 -17 4 -28 7 -17 8 -17 8 8 1 27 -4 34 -12 20z"/>
<path d="M957 420 c3 -11 7 -20 9 -20 2 0 4 9 4 20 0 11 -4 20 -9 20 -5 0 -7
-9 -4 -20z"/>
<path d="M1010 428 c0 -9 7 -19 16 -22 15 -6 15 -4 3 11 -7 10 -15 20 -16 22
-2 2 -3 -3 -3 -11z"/>
<path d="M1100 413 c1 -27 1 -27 15 -9 19 25 19 36 0 36 -10 0 -15 -10 -15
-27z"/>
<path d="M1146 431 c-4 -5 -3 -17 0 -26 5 -13 8 -14 15 -3 5 7 9 19 9 26 0 14
-16 16 -24 3z"/>
<path d="M1195 410 c3 -5 8 -10 11 -10 2 0 4 5 4 10 0 6 -5 10 -11 10 -5 0 -7
-4 -4 -10z"/>
<path d="M986 401 c-3 -5 1 -11 9 -14 9 -4 12 -1 8 9 -6 16 -10 17 -17 5z"/>
<path d="M890 373 c0 -16 28 -43 46 -43 12 0 13 4 3 21 -8 16 -13 18 -19 9 -6
-9 -10 -8 -19 6 -6 11 -11 14 -11 7z"/>
<path d="M1187 356 c-4 -10 -5 -21 -2 -24 9 -9 17 6 13 25 -3 17 -4 17 -11 -1z"/>
<path d="M960 340 c0 -11 7 -20 15 -20 17 0 18 2 9 24 -9 23 -24 20 -24 -4z"/>
<path d="M1085 348 c-9 -22 1 -38 25 -38 24 0 29 10 20 34 -6 19 -7 19 -14 0
-8 -19 -8 -19 -16 1 -7 18 -9 18 -15 3z"/>
<path d="M1147 347 c-3 -9 -2 -19 4 -23 15 -9 18 -2 9 20 -6 17 -7 18 -13 3z"/>
<path d="M840 341 c0 -5 7 -12 16 -15 14 -5 15 -4 4 9 -14 17 -20 19 -20 6z"/>
<path d="M1000 340 c0 -6 6 -13 13 -15 28 -9 46 -9 45 0 0 6 -4 9 -9 8 -5 -2
-9 2 -9 7 0 6 -9 10 -20 10 -11 0 -20 -5 -20 -10z"/>
<path d="M680 1645 c0 -9 27 -35 36 -35 4 0 13 -8 20 -17 12 -16 13 -14 14 17
0 34 -2 36 -35 38 -19 2 -35 0 -35 -3z"/>
<path d="M1056 1638 c-3 -7 -7 -33 -10 -58 -6 -41 -5 -43 9 -26 8 11 15 25 15
32 0 6 9 23 21 38 l20 26 -26 0 c-14 0 -27 -6 -29 -12z"/>
<path d="M1127 1628 c-4 -12 -7 -25 -8 -28 0 -3 -6 -12 -12 -20 -7 -8 6 -1 28
15 22 17 43 34 46 39 4 5 12 5 19 1 9 -5 11 -4 6 3 -9 15 -43 15 -52 1 -5 -8
-9 -8 -14 1 -5 8 -9 4 -13 -12z"/>
<path d="M1225 1640 c-3 -6 1 -7 9 -4 18 7 21 14 7 14 -6 0 -13 -4 -16 -10z"/>
<path d="M1270 1620 c0 -35 17 -40 29 -7 10 26 6 37 -15 37 -9 0 -14 -11 -14
-30z"/>
<path d="M1320 1640 c0 -12 46 -18 63 -9 11 7 16 0 21 -31 4 -23 12 -40 19
-40 8 0 14 -7 14 -15 0 -18 -13 -20 -21 -2 -3 6 -5 -1 -5 -18 2 -53 -1 -66
-11 -60 -5 3 -10 26 -10 50 0 24 -4 46 -10 50 -5 3 -7 12 -3 20 6 18 -14 20
-31 2 -20 -19 -11 -84 14 -105 13 -11 13 -12 0 -10 -15 3 -16 -1 -11 -84 l1
-33 20 25 c11 14 20 36 20 49 0 18 3 21 13 12 11 -8 21 -4 43 19 34 34 49 39
34 10 -10 -19 -9 -20 8 -9 11 7 18 19 15 26 -3 7 -1 13 5 13 5 0 12 8 16 18 3
9 9 24 13 32 5 13 4 13 -10 1 -19 -15 -52 -7 -42 10 4 6 13 8 21 5 8 -3 21 -3
29 0 11 5 8 11 -14 30 -16 13 -34 24 -40 24 -7 0 -14 7 -17 15 -4 10 -24 14
-75 14 -38 0 -69 -4 -69 -9z m40 -70 c-6 -11 -13 -20 -16 -20 -2 0 0 9 6 20 6
11 13 20 16 20 2 0 0 -9 -6 -20z m20 -141 c0 -5 -4 -9 -10 -9 -5 0 -10 7 -10
16 0 8 5 12 10 9 6 -3 10 -10 10 -16z"/>
<path d="M1515 1640 c-7 -12 18 -24 37 -18 8 3 5 9 -9 16 -14 8 -24 9 -28 2z"/>
<path d="M1606 1635 c3 -7 14 -11 25 -8 14 4 19 0 19 -17 0 -19 -5 -21 -37
-18 -21 2 -42 8 -46 13 -5 6 -7 4 -4 -5 2 -8 10 -16 18 -16 8 -1 19 -2 26 -3
15 -1 5 -31 -11 -31 -6 0 -17 -4 -25 -9 -12 -8 -12 -12 2 -26 10 -9 23 -14 30
-12 8 4 8 6 -2 6 -11 1 -10 5 5 16 10 8 22 15 26 15 8 0 5 -21 -5 -37 -5 -7
-1 -9 12 -6 12 3 17 11 14 19 -3 8 1 14 10 14 9 0 23 3 33 7 13 5 15 3 9 -8
-6 -11 -5 -12 6 -1 18 17 42 15 35 -3 -8 -23 8 -18 32 10 22 25 52 25 52 -1 0
-8 8 -14 19 -14 10 0 21 -9 24 -20 3 -11 1 -18 -4 -14 -5 3 -9 0 -9 -6 0 -5
13 -9 30 -8 25 2 29 5 24 25 -5 17 -2 23 10 23 9 0 16 8 16 20 0 15 7 20 26
20 21 0 24 -4 19 -20 -5 -15 -3 -18 8 -14 17 6 28 39 20 60 -4 12 -8 12 -22 2
-14 -11 -14 -11 -4 3 7 8 10 25 6 37 -6 25 -40 30 -40 7 0 -10 6 -14 16 -10
13 4 12 2 -1 -9 -10 -7 -18 -20 -18 -29 0 -19 -23 -28 -41 -16 -11 8 -10 13 9
26 12 8 22 24 22 34 0 16 -8 19 -42 19 -28 0 -38 -3 -30 -9 10 -6 8 -10 -9
-14 -22 -6 -22 -7 -4 -27 20 -22 16 -32 -15 -37 -25 -4 -35 14 -18 34 11 15
11 16 -5 10 -10 -4 -23 -7 -28 -7 -5 0 -9 -9 -9 -20 0 -24 -23 -26 -47 -5 -10
8 -27 22 -38 30 -14 12 -16 18 -7 21 25 11 10 19 -37 21 -38 1 -49 -2 -45 -12z
m281 -21 c-3 -3 -12 -4 -19 -1 -8 3 -5 6 6 6 11 1 17 -2 13 -5z m-202 -54
c-26 -11 -35 -12 -35 -2 0 4 12 8 28 9 23 1 24 1 7 -7z m215 -17 c0 -7 -9 -13
-20 -13 -12 0 -17 5 -14 13 3 8 11 14 19 14 8 0 15 -6 15 -14z"/>
<path d="M1744 1638 c-3 -4 -3 -8 1 -8 3 0 1 -9 -5 -20 -11 -21 -4 -25 20 -10
8 5 11 12 7 16 -4 4 -2 12 3 19 7 8 5 12 -6 12 -8 0 -17 -4 -20 -9z"/>
<path d="M2015 1640 c3 -5 8 -10 11 -10 2 0 4 5 4 10 0 6 -5 10 -11 10 -5 0
-7 -4 -4 -10z"/>
<path d="M2030 1625 c-11 -20 -11 -28 -1 -38 10 -9 11 -9 6 4 -4 10 -2 20 4
24 6 3 11 1 11 -6 0 -7 3 -9 7 -6 3 4 11 0 17 -8 9 -12 11 -8 13 20 3 31 0 35
-20 35 -15 0 -29 -9 -37 -25z"/>
<path d="M2133 1629 c4 -13 7 -37 7 -52 0 -16 3 -26 8 -24 7 5 9 -6 15 -63 1
-14 5 -27 8 -30 12 -10 21 -82 10 -75 -6 3 -14 -2 -18 -12 -4 -10 -13 -23 -21
-29 -10 -8 -12 -13 -4 -18 6 -3 16 3 22 14 6 11 17 20 24 20 21 0 26 49 11
110 -8 30 -20 82 -27 114 -8 33 -20 62 -27 64 -10 3 -12 -2 -8 -19z"/>
<path d="M2219 1601 c-1 -25 -2 -87 -3 -137 l-1 -92 27 14 c53 27 42 13 -17
-22 -101 -60 -126 -84 -132 -132 -4 -28 -9 -40 -15 -34 -14 14 7 74 32 97 27
24 25 33 -5 27 -15 -2 -25 0 -25 7 0 10 4 12 25 11 15 -1 30 27 32 59 l2 36
-15 -34 c-8 -19 -24 -41 -35 -49 -11 -8 -18 -20 -15 -28 3 -8 1 -14 -4 -14 -6
0 -10 5 -10 10 0 6 -5 10 -11 10 -5 0 -7 -4 -4 -10 3 -5 -3 -10 -14 -10 -31 0
-25 17 12 37 24 13 28 18 15 21 -9 2 -27 -2 -39 -9 -19 -10 -21 -9 -16 5 4 10
3 15 -3 11 -13 -8 -13 -35 1 -35 5 0 7 -5 4 -10 -4 -6 -1 -18 7 -27 10 -13 10
-17 1 -20 -7 -3 -13 -9 -13 -14 0 -6 4 -8 9 -4 6 3 13 -11 17 -32 4 -20 16
-57 26 -80 15 -35 19 -63 17 -143 -1 -56 -6 -96 -9 -89 -5 7 -9 5 -13 -5 -4
-9 -2 -16 4 -16 5 0 30 -21 56 -47 l47 -46 125 2 c97 2 123 -1 114 -10 -6 -6
-35 -13 -65 -14 -29 -1 -63 -3 -76 -4 -47 -2 -12 -16 37 -15 28 1 51 -2 51 -7
0 -5 -34 -9 -75 -9 l-75 0 0 -47 c0 -43 3 -50 30 -65 26 -15 30 -21 24 -45 -4
-15 -11 -32 -15 -38 -13 -13 -11 -52 3 -74 7 -11 8 -26 3 -37 -5 -11 -7 -40
-6 -66 3 -51 -31 -124 -51 -112 -6 4 -8 2 -4 -4 9 -14 -4 -21 -60 -31 -35 -7
-53 -6 -66 3 -10 7 -15 16 -11 20 4 4 0 4 -10 0 -10 -3 -17 -1 -17 6 0 6 -4 8
-10 5 -5 -3 -10 -1 -10 4 0 6 -7 11 -15 11 -10 0 -15 -10 -15 -32 -1 -18 -7
-44 -15 -58 -8 -14 -14 -28 -15 -32 0 -8 24 -4 60 10 14 5 28 10 33 10 51 2
111 18 159 43 10 5 100 9 201 9 130 0 199 4 240 15 32 8 77 15 100 16 23 0 36
3 30 6 -7 2 -13 9 -13 15 0 6 6 8 14 5 8 -3 17 -1 20 6 12 29 26 -23 25 -90
-2 -80 1 -76 -79 -88 -43 -7 -44 -6 -25 9 19 15 9 16 -130 10 -82 -3 -154 -8
-159 -12 -6 -3 -29 -5 -53 -3 -28 2 -43 -2 -43 -9 0 -7 8 -10 20 -7 11 3 23 1
26 -4 3 -5 2 -9 -3 -8 -22 4 -64 -2 -60 -8 3 -5 -21 -9 -54 -10 -32 -1 -71 -5
-86 -8 -15 -3 -71 -8 -123 -11 -265 -18 -254 -21 78 -23 188 0 342 3 342 7 0
5 16 8 36 7 27 -2 34 1 29 13 -4 12 -3 12 9 3 11 -9 15 -9 19 1 3 7 6 3 6 -9
1 -23 31 -34 31 -12 0 8 4 8 13 1 8 -7 102 -11 260 -12 l247 -1 0 811 0 810
-154 0 c-97 0 -157 -4 -161 -10 -5 -7 -11 -8 -19 -1 -6 6 -90 10 -194 10 -154
1 -183 -1 -188 -14 -3 -8 -11 -12 -18 -8 -6 3 -8 3 -4 -2 16 -17 -53 -112 -72
-100 -11 7 -2 60 17 98 l14 28 -50 -2 -51 -3 -1 -45z m451 -47 c0 -8 -4 -12
-10 -9 -5 3 -10 10 -10 16 0 5 5 9 10 9 6 0 10 -7 10 -16z m7 -66 c-3 -7 -5
-2 -5 12 0 14 2 19 5 13 2 -7 2 -19 0 -25z m-241 -125 c37 -15 86 -46 110 -68
35 -33 44 -50 54 -100 6 -33 15 -67 19 -75 3 -8 4 -33 0 -55 -4 -28 -7 -32 -8
-15 -3 25 -3 25 -17 -5 l-14 -30 5 32 c7 38 -9 51 -34 29 -17 -16 -19 -16 -25
1 -4 9 -4 14 0 10 4 -4 14 2 22 14 14 20 14 20 34 -3 l20 -23 -5 35 c-8 58
-16 85 -27 88 -6 2 -8 7 -5 12 7 12 -21 73 -42 91 -23 19 -49 32 -143 69 -43
18 -61 29 -43 26 18 -3 63 -18 99 -33z m213 6 c-19 -12 -24 -2 -8 17 9 11 14
13 17 4 3 -7 -2 -16 -9 -21z m-23 -74 c-1 -36 -16 -51 -16 -16 0 18 9 51 14
51 2 0 2 -16 2 -35z m-176 0 c0 -2 -10 -9 -22 -15 -22 -11 -22 -10 -4 4 21 17
26 19 26 11z m1 -88 c-10 -9 -11 -8 -5 6 3 10 9 15 12 12 3 -3 0 -11 -7 -18z
m89 9 c0 -3 -4 -8 -10 -11 -5 -3 -10 -1 -10 4 0 6 5 11 10 11 6 0 10 -2 10 -4z
m-50 -36 c-6 -11 -13 -20 -16 -20 -2 0 0 9 6 20 6 11 13 20 16 20 2 0 0 -9 -6
-20z m-390 -30 c0 -11 -2 -20 -4 -20 -2 0 -6 9 -9 20 -3 11 -1 20 4 20 5 0 9
-9 9 -20z m225 -20 c29 -20 42 -35 39 -45 -12 -31 -54 -4 -46 28 4 17 2 18
-16 8 -16 -8 -21 -7 -26 5 -16 42 -7 43 49 4z m450 -10 c2 -4 -3 -16 -11 -26
-9 -10 -12 -13 -8 -5 5 10 3 12 -5 7 -7 -5 -10 -15 -7 -23 3 -8 2 -11 -3 -8
-13 7 -23 -11 -25 -46 -1 -17 -7 -34 -12 -37 -5 -4 -17 -20 -27 -35 -10 -16
-23 -25 -29 -21 -7 5 -9 2 -5 -9 4 -10 2 -16 -5 -14 -6 1 -13 -4 -16 -12 -3
-9 0 -11 7 -6 9 5 9 1 -1 -14 -14 -22 -28 -28 -28 -11 0 6 11 33 25 60 14 28
21 50 15 50 -9 0 -35 -50 -55 -105 -4 -11 -9 -15 -12 -9 -2 6 5 34 15 61 15
41 16 51 5 61 -15 15 -18 36 -3 27 6 -3 10 -1 10 5 0 6 5 8 10 5 6 -4 8 -12 4
-18 -3 -7 2 -3 10 7 9 11 16 23 16 28 0 4 5 8 10 8 6 0 10 -7 10 -15 0 -26 14
-16 43 29 15 24 25 50 22 59 -5 10 1 15 20 15 14 0 27 -4 30 -8z m-71 -13 c11
-10 10 -15 -1 -25 -7 -7 -13 -10 -13 -5 0 4 -7 -2 -15 -13 -13 -18 -14 -18 -9
6 l5 25 -16 -25 -16 -25 7 25 c12 47 34 61 58 37z m-440 -13 c9 -8 16 -27 16
-41 0 -26 0 -26 -22 -7 -29 24 -38 36 -38 52 0 17 25 15 44 -4z m234 4 c15
-15 16 -38 2 -38 -5 0 -10 9 -10 19 0 11 -6 22 -12 24 -7 3 -8 6 -2 6 5 1 15
-4 22 -11z m-313 -9 c12 -19 -5 -23 -22 -6 -16 16 -16 17 -1 17 9 0 20 -5 23
-11z m252 -4 c9 -24 -1 -27 -15 -5 -8 13 -8 20 -2 20 6 0 13 -7 17 -15z m-307
-5 c0 -5 -4 -10 -9 -10 -6 0 -13 5 -16 10 -3 6 1 10 9 10 9 0 16 -4 16 -10z
m200 -45 c0 -8 -2 -15 -4 -15 -2 0 -6 7 -10 15 -3 8 -1 15 4 15 6 0 10 -7 10
-15z m107 -7 c-3 -8 -6 -5 -6 6 -1 11 2 17 5 13 3 -3 4 -12 1 -19z m16 -40
c-2 -5 -17 -8 -34 -8 -16 0 -29 3 -29 8 0 4 15 7 34 7 19 0 32 -3 29 -7z m325
-164 c16 -5 22 -14 22 -36 l0 -30 -60 5 c-33 3 -60 4 -60 3 0 -2 12 -29 26
-61 22 -47 25 -65 20 -106 -4 -27 -9 -55 -12 -63 -4 -10 2 -12 20 -9 21 4 26
1 26 -15 0 -12 -5 -24 -11 -27 -6 -4 -8 -14 -5 -22 3 -8 3 -20 -1 -26 -4 -7
-8 -20 -8 -29 -1 -13 2 -15 10 -8 15 12 41 4 49 -16 6 -17 1 -18 -24 -4 -16 8
-18 8 -14 -5 4 -8 -1 -17 -10 -21 -9 -3 -16 -12 -16 -19 0 -28 -92 -76 -105
-55 -3 5 -17 7 -30 4 -19 -3 -25 0 -25 13 0 15 -2 15 -15 -3 -11 -14 -14 -15
-15 -4 0 13 -1 13 -11 0 -8 -12 -12 -12 -16 -2 -4 10 -8 10 -19 1 -11 -9 -14
-9 -14 1 0 7 -7 10 -16 6 -13 -5 -15 -2 -11 14 7 27 -1 25 -13 -2 -8 -22 -9
-22 -9 4 -1 30 -21 49 -22 21 0 -15 -2 -15 -11 4 -6 12 -20 23 -31 25 -28 4
-34 28 -8 28 14 0 19 5 15 15 -6 14 6 20 29 16 5 -1 7 4 4 11 -2 7 -10 12 -16
10 -6 -1 -11 2 -11 8 0 5 -7 7 -15 4 -17 -7 -39 40 -31 63 3 8 -1 16 -9 19 -8
4 -15 10 -15 16 0 5 5 6 11 2 8 -4 9 1 4 16 -22 68 10 155 77 215 31 27 38 29
135 32 78 3 103 0 103 -9 0 -10 2 -10 8 -1 4 6 25 13 47 16 22 2 45 4 50 5 6
1 20 -1 33 -4z m33 -397 c-10 -9 -11 -8 -5 6 3 10 9 15 12 12 3 -3 0 -11 -7
-18z m-231 -352 c7 -9 8 -15 2 -15 -5 0 -12 7 -16 15 -3 8 -4 15 -2 15 2 0 9
-7 16 -15z"/>
<path d="M2657 950 c-3 -11 -3 -20 -1 -20 2 0 8 9 14 20 6 11 7 20 2 20 -6 0
-12 -9 -15 -20z"/>
<path d="M2678 793 c7 -3 16 -2 19 1 4 3 -2 6 -13 5 -11 0 -14 -3 -6 -6z"/>
<path d="M2356 685 c-3 -9 -6 -22 -5 -28 0 -7 5 -1 10 12 5 13 8 26 5 28 -2 2
-6 -3 -10 -12z"/>
<path d="M2420 440 c0 -19 3 -21 12 -12 9 9 9 15 0 24 -9 9 -12 7 -12 -12z"/>
<path d="M2550 419 c0 -5 5 -7 10 -4 6 3 10 8 10 11 0 2 -4 4 -10 4 -5 0 -10
-5 -10 -11z"/>
<path d="M2474 329 c-3 -6 -1 -16 5 -22 8 -8 11 -5 11 11 0 24 -5 28 -16 11z"/>
<path d="M2510 325 c0 -8 4 -15 10 -15 5 0 7 7 4 15 -4 8 -8 15 -10 15 -2 0
-4 -7 -4 -15z"/>
<path d="M2581 314 c0 -11 3 -14 6 -6 3 7 2 16 -1 19 -3 4 -6 -2 -5 -13z"/>
<path d="M1288 1532 c-8 -30 8 -50 17 -22 4 12 3 26 -3 32 -6 6 -11 2 -14 -10z"/>
<path d="M2080 1536 c0 -9 -7 -16 -15 -16 -8 0 -15 -7 -15 -15 0 -20 19 -19
26 0 5 12 10 13 19 5 11 -9 12 -7 8 10 -7 25 -23 37 -23 16z"/>
<path d="M980 1490 c-2 -33 -4 -38 -7 -17 -2 15 -8 25 -13 22 -13 -8 0 -45 20
-55 14 -7 19 -5 23 10 3 11 1 20 -3 20 -5 0 -11 15 -13 33 -3 28 -4 26 -7 -13z"/>
<path d="M1031 1514 c0 -11 3 -14 6 -6 3 7 2 16 -1 19 -3 4 -6 -2 -5 -13z"/>
<path d="M1180 1499 c0 -5 5 -7 10 -4 6 3 10 8 10 11 0 2 -4 4 -10 4 -5 0 -10
-5 -10 -11z"/>
<path d="M1960 1500 c0 -5 -6 -10 -14 -10 -20 0 -32 -40 -15 -51 7 -4 18 -5
24 -1 5 3 4 -2 -4 -11 -12 -15 -12 -17 3 -11 9 3 16 1 16 -6 0 -6 4 -9 9 -6 5
4 12 0 14 -6 4 -9 6 -9 6 -1 1 6 -6 18 -14 26 -8 8 -11 17 -8 21 4 3 1 6 -5 6
-17 0 -15 27 3 34 8 3 15 10 15 16 0 5 -7 10 -15 10 -8 0 -15 -4 -15 -10z"/>
<path d="M1996 1482 c-3 -5 1 -9 9 -9 8 0 15 4 15 9 0 4 -4 8 -9 8 -6 0 -12
-4 -15 -8z"/>
<path d="M2054 1465 c16 -12 18 -19 8 -40 -6 -14 -7 -25 -2 -25 4 0 15 -7 23
-14 13 -13 15 -12 15 11 0 19 -3 22 -10 12 -7 -11 -8 -9 -4 4 3 10 6 21 6 23
0 3 5 2 10 -1 6 -3 10 1 10 9 0 18 -5 21 -45 30 -28 6 -29 5 -11 -9z"/>
<path d="M1220 1448 c0 -14 18 -17 34 -5 14 11 13 12 -9 12 -14 0 -25 -3 -25
-7z"/>
<path d="M2030 1452 c0 -12 19 -26 26 -19 2 2 -2 10 -11 17 -9 8 -15 8 -15 2z"/>
<path d="M1790 1232 c-19 -7 -35 -26 -60 -74 -22 -41 -19 -82 7 -92 12 -5 14
-1 10 19 -3 19 -1 25 9 21 11 -4 13 1 8 18 -3 13 -1 27 5 30 6 4 9 1 5 -7 -6
-17 21 -41 36 -32 5 3 10 12 10 20 0 7 8 21 17 31 16 15 17 15 23 -1 6 -17 8
-16 28 5 12 13 22 20 22 16 0 -5 8 -2 18 5 9 7 14 9 10 5 -4 -5 -3 -15 3 -23
9 -10 15 -11 26 -1 11 9 16 9 24 -3 7 -12 9 -12 9 1 0 32 -159 79 -210 62z
m-53 -104 c-3 -8 -6 -5 -6 6 -1 11 2 17 5 13 3 -3 4 -12 1 -19z"/>
<path d="M1922 1150 c0 -14 2 -19 5 -12 2 6 2 18 0 25 -3 6 -5 1 -5 -13z"/>
<path d="M1835 1140 c3 -5 8 -10 11 -10 2 0 4 5 4 10 0 6 -5 10 -11 10 -5 0
-7 -4 -4 -10z"/>
<path d="M2031 1116 c-1 -16 -3 -17 -18 -5 -17 13 -17 12 0 -13 10 -16 14 -28
10 -28 -5 0 -3 -4 4 -8 8 -5 8 -18 -1 -54 -12 -49 -28 -76 -25 -42 5 50 -1 66
-21 61 -11 -3 -20 0 -20 6 0 6 -3 7 -6 4 -4 -4 -2 -12 4 -20 11 -12 10 -42 -3
-83 -5 -17 -3 -20 17 -19 13 1 28 -2 35 -7 22 -18 43 32 42 102 -1 62 -15 146
-18 106z"/>
<path d="M611 1064 c0 -11 3 -14 6 -6 3 7 2 16 -1 19 -3 4 -6 -2 -5 -13z"/>
<path d="M1910 1070 c0 -6 4 -9 9 -6 5 4 12 1 14 -4 3 -6 4 -5 3 2 -3 15 -26
23 -26 8z"/>
<path d="M725 1060 c3 -5 11 -10 16 -10 6 0 7 5 4 10 -3 6 -11 10 -16 10 -6 0
-7 -4 -4 -10z"/>
<path d="M795 1060 c-3 -5 -1 -10 4 -10 6 0 11 5 11 10 0 6 -2 10 -4 10 -3 0
-8 -4 -11 -10z"/>
<path d="M1610 1040 c0 -5 5 -10 10 -10 6 0 10 5 10 10 0 6 -4 10 -10 10 -5 0
-10 -4 -10 -10z"/>
<path d="M800 1005 c0 -8 5 -15 10 -15 6 0 10 7 10 15 0 8 -4 15 -10 15 -5 0
-10 -7 -10 -15z"/>
<path d="M895 1007 c-4 -10 -5 -21 -1 -24 10 -10 18 4 13 24 -4 17 -4 17 -12
0z"/>
<path d="M1061 1004 c0 -11 3 -14 6 -6 3 7 2 16 -1 19 -3 4 -6 -2 -5 -13z"/>
<path d="M1097 1014 c-4 -4 -7 -17 -7 -28 1 -19 1 -20 11 -3 11 19 8 43 -4 31z"/>
<path d="M1420 1010 c0 -5 9 -10 20 -10 11 0 20 5 20 10 0 6 -9 10 -20 10 -11
0 -20 -4 -20 -10z"/>
<path d="M1480 1010 c0 -5 19 -10 42 -10 49 0 47 5 -4 14 -24 4 -38 3 -38 -4z"/>
<path d="M856 994 c-4 -9 -4 -19 -1 -22 2 -3 7 3 11 12 4 9 4 19 1 22 -2 3 -7
-3 -11 -12z"/>
<path d="M931 994 c0 -11 3 -14 6 -6 3 7 2 16 -1 19 -3 4 -6 -2 -5 -13z"/>
<path d="M960 989 c0 -11 4 -18 10 -14 5 3 7 12 3 20 -7 21 -13 19 -13 -6z"/>
<path d="M1578 1003 c7 -3 16 -2 19 1 4 3 -2 6 -13 5 -11 0 -14 -3 -6 -6z"/>
<path d="M1001 984 c0 -11 3 -14 6 -6 3 7 2 16 -1 19 -3 4 -6 -2 -5 -13z"/>
<path d="M1035 987 c-4 -10 -5 -21 -1 -24 10 -10 18 4 13 24 -4 17 -4 17 -12
0z"/>
<path d="M661 974 c0 -11 3 -14 6 -6 3 7 2 16 -1 19 -3 4 -6 -2 -5 -13z"/>
<path d="M722 970 c0 -14 2 -19 5 -12 2 6 2 18 0 25 -3 6 -5 1 -5 -13z"/>
<path d="M1146 973 c-6 -14 -5 -15 5 -6 7 7 10 15 7 18 -3 3 -9 -2 -12 -12z"/>
<path d="M780 966 c0 -8 5 -18 10 -21 6 -3 10 1 10 9 0 8 -4 18 -10 21 -5 3
-10 -1 -10 -9z"/>
<path d="M1350 949 c0 -4 7 -9 15 -13 9 -3 15 0 15 8 0 7 -7 13 -15 13 -8 0
-15 -4 -15 -8z"/>
<path d="M710 928 c0 -9 5 -20 10 -23 13 -8 13 5 0 25 -8 13 -10 13 -10 -2z"/>
<path d="M767 918 c-8 -30 9 -47 18 -18 4 12 3 26 -3 32 -6 6 -11 1 -15 -14z"/>
<path d="M1641 904 c0 -11 3 -14 6 -6 3 7 2 16 -1 19 -3 4 -6 -2 -5 -13z"/>
<path d="M1996 861 c-18 -19 -25 -34 -20 -47 5 -19 5 -19 -10 0 -14 17 -14 21
-1 36 19 21 20 36 1 21 -7 -6 -20 -9 -29 -6 -21 9 -50 -34 -35 -52 8 -10 6
-13 -7 -13 -13 0 -15 6 -10 31 5 24 4 30 -5 24 -8 -5 -10 -21 -7 -46 4 -30 2
-36 -10 -32 -8 3 -12 12 -9 20 3 8 1 11 -4 8 -13 -8 -13 -35 0 -35 12 0 2 -53
-11 -58 -4 -2 -5 -11 -2 -19 6 -14 8 -14 14 3 7 18 8 18 8 0 1 -15 4 -16 16
-6 20 17 19 31 -1 23 -13 -5 -15 -2 -9 18 10 33 17 39 58 49 23 5 39 4 46 -3
8 -8 11 -7 11 2 0 7 5 9 11 5 8 -4 9 3 5 24 -6 26 -4 30 18 36 15 3 26 13 26
21 0 26 -17 25 -44 -4z m-60 -17 c-4 -9 -1 -23 5 -30 7 -9 8 -14 1 -14 -5 0
-12 7 -16 15 -5 15 2 45 11 45 3 0 2 -7 -1 -16z"/>
<path d="M2042 841 c-26 -12 -33 -21 -31 -41 2 -45 0 -57 -10 -41 -7 10 -13
11 -27 2 -16 -8 -16 -10 -3 -11 44 -1 66 -88 32 -126 -19 -20 -77 -26 -102
-10 -10 6 -12 5 -9 -5 5 -15 75 -30 107 -24 83 16 114 17 122 4 6 -11 9 -10
15 4 11 30 -9 39 -49 22 -20 -8 -38 -15 -39 -15 -2 0 -3 13 -3 29 0 19 4 27
13 24 6 -3 12 -8 12 -12 0 -3 18 -6 40 -6 22 0 38 4 36 10 -2 6 -17 9 -35 9
-36 -2 -40 6 -10 24 15 10 24 10 34 2 17 -14 35 -5 34 18 -1 16 -2 16 -6 0 -4
-14 -8 -15 -28 -6 -18 8 -28 8 -40 -2 -19 -16 -20 0 -1 25 12 16 16 17 29 6 9
-7 21 -10 27 -6 19 12 10 20 -24 22 -29 1 -37 -3 -50 -30 -10 -22 -16 -26 -16
-14 0 11 8 32 17 47 14 24 21 28 45 23 16 -3 28 -1 28 5 0 17 -59 7 -74 -13
-14 -19 -15 -19 -16 -2 0 10 5 27 10 38 8 15 7 19 -3 19 -18 0 -28 -49 -16
-72 6 -10 5 -19 -1 -23 -5 -3 -7 -12 -4 -19 3 -8 1 -17 -5 -21 -7 -4 -11 4
-11 19 0 14 -5 28 -11 31 -6 4 -7 14 -3 24 3 9 9 30 13 46 5 22 13 30 29 31
27 2 39 11 26 22 -5 5 -24 1 -42 -7z"/>
<path d="M2096 812 c-3 -6 -1 -14 5 -17 15 -10 25 3 12 16 -7 7 -13 7 -17 1z"/>
<path d="M2175 790 c-3 -5 -1 -10 4 -10 6 0 11 5 11 10 0 6 -2 10 -4 10 -3 0
-8 -4 -11 -10z"/>
<path d="M1855 660 c-3 -5 -1 -10 4 -10 6 0 11 5 11 10 0 6 -2 10 -4 10 -3 0
-8 -4 -11 -10z"/>
<path d="M1487 623 c-4 -20 -4 -39 -2 -42 3 -2 5 3 5 12 0 10 5 17 11 17 6 0
8 7 5 16 -4 9 -2 13 5 8 7 -4 10 -1 7 6 -9 28 -25 19 -31 -17z"/>
<path d="M1444 615 l0 -36 13 26 c8 14 11 30 8 35 -12 20 -21 9 -21 -25z"/>
<path d="M1540 634 c0 -8 -7 -22 -15 -31 -8 -8 -12 -20 -8 -26 5 -8 9 -6 11 6
2 9 7 17 10 17 4 0 13 9 19 19 10 15 9 20 -2 25 -9 3 -15 -1 -15 -10z"/>
<path d="M1404 603 c6 -51 6 -51 16 -28 14 33 12 65 -5 65 -12 0 -15 -9 -11
-37z"/>
<path d="M2175 621 c-8 -27 -2 -36 13 -18 6 7 7 18 3 26 -7 10 -10 8 -16 -8z"/>
<path d="M1568 605 c-10 -13 -14 -31 -11 -44 3 -12 1 -21 -6 -21 -6 0 -11 5
-11 12 0 6 -9 3 -20 -7 -17 -15 -20 -16 -15 -3 4 9 2 19 -4 23 -7 3 -11 -2
-11 -14 0 -28 -20 -27 -21 2 -1 16 -3 17 -6 5 -3 -10 -11 -15 -21 -12 -13 5
-13 2 3 -12 17 -14 17 -16 3 -11 -11 4 -18 1 -18 -6 0 -8 -4 -6 -10 3 -6 10
-10 11 -10 3 0 -7 -11 -15 -25 -19 -20 -5 -23 -9 -14 -20 6 -8 8 -14 4 -14
-17 0 28 -39 56 -49 23 -8 32 -6 44 6 22 21 3 42 -20 23 -20 -17 -29 -7 -21
24 4 17 11 23 21 20 8 -4 21 -2 28 3 17 13 58 8 68 -8 5 -8 9 -24 9 -35 0 -17
5 -20 24 -17 13 3 27 14 29 25 3 11 10 17 15 14 5 -3 16 2 23 11 12 15 12 16
-1 8 -44 -27 -55 2 -15 39 30 28 33 41 6 26 -11 -5 -23 -19 -26 -30 -3 -11
-10 -20 -15 -20 -15 0 2 45 24 62 11 9 18 20 14 23 -10 10 -48 -27 -48 -47 0
-10 -4 -18 -10 -18 -12 0 -13 40 -1 58 4 8 12 13 17 12 14 -3 16 17 2 23 -7 2
-21 -6 -30 -18z m-148 -130 c-7 -8 -17 -15 -23 -15 -6 0 -2 8 9 19 22 21 33
19 14 -4z"/>
<path d="M1356 587 c10 -12 20 -24 21 -26 2 -2 3 7 3 20 0 18 -6 25 -21 26
-21 2 -21 1 -3 -20z"/>
<path d="M1330 582 c0 -5 7 -15 15 -22 8 -7 15 -8 15 -2 0 5 -7 15 -15 22 -8
7 -15 8 -15 2z"/>
<path d="M506 555 c-3 -8 -1 -15 4 -15 6 0 10 5 10 11 0 5 5 7 10 4 6 -3 10
-1 10 4 0 17 -27 13 -34 -4z"/>
<path d="M560 555 c0 -9 6 -12 15 -9 8 4 15 7 15 9 0 2 -7 5 -15 9 -9 3 -15 0
-15 -9z"/>
<path d="M1320 551 c0 -5 -2 -15 -5 -23 -3 -7 2 -22 10 -33 16 -20 16 -20 6 1
-5 11 -7 30 -4 42 3 12 3 22 -1 22 -3 0 -6 -4 -6 -9z"/>
<path d="M1637 516 c-4 -10 -1 -13 9 -9 7 3 14 9 14 14 0 14 -17 10 -23 -5z"/>
<path d="M2130 520 c-12 -8 -11 -10 8 -10 12 0 22 5 22 10 0 13 -11 13 -30 0z"/>
<path d="M2170 519 c0 -5 5 -7 10 -4 6 3 10 8 10 11 0 2 -4 4 -10 4 -5 0 -10
-5 -10 -11z"/>
<path d="M2078 513 c7 -3 16 -2 19 1 4 3 -2 6 -13 5 -11 0 -14 -3 -6 -6z"/>
<path d="M398 485 c3 -16 11 -25 23 -25 21 0 22 1 13 24 -3 9 -10 13 -15 10
-5 -3 -9 0 -9 5 0 6 -4 11 -9 11 -4 0 -6 -11 -3 -25z"/>
<path d="M466 488 c1 -13 3 -26 3 -30 1 -3 9 -5 19 -4 26 4 23 50 -4 54 -16 2
-20 -2 -18 -20z"/>
<path d="M540 490 c0 -11 -4 -20 -10 -20 -5 0 -10 -4 -10 -10 0 -5 8 -10 18
-10 19 0 46 36 37 50 -11 18 -35 10 -35 -10z"/>
<path d="M1840 470 c0 -24 28 -39 81 -45 40 -4 41 -3 23 16 -21 24 -35 25 -28
2 4 -12 -1 -9 -15 7 -19 23 -21 23 -21 5 -1 -17 -3 -16 -16 8 -17 32 -24 34
-24 7z"/>
<path d="M1660 429 c-22 -18 -22 -19 -3 -10 12 6 25 16 28 21 9 15 3 12 -25
-11z"/>
<path d="M1970 434 c0 -9 7 -14 17 -12 25 5 28 28 4 28 -12 0 -21 -6 -21 -16z"/>
<path d="M2026 443 c-11 -11 -6 -23 8 -23 8 0 17 4 20 9 7 10 -19 23 -28 14z"/>
<path d="M656 415 c-9 -14 -13 -25 -9 -25 10 0 36 40 30 46 -2 3 -12 -7 -21
-21z"/>
<path d="M2080 430 c0 -5 6 -10 14 -10 8 0 18 5 21 10 3 6 -3 10 -14 10 -12 0
-21 -4 -21 -10z"/>
<path d="M2138 433 c7 -3 16 -2 19 1 4 3 -2 6 -13 5 -11 0 -14 -3 -6 -6z"/>
<path d="M380 414 c0 -8 10 -14 25 -14 22 0 38 19 18 21 -5 0 -16 2 -25 4 -10
2 -18 -3 -18 -11z"/>
<path d="M620 410 c0 -11 -5 -20 -11 -20 -6 0 -9 7 -5 15 8 22 -11 18 -23 -4
-16 -30 34 -25 54 5 14 21 14 24 0 24 -8 0 -15 -9 -15 -20z"/>
<path d="M457 413 c-12 -11 -8 -23 7 -23 7 0 19 7 26 15 10 12 9 15 -7 15 -11
0 -23 -3 -26 -7z"/>
<path d="M510 413 c0 -5 4 -14 9 -22 8 -12 12 -12 25 -2 23 19 20 31 -9 31
-14 0 -25 -3 -25 -7z"/>
<path d="M2200 414 c0 -5 -15 -11 -32 -12 -18 -2 -37 -7 -41 -11 -5 -5 7 -8
28 -6 37 2 64 19 52 32 -4 3 -7 2 -7 -3z"/>
<path d="M2020 386 c0 -2 9 -6 20 -9 11 -3 20 -1 20 4 0 5 -9 9 -20 9 -11 0
-20 -2 -20 -4z"/>
<path d="M2080 386 c0 -2 7 -6 15 -10 8 -3 15 -1 15 4 0 6 -7 10 -15 10 -8 0
-15 -2 -15 -4z"/>
<path d="M1403 373 c9 -2 23 -2 30 0 6 3 -1 5 -18 5 -16 0 -22 -2 -12 -5z"/>
<path d="M1463 373 c9 -2 23 -2 30 0 6 3 -1 5 -18 5 -16 0 -22 -2 -12 -5z"/>
<path d="M366 352 c-3 -6 -1 -14 5 -18 6 -3 15 0 20 7 6 10 9 11 9 2 0 -15 46
-17 55 -3 3 5 -4 10 -17 9 -13 0 -33 2 -44 6 -12 4 -25 2 -28 -3z"/>
<path d="M1623 315 c-2 -30 1 -44 8 -39 6 4 8 19 5 36 -4 20 -2 27 5 22 7 -4
10 -1 7 6 -10 31 -23 17 -25 -25z"/>
<path d="M1674 344 c3 -9 6 -20 6 -25 0 -6 5 -7 10 -4 6 4 8 11 5 16 -4 5 -1
9 4 9 6 0 11 5 11 10 0 6 -9 10 -21 10 -15 0 -19 -4 -15 -16z"/>
<path d="M1733 339 c5 -28 12 -31 31 -10 16 18 16 19 -8 23 -20 4 -25 1 -23
-13z"/>
<path d="M490 340 c0 -5 -8 -11 -17 -13 -10 -3 -3 -5 15 -6 33 -1 44 12 17 23
-8 3 -15 1 -15 -4z"/>
<path d="M1571 340 c0 -8 6 -23 13 -32 12 -16 13 -14 13 15 1 25 -1 28 -7 12
l-7 -20 -5 20 c-3 11 -6 13 -7 5z"/>
<path d="M544 329 c-4 -7 5 -9 30 -6 50 7 58 17 13 17 -20 0 -39 -5 -43 -11z"/>
<path d="M1428 333 c12 -2 32 -2 45 0 12 2 2 4 -23 4 -25 0 -35 -2 -22 -4z"/>
<path d="M1530 330 c0 -5 5 -10 11 -10 5 0 7 5 4 10 -3 6 -8 10 -11 10 -2 0
-4 -4 -4 -10z"/>
<path d="M1800 327 c0 -7 -10 -17 -22 -22 -18 -8 -22 -17 -20 -40 3 -29 3 -29
-12 -10 -8 11 -16 28 -16 37 0 9 -4 19 -9 22 -13 8 -20 -31 -8 -43 6 -6 8 -13
4 -17 -10 -10 -28 7 -42 38 -11 28 -13 28 -18 9 -3 -12 -2 -19 3 -16 4 3 11
-2 14 -11 11 -28 7 -35 -15 -24 -18 10 -19 10 -10 -8 6 -11 25 -22 48 -26 59
-9 141 -7 148 4 4 6 10 8 15 5 12 -7 70 22 70 35 0 5 -4 12 -10 15 -5 3 -10 0
-10 -7 0 -7 -11 -18 -25 -25 -14 -6 -25 -7 -25 -3 0 5 9 12 20 15 21 7 27 30
10 40 -5 3 -10 0 -10 -8 0 -7 -11 -20 -25 -27 -13 -7 -26 -20 -28 -29 -4 -14
-5 -14 -6 0 0 9 10 24 24 33 27 18 34 56 10 56 -8 0 -15 -7 -15 -17 0 -9 -3
-14 -6 -10 -10 10 -34 -20 -34 -43 0 -12 -4 -19 -9 -16 -16 10 -4 57 18 72 24
18 28 34 6 34 -8 0 -15 -6 -15 -13z"/>
<path d="M370 270 c0 -5 11 -10 25 -10 14 0 25 5 25 10 0 6 -11 10 -25 10 -14
0 -25 -4 -25 -10z"/>
<path d="M341 254 c0 -11 3 -14 6 -6 3 7 2 16 -1 19 -3 4 -6 -2 -5 -13z"/>
<path d="M458 263 c7 -3 16 -2 19 1 4 3 -2 6 -13 5 -11 0 -14 -3 -6 -6z"/>
<path d="M2070 250 c-6 -11 -8 -20 -6 -20 3 0 10 9 16 20 6 11 8 20 6 20 -3 0
-10 -9 -16 -20z"/>
<path d="M610 234 c0 -8 5 -12 10 -9 6 3 10 10 10 16 0 5 -4 9 -10 9 -5 0 -10
-7 -10 -16z"/>
<path d="M570 229 c0 -5 5 -7 10 -4 6 3 10 8 10 11 0 2 -4 4 -10 4 -5 0 -10
-5 -10 -11z"/>
<path d="M1550 211 c0 -5 5 -13 10 -16 6 -3 10 -2 10 4 0 5 -4 13 -10 16 -5 3
-10 2 -10 -4z"/>
<path d="M1605 190 c3 -5 10 -10 16 -10 5 0 9 5 9 10 0 6 -7 10 -16 10 -8 0
-12 -4 -9 -10z"/>
<path d="M1678 173 c7 -3 16 -2 19 1 4 3 -2 6 -13 5 -11 0 -14 -3 -6 -6z"/>
<path d="M2710 151 c8 -6 18 -7 22 -5 4 3 8 0 8 -5 0 -6 10 -11 23 -11 22 1
22 1 -3 15 -28 16 -76 21 -50 6z"/>
<path d="M2433 143 c9 -2 23 -2 30 0 6 3 -1 5 -18 5 -16 0 -22 -2 -12 -5z"/>
<path d="M2270 109 c0 -5 5 -7 10 -4 6 3 10 8 10 11 0 2 -4 4 -10 4 -5 0 -10
-5 -10 -11z"/>
<path d="M2225 100 c3 -5 13 -10 21 -10 8 0 14 5 14 10 0 6 -9 10 -21 10 -11
0 -17 -4 -14 -10z"/>
<path d="M2118 93 c7 -3 16 -2 19 1 4 3 -2 6 -13 5 -11 0 -14 -3 -6 -6z"/>
<path d="M853 53 c15 -2 37 -2 50 0 12 2 0 4 -28 4 -27 0 -38 -2 -22 -4z"/>
<path d="M938 53 c6 -2 18 -2 25 0 6 3 1 5 -13 5 -14 0 -19 -2 -12 -5z"/>
<path d="M593 43 c9 -2 23 -2 30 0 6 3 -1 5 -18 5 -16 0 -22 -2 -12 -5z"/>
<path d="M730 39 c-33 -4 -21 -6 45 -7 89 0 103 3 35 10 -19 2 -55 0 -80 -3z"/>
<path d="M908 33 c12 -2 30 -2 40 0 9 3 -1 5 -23 4 -22 0 -30 -2 -17 -4z"/>
</g>
</svg>
